<?xml version="1.0" encoding="UTF-8"?>
<svg width="510px" height="469px" viewBox="0 0 510 469" version="1.1" xmlns="http://www.w3.org/2000/svg" xmlns:xlink="http://www.w3.org/1999/xlink">
    <!-- Generator: Sketch 50.2 (55047) - http://www.bohemiancoding.com/sketch -->
    <title>Group 7</title>
    <desc>Created with Sketch.</desc>
    <defs></defs>
    <g id="Page-1" stroke="none" stroke-width="1" fill="none" fill-rule="evenodd">
        <g id="Artboard" transform="translate(-20.000000, -42.000000)">
            <g id="Group-7" transform="translate(19.000000, 40.000000)">
                <g id="Group-2" transform="translate(9.000000, 36.000000)">
                    <g id="001-gear">
                        <circle id="Oval" fill="#FEAA00" fill-rule="nonzero" cx="100" cy="100" r="100"></circle>
                        <path d="M200,100 C200,90.1765625 198.576953,80.6871094 195.937109,71.7183594 L149.088672,24.8699219 L135.947266,85.9800781 L120.664453,70.6972656 L110.925781,105.683203 L75.9398437,70.6972656 L22.3378906,150.591797 L65.7113281,193.965234 C76.40625,197.869141 87.9542969,200 100,200 C155.228516,200 200,155.228516 200,100 Z" id="Shape" fill="#FE8E00" fill-rule="nonzero"></path>
                        <polygon id="Shape" fill="#FFFFFF" fill-rule="nonzero" points="157.441797 124.088672 123.307422 124.088672 131.660547 24.8699219 149.088672 24.8699219"></polygon>
                        <polygon id="Shape" fill="#E0E0E0" fill-rule="nonzero" points="149.088672 24.8699219 140.439063 24.8699219 140.439063 124.088672 157.441797 124.088672"></polygon>
                        <polygon id="Shape" fill="#D6283B" fill-rule="nonzero" points="128.404687 63.5417969 152.344141 63.5417969 151.620703 54.9480469 129.128125 54.9480469"></polygon>
                        <polygon id="Shape" fill="#C20231" fill-rule="nonzero" points="151.620703 54.9480469 140.439063 54.9480469 140.439063 63.5417969 152.344141 63.5417969"></polygon>
                        <polygon id="Shape" fill="#D6283B" fill-rule="nonzero" points="130.761328 35.546875 130.147656 42.8386719 150.601172 42.8386719 149.9875 35.546875"></polygon>
                        <polygon id="Shape" fill="#C20231" fill-rule="nonzero" points="149.9875 35.546875 140.439063 35.546875 140.439063 42.8386719 150.601172 42.8386719"></polygon>
                        <polygon id="Shape" fill="#37474F" fill-rule="nonzero" points="164.033984 147.657422 115.243359 147.657422 115.243359 92.365625 164.033984 70.6972656"></polygon>
                        <polygon id="Shape" fill="#546E7A" fill-rule="nonzero" points="120.664453 147.657422 71.8738281 147.657422 71.8738281 92.365625 120.664453 70.6972656"></polygon>
                        <g id="Group" transform="translate(26.953125, 70.312500)" fill="#455A64" fill-rule="nonzero">
                            <polygon id="Shape" points="71.2054687 10.3800781 71.2054687 77.3449219 93.7113281 77.3449219 93.7113281 0.384765625"></polygon>
                            <polygon id="Shape" points="48.9867188 77.3449219 0.19609375 77.3449219 0.19609375 22.053125 48.9867188 0.384765625"></polygon>
                        </g>
                        <rect id="Rectangle-path" fill="#607D8A" fill-rule="nonzero" x="22.3398438" y="142.054688" width="145.558594" height="8.53828125"></rect>
                        <rect id="Rectangle-path" fill="#546E7A" fill-rule="nonzero" x="98.4179688" y="142.054688" width="69.4765625" height="8.53828125"></rect>
                        <g id="Group" transform="translate(36.718750, 99.609375)" fill="#7AE5FE" fill-rule="nonzero">
                            <rect id="Rectangle-path" x="0.2578125" y="0.16015625" width="11.18125" height="21.140625"></rect>
                            <rect id="Rectangle-path" x="17.7382812" y="0.16015625" width="11.18125" height="21.140625"></rect>
                            <rect id="Rectangle-path" x="46.6054688" y="0.16015625" width="11.18125" height="21.140625"></rect>
                        </g>
                        <g id="Group" transform="translate(101.562500, 99.609375)" fill="#00BED2" fill-rule="nonzero">
                            <rect id="Rectangle-path" x="0.02734375" y="0.16015625" width="11.18125" height="21.140625"></rect>
                            <rect id="Rectangle-path" x="26.4882812" y="0.16015625" width="11.18125" height="21.140625"></rect>
                            <rect id="Rectangle-path" x="43.9726562" y="0.16015625" width="11.18125" height="21.140625"></rect>
                        </g>
                        <text id="PRESTATAIRE" font-family="Impact" font-size="24" font-style="condensed" font-weight="700" fill="#FFFFFF">
                            <tspan x="38.1660156" y="175">PRESTATAIRE</tspan>
                        </text>
                    </g>
                    <g id="002-teamwork" transform="translate(275.000000, 0.000000)">
                        <circle id="Oval" fill="#E9EFF4" fill-rule="nonzero" cx="100" cy="100" r="100"></circle>
                        <path d="M195.833333,121.636529 L147.079843,72.5014999 L137.781371,95.9744814 L107.32303,65.2777778 L90.8744299,102.650251 L61.6874395,73.2348469 L50.183842,103.875501 L23.6111111,131.865759 L90.9172101,199.698587 C93.4770221,199.897308 96.0640579,200 98.6744283,200 C108.019959,200 117.063306,198.699495 125.639959,196.272904 C125.733298,196.176875 125.828192,196.078887 125.920753,195.984426 L126.082929,196.147871 C160.878404,186.126377 187.879715,157.505073 195.833333,121.636529 Z" id="Shape" fill="#CFDBE6" fill-rule="nonzero"></path>
                        <path d="M44.5700831,104.167447 L34.307161,107.593397 C27.9195108,109.725889 23.6111111,115.713014 23.6111111,122.456866 L23.6111111,131.944444 L51.3888889,131.944444 L51.3888889,104.166667 L44.5700831,104.166667 L44.5700831,104.167447 Z" id="Shape" fill="#E9EFF4" fill-rule="nonzero"></path>
                        <path d="M80.5555556,122.456086 C80.5555556,115.712233 76.2983308,109.724719 69.9875202,107.592617 L59.847429,104.166667 L52.7777778,104.166667 L52.7777778,131.944444 L80.5551658,131.944444 L80.5551658,122.456476 L80.5555556,122.456476 L80.5555556,122.456086 Z" id="Shape" fill="#D0D1D3" fill-rule="nonzero"></path>
                        <polygon id="Shape" fill="#FED8B2" fill-rule="nonzero" points="59.7222222 104.16628 52.7781649 111.111111 45.8333333 104.16628 45.8333333 97.2222222 59.7222222 97.2222222"></polygon>
                        <polygon id="Shape" fill="#EAC3A2" fill-rule="nonzero" points="52.7777778 97.2222222 52.7777778 110.94621 52.9388456 111.111111 59.7222222 104.16628 59.7222222 97.2222222"></polygon>
                        <path d="M38.8888889,81.9444444 C38.8888889,74.2737735 45.4180177,68.0555556 53.4722222,68.0555556 C61.5264267,68.0555556 68.0555556,74.2737735 68.0555556,81.9444444 C68.0555556,89.6151154 61.5264267,102.777778 53.4722222,102.777778 C45.4180177,102.777778 38.8888889,89.6147283 38.8888889,81.9444444 Z" id="Shape" fill="#F4E3C3" fill-rule="nonzero"></path>
                        <path d="M52.9407534,68.0555556 C52.8860456,68.0555556 52.8324856,68.0629107 52.7777778,68.063685 L52.7777778,102.769261 C52.8324856,102.770423 52.8860456,102.777778 52.9407534,102.777778 C60.5214148,102.777778 66.6666667,89.6151154 66.6666667,81.9444444 C66.6666667,74.2737735 60.52218,68.0555556 52.9407534,68.0555556 Z" id="Shape" fill="#FED8B2" fill-rule="nonzero"></path>
                        <path d="M68.0555556,81.4314073 C68.0555556,74.0440808 61.5264267,68.0555556 53.4722222,68.0555556 C45.4180177,68.0555556 38.8888889,74.0440808 38.8888889,81.4314073 C38.8888889,84.3796273 39.9306717,88.1689176 41.692313,91.6592104 C41.2797459,89.6501111 41.3894928,87.5955283 41.6061413,86.0453641 C50.8634973,85.3795168 59.7960836,81.4071744 59.7960836,81.4071744 C59.7960836,81.4071744 60.9264769,83.3126311 65.1671792,85.0089388 C65.4679671,86.5911651 65.7642837,89.1639605 65.2484732,91.6666667 C67.0121469,88.1737642 68.0555556,84.3811185 68.0555556,81.4314073 Z" id="Shape" fill="#F9B54C" fill-rule="nonzero"></path>
                        <path d="M66.6666667,81.4314073 C66.6666667,74.0440808 60.5214148,68.0555556 52.9407534,68.0555556 C52.8860456,68.0555556 52.8324856,68.062639 52.7777778,68.0633847 L52.7777778,83.7465876 C56.4236876,82.5722208 58.8928064,81.4071744 58.8928064,81.4071744 C58.8928064,81.4071744 59.9567388,83.3126311 63.948111,85.0089388 C64.2312142,86.5911651 64.5101091,89.1647061 64.0246254,91.6666667 C65.6846047,88.1737642 66.6666667,84.3811185 66.6666667,81.4314073 Z" id="Shape" fill="#F4A200" fill-rule="nonzero"></path>
                        <polygon id="Shape" fill="#38C6D9" fill-rule="nonzero" points="50 130.555556 51.8519746 112.5 53.703581 112.5 55.5555556 130.555556"></polygon>
                        <polygon id="Shape" fill="#02B2B2" fill-rule="nonzero" points="53.8028022 112.5 52.7777778 112.5 52.7777778 130.555556 55.5555556 130.555556"></polygon>
                        <path d="M81.9444444,123.466156 C81.9444444,116.453057 77.4746709,110.226493 70.8467829,108.009268 L63.5146087,105.555556 L52.9499097,133.078592 L52.7777778,132.631172 L52.7777778,133.333333 L81.9444444,133.333333 L81.9444444,123.466156 Z" id="Shape" fill="#57442F" fill-rule="nonzero"></path>
                        <path d="M41.373234,105.555556 L34.3067044,108.00934 C27.9197237,110.227035 23.6111111,116.453375 23.6111111,123.466679 L23.6111111,133.333333 L51.3888889,133.333333 L51.3888889,132.631151 L41.373234,105.555556 Z" id="Shape" fill="#734B46" fill-rule="nonzero"></path>
                        <polygon id="Shape" fill="#443322" fill-rule="nonzero" points="62.1139248 105.555556 63.8888889 114.224469 60.5221344 116.154761 63.8888889 120.594636 52.7777778 133.333333"></polygon>
                        <polygon id="Shape" fill="#57442F" fill-rule="nonzero" points="42.0524989 105.555556 40.2777778 114.224469 43.6451058 116.154761 40.2777778 120.594636 51.3888889 133.333333"></polygon>
                        <polygon id="Shape" fill="#71E2EF" fill-rule="nonzero" points="55.5555556 111.111111 53.2409745 116.666667 50.9260428 116.666667 48.6111111 111.111111"></polygon>
                        <polygon id="Shape" fill="#38C6D9" fill-rule="nonzero" points="56.9444444 111.111111 52.7777778 111.111111 52.7777778 116.666667 54.2817798 116.666667"></polygon>
                        <polygon id="Shape" fill="#E9EFF4" fill-rule="nonzero" points="58.5623977 113.888889 62.5 105.279125 59.4485349 104.166667 52.7777778 111.461484"></polygon>
                        <polygon id="Shape" fill="#FFFFFF" fill-rule="nonzero" points="46.9924141 113.888889 43.0555556 105.279125 46.1070207 104.166667 52.7777778 111.461484"></polygon>
                        <path d="M132.049566,104.167447 L121.796691,107.593397 C115.415293,109.725889 111.111111,115.713014 111.111111,122.456866 L111.111111,131.944444 L138.888889,131.944444 L138.888889,104.166667 L132.049566,104.166667 L132.049566,104.167447 Z" id="Shape" fill="#E9EFF4" fill-rule="nonzero"></path>
                        <path d="M166.666277,122.456086 C166.666277,115.712233 162.404866,109.724719 156.087851,107.592617 L145.937791,104.166667 L138.888889,104.166667 L138.888889,131.944444 L166.666667,131.944444 L166.666667,122.456086 L166.666277,122.456086 Z" id="Shape" fill="#D0D1D3" fill-rule="nonzero"></path>
                        <polygon id="Shape" fill="#FED8B2" fill-rule="nonzero" points="145.833333 104.16628 138.888889 111.111111 131.944444 104.16628 131.944444 97.2222222 145.833333 97.2222222"></polygon>
                        <polygon id="Shape" fill="#EAC3A2" fill-rule="nonzero" points="138.888889 97.2222222 138.888889 110.972532 139.025136 111.111111 145.833333 104.16628 145.833333 97.2222222"></polygon>
                        <path d="M123.611111,81.9444444 C123.611111,74.2737735 130.14024,68.0555556 138.194444,68.0555556 C146.248649,68.0555556 152.777778,74.2737735 152.777778,81.9444444 C152.777778,89.6151154 146.248649,102.777778 138.194444,102.777778 C130.14024,102.777778 123.611111,89.6147283 123.611111,81.9444444 Z" id="Shape" fill="#F4E3C3" fill-rule="nonzero"></path>
                        <path d="M139.025727,68.0555556 C138.979348,68.0555556 138.934502,68.0621365 138.888889,68.0621365 L138.888889,102.770423 C138.934502,102.771197 138.980114,102.777778 139.025727,102.777778 C146.620824,102.777778 152.777778,89.6151154 152.777778,81.9444444 C152.777778,74.2737735 146.620441,68.0555556 139.025727,68.0555556 Z" id="Shape" fill="#FED8B2" fill-rule="nonzero"></path>
                        <path d="M152.777778,81.4314073 C152.777778,74.0440808 146.248649,68.0555556 138.194444,68.0555556 C130.14024,68.0555556 123.611111,74.0440808 123.611111,81.4314073 C123.611111,84.3796273 124.652894,88.1689176 126.414535,91.6592104 C126.001968,89.6501111 126.111715,87.5955283 126.328364,86.0453641 C135.58572,85.3795168 144.518306,81.4071744 144.518306,81.4071744 C144.518306,81.4071744 145.648699,83.3126311 149.889401,85.0089388 C150.190189,86.5911651 150.486506,89.1639605 149.970695,91.6666667 C151.734369,88.1737642 152.777778,84.3811185 152.777778,81.4314073 Z" id="Shape" fill="#D83E20" fill-rule="nonzero"></path>
                        <path d="M152.777778,81.4316185 C152.777778,74.0441753 146.620824,68.0555556 139.025727,68.0555556 C138.979348,68.0555556 138.934502,68.0618935 138.888889,68.0618935 L138.888889,83.7382605 C142.527176,82.5664849 144.989114,81.4070124 144.989114,81.4070124 C144.989114,81.4070124 146.055073,83.3124992 150.054045,85.0088337 C150.337688,86.5910849 150.617114,89.1646666 150.130705,91.6666667 C151.793846,88.1740819 152.777778,84.3813763 152.777778,81.4316185 Z" id="Shape" fill="#C1321F" fill-rule="nonzero"></path>
                        <polygon id="Shape" fill="#38C6D9" fill-rule="nonzero" points="136.111111 130.555556 137.96284 112.5 139.814201 112.5 141.666667 130.555556"></polygon>
                        <polygon id="Shape" fill="#02B2B2" fill-rule="nonzero" points="139.898351 112.5 138.888889 112.5 138.888889 130.555556 141.666667 130.555556"></polygon>
                        <path d="M128.856069,105.555556 L121.796368,108.00934 C115.41556,110.226629 111.111111,116.453375 111.111111,123.466679 L111.111111,133.333333 L138.888889,133.333333 L138.888889,132.703357 L128.856069,105.555556 Z" id="Shape" fill="#324A5E" fill-rule="nonzero"></path>
                        <path d="M168.055556,123.466679 C168.055556,116.453375 163.580696,110.226629 156.947276,108.00934 L149.608086,105.555556 L139.033278,133.079396 L138.888889,132.703357 L138.888889,133.333333 L168.055556,133.333333 L168.055556,123.466679 Z" id="Shape" fill="#2B3B4E" fill-rule="nonzero"></path>
                        <polygon id="Shape" fill="#22303F" fill-rule="nonzero" points="148.225279 105.555556 150 114.224469 146.633029 116.154761 150 120.594636 138.888889 133.333333"></polygon>
                        <polygon id="Shape" fill="#425E70" fill-rule="nonzero" points="129.552742 105.555556 127.777778 114.224469 131.144532 116.154761 127.777778 120.594636 138.888889 133.333333"></polygon>
                        <polygon id="Shape" fill="#71E2EF" fill-rule="nonzero" points="143.055556 111.111111 140.740624 116.666667 138.426043 116.666667 136.111111 111.111111"></polygon>
                        <polygon id="Shape" fill="#38C6D9" fill-rule="nonzero" points="143.055556 111.111111 138.888889 111.111111 138.888889 116.666667 140.374576 116.666667"></polygon>
                        <polygon id="Shape" fill="#E9EFF4" fill-rule="nonzero" points="144.674031 113.888889 148.611111 105.279125 145.559391 104.166667 138.888889 111.461484"></polygon>
                        <polygon id="Shape" fill="#FFFFFF" fill-rule="nonzero" points="133.103968 113.888889 129.166667 105.279125 132.218642 104.166667 138.888889 111.461484"></polygon>
                        <path d="M89.3697766,100 L77.5729909,103.940277 C70.2306483,106.393076 65.2777778,113.278291 65.2777778,121.033637 L65.2777778,131.944444 L97.2222222,131.944444 L97.2222222,100 L89.3697766,100 Z" id="Shape" fill="#E9EFF4" fill-rule="nonzero"></path>
                        <path d="M129.166269,121.033637 C129.166269,113.278291 124.268155,106.393076 117.006986,103.940277 L105.340621,100 L97.2222222,100 L97.2222222,131.944444 L129.166667,131.944444 L129.166269,121.033637 Z" id="Shape" fill="#D0D1D3" fill-rule="nonzero"></path>
                        <polygon id="Shape" fill="#FED8B2" fill-rule="nonzero" points="104.166667 100.69407 96.5281527 108.333333 88.8888889 100.69407 88.8888889 93.0555556 104.166667 93.0555556"></polygon>
                        <polygon id="Shape" fill="#EAC3A2" fill-rule="nonzero" points="97.2222222 93.0555556 97.2222222 108.166488 97.4003533 108.333333 105.555556 100.69407 105.555556 93.0555556"></polygon>
                        <path d="M81.9444444,75.8334915 C81.9444444,66.9356805 89.0948636,59.7222222 97.9166667,59.7222222 C106.73847,59.7222222 113.888889,66.9348897 113.888889,75.8334915 C113.888889,84.7320933 106.73847,100 97.9166667,100 C89.0948636,100 81.9444444,84.7313025 81.9444444,75.8334915 Z" id="Shape" fill="#F4E3C3" fill-rule="nonzero"></path>
                        <path d="M97.3865313,59.7222222 C97.331638,59.7222222 97.2771156,59.7261761 97.2222222,59.7269669 L97.2222222,99.9905107 C97.2771156,99.9916969 97.331638,100 97.3865313,100 C105.733285,100 112.5,84.7313025 112.5,75.8334915 C112.5,66.9356805 105.733285,59.7222222 97.3865313,59.7222222 Z" id="Shape" fill="#FED8B2" fill-rule="nonzero"></path>
                        <path d="M110.725646,80.6644623 C111.054905,82.6189902 111.379853,85.797734 110.815016,88.8888889 C112.74628,84.5743292 113.888889,79.8899502 113.888889,76.2456881 C113.888889,67.1202322 106.73847,59.7222222 97.9166667,59.7222222 C89.0948636,59.7222222 81.9444444,67.1202322 81.9444444,76.2456881 C81.9444444,79.8871116 83.0858774,84.5678412 85.0147894,88.8803733 C84.5628415,86.3978795 84.68357,83.8606427 84.9207153,81.9458541 C84.9214992,81.945043 94.1815311,68.9831164 110.725646,80.6644623 Z" id="Shape" fill="#604B36" fill-rule="nonzero"></path>
                        <path d="M112.5,76.2456881 C112.5,67.1202322 105.734026,59.7222222 97.3865313,59.7222222 C97.331638,59.7222222 97.2771156,59.7262773 97.2222222,59.7270883 L97.2222222,75.795579 C100.650088,75.854377 104.758928,77.1215762 109.506459,80.6644623 C109.818016,82.6189902 110.125493,85.797734 109.591024,88.8888889 C111.418824,84.5739237 112.5,79.8891391 112.5,76.2456881 Z" id="Shape" fill="#57442F" fill-rule="nonzero"></path>
                        <polygon id="Shape" fill="#3E5A6D" fill-rule="nonzero" points="93.0555556 130.555556 95.3702353 111.111111 97.6853203 111.111111 100 130.555556"></polygon>
                        <polygon id="Shape" fill="#324A5E" fill-rule="nonzero" points="98.2394974 111.111111 97.2222222 111.111111 97.2222222 130.555556 100 130.555556"></polygon>
                        <path d="M85.6935928,101.388889 L77.5714091,104.088053 C70.2292041,106.527908 65.2777778,113.376791 65.2777778,121.091213 L65.2777778,131.944444 L97.2222222,131.944444 L97.2222222,131.212881 L85.6935928,101.388889 Z" id="Shape" fill="#00A49A" fill-rule="nonzero"></path>
                        <path d="M129.166667,121.091213 C129.166667,113.376791 124.268451,106.527908 117.006117,104.088053 L108.971468,101.388889 L97.3949307,131.664706 L97.2222222,131.212881 L97.2222222,131.944444 L129.166277,131.944444 L129.166277,121.091213 L129.166667,121.091213 Z" id="Shape" fill="#2C9984" fill-rule="nonzero"></path>
                        <polygon id="Shape" fill="#1E7C6A" fill-rule="nonzero" points="108.892976 101.388889 111.111111 110.924836 106.902393 113.047813 111.111111 117.931372 97.2222222 131.944444"></polygon>
                        <polygon id="Shape" fill="#2C9984" fill-rule="nonzero" points="85.5522543 101.388889 83.3333333 110.924836 87.5428378 113.047813 83.3333333 117.931372 97.2222222 131.944444"></polygon>
                        <polygon id="Shape" fill="#324A5E" fill-rule="nonzero" points="101.388889 108.333333 98.6114817 115.277778 95.8329628 115.277778 93.0555556 108.333333"></polygon>
                        <polygon id="Shape" fill="#2B3B4E" fill-rule="nonzero" points="101.388889 108.333333 97.2222222 108.333333 97.2222222 115.277778 98.7169889 115.277778"></polygon>
                        <polygon id="Shape" fill="#E9EFF4" fill-rule="nonzero" points="103.83336 109.722222 108.333333 101.112666 104.845536 100 97.2222222 107.294262"></polygon>
                        <polygon id="Shape" fill="#FFFFFF" fill-rule="nonzero" points="90.6106396 109.722222 86.1111111 101.112666 89.5983954 100 97.2222222 107.294262"></polygon>
                        <text id="DAO" font-family="Impact" font-size="24" font-style="condensed" font-weight="700" fill="#000000">
                            <tspan x="81.2167969" y="175">DAO</tspan>
                        </text>
                    </g>
                </g>
                <g id="003-container" transform="translate(147.000000, 271.000000)">
                    <circle id="Oval" fill="#1B56DB" fill-rule="nonzero" cx="100" cy="100" r="100"></circle>
                    <path d="M200,100.711423 L167.364571,68.1088763 L166.03336,70.8230156 L103.637652,8.49056604 L95.802391,32.7554019 L111.317775,48.2551528 L103.504844,46.7233372 L97.865807,49.2973666 L90.5135899,41.9525574 L89.5909879,53.0744623 L32.0754717,79.3282319 L93.7679655,140.958175 L32.0754717,158.906326 L68.127466,194.921996 C78.0610097,198.213012 88.6809224,200 99.7200215,200 C154.807782,200 199.514214,155.629008 200,100.711423 Z" id="Shape" fill="#164BA8" fill-rule="nonzero"></path>
                    <rect id="Rectangle-path" fill="#FFDE1F" fill-rule="nonzero" x="36.7924528" y="76.4150943" width="128.301887" height="75.4716981"></rect>
                    <rect id="Rectangle-path" fill="#F9C41E" fill-rule="nonzero" x="99.0566038" y="76.4150943" width="64.1509434" height="75.4716981"></rect>
                    <g id="Group" transform="translate(47.169811, 84.905660)" fill="#FE8E00" fill-rule="nonzero">
                        <rect id="Rectangle-path" x="0.129187524" y="0.264086327" width="10.178411" height="57.0229387"></rect>
                        <rect id="Rectangle-path" x="23.7509306" y="0.264086327" width="10.178411" height="57.0229387"></rect>
                        <rect id="Rectangle-path" x="47.3687588" y="0.264086327" width="10.178411" height="57.0229387"></rect>
                    </g>
                    <g id="Group" transform="translate(99.056604, 84.905660)" fill="#FE6F00" fill-rule="nonzero">
                        <rect id="Rectangle-path" x="0.371767994" y="0.264086327" width="5.10691824" height="57.0229387"></rect>
                        <rect id="Rectangle-path" x="18.9132075" y="0.264086327" width="10.174703" height="57.0229387"></rect>
                        <rect id="Rectangle-path" x="42.5263452" y="0.264086327" width="10.174703" height="57.0229387"></rect>
                    </g>
                    <rect id="Rectangle-path" fill="#FE8E00" fill-rule="nonzero" x="32.0754717" y="148.113208" width="134.90566" height="11.3207547"></rect>
                    <rect id="Rectangle-path" fill="#FE6F00" fill-rule="nonzero" x="99.0566038" y="148.113208" width="66.9811321" height="11.3207547"></rect>
                    <path d="M100,59.4339623 C90.6365647,59.4339623 83.0188679,51.7276876 83.0188679,42.2553752 L90.826285,42.2553752 C90.826285,47.3726196 94.9415745,51.5357613 100,51.5357613 C105.058426,51.5357613 109.173715,47.3726196 109.173715,42.2553752 C109.173715,37.1381308 105.058426,32.974989 100,32.974989 L96.0962915,32.974989 L96.0962915,8.49056604 L103.903709,8.49056604 L103.903709,25.5348837 C111.391802,27.3238262 116.981132,34.1415533 116.981132,42.2553752 C116.981132,51.7276876 109.363435,59.4339623 100,59.4339623 Z" id="Shape" fill="#FFFFFF" fill-rule="nonzero"></path>
                    <path d="M102.974727,25.5348837 L102.974727,8.49056604 L99.0566038,8.49056604 L99.0566038,32.974989 L99.0753209,32.974989 C104.128171,32.974989 108.238924,37.1381308 108.238924,42.2553752 C108.238924,47.3726196 104.128171,51.5357613 99.0753209,51.5357613 C99.0690819,51.5357613 99.0628428,51.5353664 99.0566038,51.5353664 L99.0566038,59.4339623 C99.0628428,59.4335674 99.0686919,59.4339623 99.0753209,59.4339623 C108.428436,59.4339623 116.037736,51.7276876 116.037736,42.2553752 C116.037736,34.1415533 110.454567,27.3234313 102.974727,25.5348837 Z" id="Shape" fill="#E0E0E0" fill-rule="nonzero"></path>
                    <path d="M162.264151,70.2497228 L115.382593,50 C114.245666,52.4807143 112.518799,54.6428011 110.377358,56.3139456 L159.098491,77.3584906 L162.264151,70.2497228 Z" id="Shape" fill="#C0C0C0" fill-rule="nonzero"></path>
                    <path d="M108.490566,46.1095829 L100.078328,43.3962264 L92.0309157,46.7417352 L84.7697678,49.7601755 L37.7358491,69.3125414 L40.803458,76.4150943 L90.0931681,55.9251066 L101.095753,51.3511628 L100.852798,51.3615766 C104.247099,51.0900481 107.127184,49.0115437 108.490566,46.1095829 Z" id="Shape" fill="#E0E0E0" fill-rule="nonzero"></path>
                    <path d="M107.54717,46.1461519 L99.0566038,43.3962264 L99.0566038,51.8867925 L100.0839,51.4579839 L99.8386818,51.468538 C103.264192,51.1937409 106.171093,49.0872237 107.54717,46.1461519 Z" id="Shape" fill="#C0C0C0" fill-rule="nonzero"></path>
                    <rect id="Rectangle-path" fill="#FE8E00" fill-rule="nonzero" x="32.0754717" y="68.8679245" width="134.90566" height="11.3207547"></rect>
                    <rect id="Rectangle-path" fill="#FE6F00" fill-rule="nonzero" x="99.0566038" y="68.8679245" width="66.9811321" height="11.3207547"></rect>
                    <text id="BIENS-ET-SERVICES" font-family="Impact" font-size="24" font-style="condensed" font-weight="700" fill="#FFFFFF">
                        <tspan x="59.09375" y="146">BIENS ET </tspan>
                        <tspan x="54.2714844" y="175">SERVICES</tspan>
                    </text>
                </g>
                <g id="Group-5" transform="translate(0.000000, 255.000000)" fill="#000000">
                    <text id="PRODUIT" font-family="Montserrat-SemiBold, Montserrat" font-size="12" font-weight="500">
                        <tspan x="0.49" y="53">PRODUIT</tspan>
                    </text>
                    <g id="arrow" transform="translate(79.500000, 38.500000) rotate(-135.000000) translate(-79.500000, -38.500000) translate(27.000000, 37.000000)">
                        <path d="M17,-5 L111,-5 L111,8 L17,8 L17,15 L-23,1 L17,-13 L17,-5 Z" id="Combined-Shape"></path>
                    </g>
                </g>
                <g id="Group-6" transform="translate(396.000000, 255.000000)" fill="#000000">
                    <text id="UTILISE-ET-PAYE" font-family="Montserrat-SemiBold, Montserrat" font-size="12" font-weight="500">
                        <tspan x="65.938" y="47">UTILISE</tspan>
                        <tspan x="63.376" y="62">ET PAYE</tspan>
                    </text>
                    <g id="Group-3">
                        <g id="arrow" transform="translate(40.500000, 38.500000) rotate(135.000000) translate(-40.500000, -38.500000) translate(-12.000000, 37.000000)">
                            <path d="M17,-5 L111,-5 L111,8 L17,8 L17,15 L-23,1 L17,-13 L17,-5 Z" id="Combined-Shape"></path>
                        </g>
                        <g id="arrow" transform="translate(38.500000, 40.500000) rotate(-45.000000) translate(-38.500000, -40.500000) translate(-14.000000, 39.000000)">
                            <path d="M17,-5 L111,-5 L111,8 L17,8 L17,15 L-23,1 L17,-13 L17,-5 Z" id="Combined-Shape"></path>
                        </g>
                    </g>
                </g>
                <g id="Group-4" transform="translate(195.000000, 0.000000)" fill="#000000">
                    <text id="CONTRACTE" font-family="Montserrat-SemiBold, Montserrat" font-size="12" font-weight="500">
                        <tspan x="14.24" y="12">CONTRACTE</tspan>
                    </text>
                    <g id="arrow" transform="translate(0.000000, 33.000000)">
                        <path d="M17,-5 L111,-5 L111,8 L17,8 L17,15 L-23,1 L17,-13 L17,-5 Z" id="Combined-Shape"></path>
                    </g>
                </g>
            </g>
        </g>
    </g>
</svg>