<?xml version="1.0" encoding="UTF-8"?>
<svg width="128px" height="126px" viewBox="0 0 128 126" version="1.1" xmlns="http://www.w3.org/2000/svg" xmlns:xlink="http://www.w3.org/1999/xlink">
    <!-- Generator: Sketch 50.2 (55047) - http://www.bohemiancoding.com/sketch -->
    <title>key</title>
    <desc>Created with Sketch.</desc>
    <defs>
        <linearGradient x1="59.1666895%" y1="7.75668674%" x2="43.2567309%" y2="97.9669837%" id="linearGradient-1">
            <stop stop-color="#D4E1F4" offset="0%"></stop>
            <stop stop-color="#D4E1F4" offset="17.17%"></stop>
            <stop stop-color="#D4E1F4" offset="20%"></stop>
            <stop stop-color="#DAE4F4" offset="20.01%"></stop>
            <stop stop-color="#EBEBF4" offset="20.07%"></stop>
            <stop stop-color="#F6F1F4" offset="20.14%"></stop>
            <stop stop-color="#FDF4F4" offset="20.23%"></stop>
            <stop stop-color="#FFF5F4" offset="20.5%"></stop>
            <stop stop-color="#FFF5F4" offset="25.22%"></stop>
            <stop stop-color="#FFF5F4" offset="26%"></stop>
            <stop stop-color="#D4E1F4" offset="26%"></stop>
            <stop stop-color="#D4E1F4" offset="39.74%"></stop>
            <stop stop-color="#D4E1F4" offset="42%"></stop>
            <stop stop-color="#DAE4F4" offset="42.01%"></stop>
            <stop stop-color="#EBEBF4" offset="42.07%"></stop>
            <stop stop-color="#F6F1F4" offset="42.14%"></stop>
            <stop stop-color="#FDF4F4" offset="42.23%"></stop>
            <stop stop-color="#FFF5F4" offset="42.5%"></stop>
            <stop stop-color="#FFF5F4" offset="48.94%"></stop>
            <stop stop-color="#FFF5F4" offset="50%"></stop>
            <stop stop-color="#F9F2F4" offset="50%"></stop>
            <stop stop-color="#E8EBF4" offset="50.01%"></stop>
            <stop stop-color="#DDE5F4" offset="50.03%"></stop>
            <stop stop-color="#D6E2F4" offset="50.05%"></stop>
            <stop stop-color="#D4E1F4" offset="50.1%"></stop>
            <stop stop-color="#D4E1F4" offset="70.62%"></stop>
            <stop stop-color="#D4E1F4" offset="74%"></stop>
            <stop stop-color="#FFF5F4" offset="74.1%"></stop>
            <stop stop-color="#FFF5F4" offset="83.46%"></stop>
            <stop stop-color="#FFF5F4" offset="85%"></stop>
            <stop stop-color="#D4E1F4" offset="85.1%"></stop>
        </linearGradient>
    </defs>
    <g id="Page-1" stroke="none" stroke-width="1" fill="none" fill-rule="evenodd">
        <g id="Artboard" transform="translate(0.000000, -6.000000)">
            <g id="key" transform="translate(0.000000, 6.000000)">
                <g>
                    <g id="Group" transform="translate(2.000000, 2.258964)" fill-rule="nonzero">
                        <g fill="#E3E7F2" id="Shape">
                            <path d="M113.557,10.3661355 C113.429,10.2376255 113.301,10.1091155 113.173,10.0019402 C99.3685,-3.44416733 77.37175,-3.2820239 63.765,10.3661355 C63.27425,10.8588406 62.805,11.3512948 62.357,11.8869203 L107.39175,57.1010916 L112.0425,61.7701195 C112.5545,61.3203347 113.0665,60.8492151 113.55725,60.35651 C127.29575,46.5474622 127.29575,24.1749323 113.557,10.3661355 Z M105.4505,40.4588008 L83.58375,18.5049323 C83.09025,18.0235219 82.73625,17.4163625 82.55975,16.7487131 C82.21875,15.62149 82.37,14.4019004 82.97625,13.3931474 C83.58225,12.3843944 84.58625,11.6811036 85.7385,11.4582191 C92.6635,10.0875299 99.8295,12.0267251 105.1305,16.7057928 C105.5145,17.0270677 105.87725,17.3696773 106.23975,17.7338725 C111.599,23.1174861 113.93475,30.8275817 112.469,38.2954661 C112.17925,39.8122351 111.0785,41.0441235 109.608,41.4974223 C108.1375,41.9507211 106.538,41.5511355 105.4505,40.4588008 Z"></path>
                            <path d="M113.557,10.3661355 C113.429,10.2376255 113.301,10.1091155 113.173,10.0019402 C123.029,24.0542032 121.39075,43.1873785 109.29025,55.3446215 C108.7995,55.8373267 108.2875,56.3084462 107.7755,56.7582311 C107.6475,56.8654064 107.5195,56.9939163 107.3915,57.1008406 L112.0425,61.7701195 C112.5545,61.3203347 113.0665,60.8492151 113.55725,60.35651 C127.29575,46.5474622 127.29575,24.1749323 113.557,10.3661355 Z"></path>
                            <path d="M63.765,60.35651 C60.76425,57.3410438 58.329,53.8077729 56.57575,49.9258685 L3.1785,103.557191 C2.59225,104.129462 2.197,104.870402 2.04775,105.677606 L0.213,114.844733 L0.213,114.866068 C-0.0155,115.984506 0.22925,117.147873 0.88875,118.078064 C1.54825,119.008255 2.563,119.621438 3.6905,119.770781 L14.84775,121.377155 C16.078,121.55461 17.3225,121.169582 18.23975,120.32749 C19.157,119.485398 19.65,118.275096 19.58375,117.029151 L19.349,112.745402 C19.296,111.56547 19.73975,110.417414 20.57175,109.5821 C21.40375,108.746785 22.547,108.301267 23.7225,108.354478 L28.43725,108.632833 C29.6105,108.68504 30.75125,108.238769 31.5795,107.402952 C32.40775,106.567135 32.847,105.419582 32.78925,104.242159 L32.53325,99.5086255 C32.4725,98.3322072 32.9115,97.1851554 33.74125,96.3520996 C34.571,95.5190438 35.7135,95.0782948 36.88525,95.1392869 L41.6,95.3963068 C42.77625,95.4530319 43.922,95.0087689 44.75475,94.1727012 C45.5875,93.3366335 46.03,92.1865697 45.9735,91.0053825 L45.69625,86.2718486 C45.644,85.0939243 46.08875,83.9486295 46.92125,83.1168287 C47.75375,82.2852789 48.89675,81.8442789 50.0695,81.90251 L59.37075,82.3952151 L74.15475,67.5736494 C72.09275,66.6341713 70.12775,65.4936454 68.288,64.1681355 C66.67325,63.0316255 65.16,61.7560637 63.765,60.35651 Z"></path>
                        </g>
                        <path d="M59.797,55.6016414 L7.61575,108.01212 L0.12775,115.586928 L2.04775,105.677606 C2.197,104.870402 2.592,104.129462 3.1785,103.557191 L56.57575,49.9256175 C57.47375,51.913004 58.552,53.8127928 59.797,55.6016414 Z" id="Shape" fill="#FFFFFF"></path>
                        <g transform="translate(0.000000, 9.788845)" fill="#A4C2F7" id="Shape">
                            <path d="M113.557,0.577290837 C113.429,0.448780876 113.301,0.320270916 113.173,0.213095618 C123.029,14.2653586 121.39075,33.3985339 109.29025,45.5557769 C108.7995,46.0484821 108.2875,46.5196016 107.7755,46.9693865 C107.6475,47.0765618 107.5195,47.2050717 107.3915,47.311996 L112.0425,51.9812749 C112.5545,51.53149 113.0665,51.0603705 113.55725,50.5676653 C127.29575,36.7586175 127.29575,14.3860876 113.557,0.577290837 Z"></path>
                            <path d="M74.1545,57.7855578 L59.3705,72.6071235 L50.06925,72.1144183 C48.89625,72.0561873 47.75325,72.4971873 46.921,73.3287371 C46.0885,74.1602869 45.64375,75.3058327 45.696,76.483757 L45.97325,81.2172908 C46.03,82.3982271 45.58725,83.5485418 44.7545,84.3846096 C43.92175,85.2206773 42.77625,85.6649402 41.59975,85.6082151 L36.885,85.3511952 C35.71325,85.2902032 34.57075,85.7309522 33.741,86.564008 C32.91125,87.3970637 32.47225,88.5441155 32.533,89.7205339 L32.789,94.4540677 C32.84675,95.631741 32.40775,96.7792948 31.57925,97.6148606 C30.751,98.4506773 29.61,98.8971992 28.437,98.844741 L23.7225,98.5661355 C22.54725,98.5129243 21.40375,98.9584422 20.57175,99.793757 C19.73975,100.629072 19.296,101.776876 19.349,102.95706 L19.58375,107.240809 C19.65025,108.486753 19.157,109.697056 18.23975,110.539147 C17.3225,111.381239 16.078,111.766267 14.84775,111.588813 L3.6905,109.982438 C2.563,109.832845 1.54825,109.219912 0.88875,108.289721 C0.22925,107.35953 -0.0155,106.196163 0.213,105.077725 L10.581,106.576924 C11.81125,106.754629 13.056,106.369351 13.973,105.527259 C14.89025,104.685167 15.38325,103.474865 15.317,102.22892 L15.08225,97.9451713 C15.02925,96.765239 15.473,95.6171833 16.305,94.7818685 C17.137,93.9465538 18.28025,93.5010359 19.45575,93.554247 L24.1705,93.8326016 C25.34375,93.8850598 26.4845,93.4385378 27.31275,92.6027211 C28.141,91.7669044 28.58025,90.6193506 28.5225,89.4419283 L28.2665,84.7083944 C28.20575,83.5319761 28.64475,82.3849243 29.4745,81.5518685 C30.30425,80.7188127 31.44675,80.2780637 32.6185,80.3390558 L37.33325,80.5960757 C38.5095,80.6528008 39.65525,80.2085378 40.488,79.3724701 C41.32075,78.5364024 41.76325,77.3863386 41.70675,76.2051514 L41.4295,71.4716175 C41.37725,70.2936932 41.822,69.1483984 42.6545,68.3168486 C43.487,67.4852988 44.63,67.0442988 45.80275,67.1022789 L55.104,67.5949841 L68.288,54.3797928 C70.1275,55.7053028 72.0925,56.8460797 74.1545,57.7855578 Z"></path>
                        </g>
                        <path d="M112.0425,61.7701195 C98.117,74.212494 76.94325,73.5942908 63.7615,60.3600239 C50.57975,47.125757 49.964,25.8676494 62.357,11.8866693 L112.0425,61.7701195 Z" id="Shape" fill="#F3D55B"></path>
                        <path d="M107.39175,57.1008406 L62.357,11.8866693 C49.95775,25.8646375 50.57525,47.1277649 63.765,60.356259 C65.16,61.7558127 66.67325,63.0313745 68.28775,64.1686375 C70.1275,65.4941474 72.0925,66.6346733 74.1545,67.5741514 C86.8175,73.3204542 101.66275,71.0461793 112.0425,61.7698685 L107.39175,57.1008406 Z" id="Shape" fill="url(#linearGradient-1)"></path>
                        <path d="M112.0425,61.7701195 C101.66275,71.0466813 86.8175,73.3209562 74.1545,67.5744024 C72.0925,66.6349243 70.1275,65.4943984 68.28775,64.1688884 L69.88775,62.5625139 C82.3815,68.231259 97.017,66.0998008 107.39175,57.1008406 L112.0425,61.7701195 Z" id="Shape" fill="#A4C2F7"></path>
                    </g>
                    <path d="M115.2265,12.2930319 C115.3545,12.4215418 115.4825,12.5500518 115.58925,12.6785618 C101.5925,2.78329482 82.5355,4.42807171 70.4265,16.5767809 C69.93575,17.0694861 69.4665,17.5835259 69.0185,18.0975657 C68.91175,18.2260757 68.78375,18.3545857 68.67725,18.4830956 C59.714,28.8991793 57.591,43.592988 63.23725,56.1365139 L61.63725,57.7428884 C60.317,55.8958088 59.181,53.9229801 58.24525,51.8527649 C52.52175,39.1393147 54.787,24.2349203 64.0265,13.8138167 C64.4745,13.2997769 64.94375,12.7857371 65.4345,12.2930319 C79.18875,-1.50045418 101.47225,-1.50045418 115.2265,12.2930319 Z" id="Shape" fill="#FFFFFF" fill-rule="nonzero"></path>
                    <g id="Group" fill-rule="nonzero">
                        <path d="M60.091,53.7038606 L40.4805,73.39249 L9.91925,104.075749 L8.00925,105.993359 C7.44675,106.580689 6.52725,107.429056 6.42875,107.63688 C6.31025,107.814084 6.22225,108.010112 6.1685,108.216681 L5.9255,109.418701 L5.39275,112.084279 L4.32725,117.415434 C4.0895,118.311992 4.502,119.254231 5.3205,119.684438 C5.51375,119.789355 5.72325,119.860637 5.94025,119.895024 L7.22925,120.084275 L9.903,120.467546 L15.2505,121.23459 L16.58725,121.426351 L17.206,121.509681 C17.31625,121.523737 17.42775,121.527502 17.53875,121.520725 C18.43925,121.481319 19.20225,120.841781 19.4015,119.959279 C19.45775,119.70753 19.4715,119.448251 19.4425,119.192235 L19.3685,117.837359 L19.2205,115.127606 C19.074,112.29888 20.8195,109.717637 23.49225,108.810789 C24.1385,108.586398 24.81825,108.474203 25.502,108.478721 C26.17225,108.48349 26.46225,108.523649 26.961,108.544231 L29.658,108.695582 C30.237,108.815307 30.837,108.780167 31.39825,108.594179 C31.80775,108.423251 32.151,108.123562 32.3765,107.74004 C32.49175,107.55355 32.572,107.347231 32.61275,107.131375 C32.63675,107.024199 32.65175,106.915016 32.657,106.805331 C32.6535,106.708446 32.665,106.60855 32.6445,106.33647 L32.49375,103.628725 L32.41825,102.274853 C32.369,101.658908 32.39425,101.039199 32.49325,100.429028 C33.01025,97.6444781 35.3025,95.5411315 38.11125,95.2740717 C38.4365,95.2459602 38.7635,95.2399363 39.08975,95.255749 L39.764,95.2936494 L41.1125,95.3694502 L43.76025,95.5130199 C44.31425,95.5268247 44.84975,95.3119721 45.24175,94.9186614 C45.63375,94.5253506 45.848,93.9879681 45.8345,93.431761 L45.76725,92.1288406 L45.6165,89.4210956 L45.57875,88.7441594 C45.563,88.4171116 45.56875,88.0895618 45.5965,87.7635179 C45.6555,87.0798048 45.82775,86.4109004 46.1065,85.7844143 C46.94875,83.8710717 48.67825,82.4993785 50.727,82.1196215 C51.33425,82.0199761 51.95125,81.9941235 52.56475,82.0420637 L55.26425,82.1868884 L60.54325,82.470012 L74.6435,68.3135857 L77.6605,71.3428566 L70.02,79.0135458 L66.2,82.8495179 L64.29,84.7671275 L63.8125,85.2465299 L63.57375,85.4862311 C63.419,85.6415976 63.25325,85.7854183 63.0775,85.9164382 C62.34675,86.4578367 61.46325,86.751251 60.55525,86.7542629 L55.0445,86.4653665 L52.349,86.3205418 C52.065,86.2876614 51.778,86.2921793 51.495,86.3335936 C51.2805,86.374757 51.074,86.4495538 50.88275,86.5557251 C50.49425,86.7710797 50.18725,87.1089203 50.009,87.5167888 C49.918,87.7165817 49.86275,87.9306813 49.846,88.1498008 C49.8355,88.2740438 49.8335,88.3987888 49.84,88.5232829 L49.87775,89.2002191 L50.0285,91.9079641 L50.09975,93.3132908 C50.14575,95.0469203 49.47975,96.7235737 48.25775,97.9494382 C47.03575,99.1753028 45.3655,99.8429522 43.63875,99.7955139 L40.892,99.6481793 L39.5435,99.5723785 L38.86925,99.5344781 C38.74575,99.5279522 38.622,99.5302112 38.499,99.541004 C37.59725,99.6301076 36.8615,100.304283 36.69125,101.197829 C36.6605,101.935255 36.682,102.673936 36.755,103.4081 L36.90575,106.115845 C37.0175,107.443363 36.718,108.773139 36.04825,109.923203 C35.34975,111.109159 34.2855,112.034331 33.0165,112.558661 C32.3825,112.813924 31.713,112.968789 31.03175,113.017733 C30.5,113.030534 29.968,113.015976 29.43775,112.97406 L26.74075,112.822709 C26.34025,112.804637 25.73225,112.756446 25.502,112.762972 C25.2835,112.758454 25.066,112.794347 24.8605,112.868892 C24.44075,113.011458 24.0785,113.287554 23.82925,113.655263 C23.582,114.024729 23.46,114.464474 23.48175,114.909239 L23.6295,117.615478 L23.70325,118.968598 C23.74975,119.61441 23.70325,120.263737 23.565,120.896247 C22.944,123.668498 20.54925,125.678725 17.72175,125.80096 C17.383,125.817777 17.0435,125.805478 16.70675,125.764566 L15.987,125.667932 L14.64975,125.476171 L9.30075,124.708876 L6.62625,124.325355 L5.24275,124.121295 C4.56925,124.010857 3.9185,123.789729 3.3165,123.466446 C2.101,122.817371 1.1315,121.785024 0.558,120.528538 C0,119.284602 -0.14425,117.892829 0.14675,116.559789 L1.207,111.254737 L1.73725,108.602211 L2.037,107.147689 C2.20975,106.477279 2.4935,105.840502 2.87625,105.264466 C3.21375,104.77653 3.603,104.326745 4.0375,103.923143 L4.9925,102.964339 L6.9025,101.046729 L37.46375,70.3634701 L57.07425,50.6748406 L60.091,53.7038606 Z" id="Shape" fill="#FFFFFF"></path>
                        <g fill="#428DFF" id="Shape">
                            <path d="M1.737,108.602211 L1.20675,111.254737 L0.1465,116.559789 C-0.14425,117.892829 0,119.284351 0.558,120.528789 C1.13175,121.785275 2.101,122.817622 3.3165,123.466697 C3.91825,123.789729 4.56925,124.011108 5.24275,124.121546 L6.62625,124.325355 L9.30075,124.708876 L14.64975,125.476171 L15.987,125.667932 L16.70675,125.764566 C17.0435,125.805478 17.383,125.817777 17.7215,125.80096 C20.549,125.678725 22.94375,123.668498 23.56475,120.896247 C23.703,120.263737 23.7495,119.61441 23.703,118.968598 L23.62925,117.615478 L23.4815,114.909239 C23.45975,114.464725 23.58175,114.02498 23.829,113.655514 C24.07825,113.287554 24.4405,113.011458 24.86025,112.869143 C25.06575,112.794598 25.28325,112.758705 25.50175,112.763223 C25.73175,112.756446 26.34,112.804888 26.7405,112.82296 L29.43775,112.974311 C29.968,113.016227 30.5,113.030785 31.03175,113.017984 C31.713,112.96904 32.3825,112.814175 33.0165,112.558912 C34.2855,112.034331 35.34975,111.109159 36.04825,109.923203 C36.718,108.773139 37.0175,107.443363 36.90575,106.115845 L36.755,103.4081 C36.68175,102.673685 36.6605,101.935004 36.69125,101.197829 C36.8615,100.304283 37.59725,99.6301076 38.499,99.541004 C38.62225,99.5302112 38.746,99.5282032 38.86925,99.5344781 L39.5435,99.5723785 L40.892,99.6481793 L43.63875,99.7955139 C45.3655,99.8429522 47.03575,99.1753028 48.25775,97.9494382 C49.47975,96.7235737 50.14575,95.0471713 50.09975,93.3132908 L50.0285,91.9079641 L49.87775,89.2002191 L49.84,88.5232829 C49.8335,88.3987888 49.8355,88.2740438 49.84625,88.1498008 C49.86325,87.9309323 49.91825,87.7165817 50.00925,87.5167888 C50.1875,87.1086693 50.4945,86.7710797 50.883,86.5557251 C51.07425,86.4498048 51.28075,86.374757 51.49525,86.3335936 C51.77825,86.2921793 52.06525,86.2879124 52.34925,86.3207928 L55.04475,86.4656175 L60.5555,86.7545139 C61.4635,86.751502 62.347,86.4580876 63.07775,85.9169402 C63.2535,85.7859203 63.41925,85.6420996 63.574,85.4867331 L63.81275,85.2470319 L64.29025,84.7676295 L66.2005,82.8497689 L70.02075,79.0142988 L76.64025,72.3684263 C89.6205,77.6458685 104.4515,75.1740598 115.037,65.9690319 C115.242,65.8759124 115.43075,65.7499124 115.596,65.5963028 C115.683,65.4898805 115.75925,65.3749243 115.823,65.2529402 C116.234,64.8749402 116.664,64.5240478 117.0605,64.1257171 C131.61825,49.4843665 131.608,25.770012 117.0375,11.1414622 C102.467,-3.48708765 78.8465,-3.49737849 64.26325,11.1183705 C63.8665,11.5164502 63.51725,11.9481633 63.1405,12.3608008 C63.01925,12.4250558 62.9045,12.5013586 62.7985,12.5887052 C62.64525,12.7543625 62.52,12.9438645 62.42725,13.1499323 C53.259,23.7776056 50.797,38.6676932 56.05325,51.6996574 L51.04,56.7328805 C50.501,57.2740279 50.2905,58.0626574 50.488,58.8018406 C50.68525,59.5410239 51.26025,60.1183147 51.9965,60.3163506 C52.73275,60.5143865 53.51825,60.3030478 54.05725,59.7619004 L58.01475,55.7886335 C61.39825,61.9375339 66.44275,67.0018805 72.567,70.3988606 L60.54325,82.4705139 L55.26425,82.1873904 L52.56475,82.0425657 C51.95125,81.9943745 51.33425,82.0204781 50.727,82.1198725 C48.67825,82.4998805 46.94875,83.8715737 46.1065,85.7849163 C45.82775,86.4114024 45.6555,87.0803068 45.5965,87.7637689 C45.569,88.0898127 45.563,88.4176135 45.57875,88.7444104 L45.6165,89.4213466 L45.76725,92.1290916 L45.8345,93.432012 C45.84,93.6508805 45.81,93.869498 45.74575,94.0788287 C45.47425,94.9462709 44.66575,95.5303386 43.76025,95.5135219 L41.1125,95.3699522 L39.76375,95.2941514 L39.0895,95.256251 C38.76325,95.2404382 38.4365,95.2467131 38.111,95.2745737 C35.3025,95.5416335 33.01025,97.6452311 32.49325,100.42953 C32.39425,101.03945 32.36925,101.659159 32.41825,102.275355 L32.49375,103.629227 L32.6445,106.336972 C32.665,106.609052 32.6535,106.708948 32.657,106.805833 C32.6515,106.915518 32.63675,107.024701 32.61275,107.131876 C32.572,107.347733 32.49175,107.554052 32.3765,107.740542 C32.15125,108.124064 31.808,108.423753 31.39825,108.594681 C30.837,108.780669 30.237,108.815558 29.658,108.696084 L26.96075,108.544733 C26.462,108.524151 26.172,108.483992 25.50175,108.479223 C24.818,108.474454 24.13825,108.5869 23.492,108.811291 C20.81925,109.718139 19.07375,112.299382 19.22025,115.128108 L19.36825,117.837861 L19.44225,119.192737 C19.47125,119.449004 19.4575,119.708283 19.40125,119.959781 C19.20175,120.842283 18.439,121.481821 17.5385,121.520976 C17.4275,121.527753 17.316,121.524239 17.20575,121.509932 L16.587,121.426602 L15.25025,121.234841 L9.90275,120.467797 L7.229,120.084526 L5.94,119.895275 C5.723,119.860888 5.5135,119.789606 5.32025,119.684689 C4.50175,119.254482 4.08925,118.312243 4.327,117.415685 L5.3925,112.08453 L5.92525,109.418952 L6.16825,108.216932 C6.222,108.010363 6.31,107.814335 6.4285,107.637131 C6.527,107.429056 7.4465,106.58094 8.009,105.99361 L9.91925,104.075749 L40.48075,73.39249 L41.98925,71.8779801 C42.82225,71.0414104 42.82225,69.6852789 41.98925,68.8489602 C41.156,68.0126414 39.80525,68.0126414 38.97225,68.8489602 L37.46375,70.3634701 L6.90225,101.046729 L4.99225,102.964339 L4.03725,103.923143 C3.603,104.326745 3.21375,104.77653 2.87625,105.264466 C2.4935,105.840753 2.20975,106.477279 2.037,107.147689 L1.737,108.602211 Z M114.0435,14.1471394 C126.91725,27.1038048 126.93575,48.071259 114.085,61.0507649 L67.32575,14.1054741 C80.25325,1.20176892 101.139,1.22034263 114.0435,14.1471394 Z M57.5945,37.6225458 C57.58375,30.2763944 60.02025,23.1375657 64.51625,17.3418167 L110.86125,63.8714582 C100.88975,71.6166932 87.3975,72.9906454 76.07975,67.4135139 C64.762,61.8363825 57.5915,50.2802749 57.5945,37.6225458 Z"></path>
                            <path d="M46.51475,66.4559641 C47.69275,66.4444183 48.645,65.4883745 48.6565,64.3056813 L48.61175,63.8968088 C48.585,63.754745 48.53925,63.6169482 48.47625,63.4871833 C48.434,63.3576693 48.37275,63.2351833 48.29425,63.123992 C48.2115,63.0070279 48.121,62.8958367 48.02325,62.7914223 C47.61825,62.3961036 47.0795,62.1689522 46.51475,62.1553984 C45.79625,62.1418446 45.1205,62.497757 44.723,63.0988924 C44.3255,63.7000279 44.2615,64.4635578 44.553,65.1229243 C44.65725,65.3829562 44.811,65.6196454 45.006,65.8201912 C45.4115,66.214757 45.95025,66.4416574 46.51475,66.4559641 Z"></path>
                            <path d="M84.0705,22.2741394 L105.9485,44.2393028 C107.5945,45.8873426 110.01175,46.4892311 112.234,45.8042629 C114.45625,45.1192948 116.12075,43.2594143 116.562,40.9678207 C118.164,32.7951394 115.60575,24.3579084 109.739,18.4680359 C103.8725,12.5781633 95.469,10.0094701 87.3285,11.6178526 C85.04625,12.0608606 83.1935,13.731992 82.51125,15.9630956 C81.8295,18.1947012 82.429,20.6215817 84.0705,22.2741394 Z M86.587,17.2333865 C86.80125,16.505749 87.40425,15.9603347 88.1475,15.8225378 C94.89425,14.487239 101.86,16.6154343 106.7225,21.4973068 C111.585,26.3791793 113.7045,33.3726813 112.3745,40.1463108 C112.23725,40.8925219 111.694,41.4979243 110.96925,41.7130279 C110.2605,41.9409323 109.48425,41.7464104 108.965,41.2110359 L87.087,19.2456215 C86.55375,18.7243028 86.36,17.9449602 86.587,17.2333865 Z"></path>
                            <path d="M57.031,68.5359681 L58.4955,67.0656335 C59.3285,66.2293147 59.3285,64.8731833 58.4955,64.0368645 C57.6625,63.2005458 56.31175,63.2005458 55.47875,64.0368645 L54.01425,65.5071992 C53.4755,66.0480956 53.265,66.8367251 53.46225,67.5759084 C53.6595,68.3150916 54.2345,68.8921315 54.9705,69.0901673 C55.7065,69.2882032 56.492,69.0768645 57.031,68.5359681 Z"></path>
                            <path d="M11.555,111.164378 C11.955,111.566223 12.4975,111.791869 13.06325,111.791869 C13.629,111.791869 14.1715,111.566223 14.5715,111.164378 L51.1745,74.4155498 C51.7135,73.8744024 51.92375,73.0860239 51.7265,72.3468406 C51.52925,71.6079084 50.95425,71.0306175 50.21825,70.8325817 C49.48225,70.6345458 48.69675,70.8458845 48.15775,71.3867809 L11.555,108.13561 C11.15475,108.537203 10.93,109.081865 10.93,109.649869 C10.93,110.217873 11.15475,110.762785 11.555,111.164378 Z"></path>
                        </g>
                    </g>
                </g>
            </g>
        </g>
    </g>
</svg>