<?xml version="1.0" encoding="UTF-8"?>
<svg width="128px" height="124px" viewBox="0 0 128 124" version="1.1" xmlns="http://www.w3.org/2000/svg" xmlns:xlink="http://www.w3.org/1999/xlink">
    <!-- Generator: Sketch 50.2 (55047) - http://www.bohemiancoding.com/sketch -->
    <title>protected-profile</title>
    <desc>Created with Sketch.</desc>
    <defs>
        <linearGradient x1="10.4523861%" y1="-10.2010148%" x2="89.5424473%" y2="116.788985%" id="linearGradient-1">
            <stop stop-color="#D3DFF2" offset="0%"></stop>
            <stop stop-color="#D3DFF2" offset="17.2%"></stop>
            <stop stop-color="#D3DFF2" offset="20%"></stop>
            <stop stop-color="#DAE2F2" offset="20%"></stop>
            <stop stop-color="#EBEAF2" offset="20.1%"></stop>
            <stop stop-color="#F6EFF2" offset="20.1%"></stop>
            <stop stop-color="#FDF2F2" offset="20.2%"></stop>
            <stop stop-color="#FFF3F2" offset="20.5%"></stop>
            <stop stop-color="#FFF3F2" offset="25.2%"></stop>
            <stop stop-color="#FFF3F2" offset="26%"></stop>
            <stop stop-color="#D3DFF2" offset="26%"></stop>
            <stop stop-color="#D3DFF2" offset="39.7%"></stop>
            <stop stop-color="#D3DFF2" offset="42%"></stop>
            <stop stop-color="#DAE2F2" offset="42%"></stop>
            <stop stop-color="#EBEAF2" offset="42.1%"></stop>
            <stop stop-color="#F6EFF2" offset="42.1%"></stop>
            <stop stop-color="#FDF2F2" offset="42.2%"></stop>
            <stop stop-color="#FFF3F2" offset="42.5%"></stop>
            <stop stop-color="#FFF3F2" offset="48.9%"></stop>
            <stop stop-color="#FFF3F2" offset="50%"></stop>
            <stop stop-color="#F8F0F2" offset="50%"></stop>
            <stop stop-color="#E7E8F2" offset="50%"></stop>
            <stop stop-color="#DCE3F2" offset="50%"></stop>
            <stop stop-color="#D5E0F2" offset="50%"></stop>
            <stop stop-color="#D3DFF2" offset="50.1%"></stop>
            <stop stop-color="#D3DFF2" offset="70.6%"></stop>
            <stop stop-color="#D3DFF2" offset="74%"></stop>
            <stop stop-color="#FFF3F2" offset="74.1%"></stop>
            <stop stop-color="#FFF3F2" offset="83.5%"></stop>
            <stop stop-color="#FFF3F2" offset="85%"></stop>
            <stop stop-color="#D3DFF2" offset="85.1%"></stop>
        </linearGradient>
    </defs>
    <g id="Page-1" stroke="none" stroke-width="1" fill="none" fill-rule="evenodd">
        <g id="Artboard" transform="translate(-2226.000000, -9.000000)">
            <g id="protected-profile" transform="translate(2226.000000, 9.000000)">
                <g id="Group">
                    <g transform="translate(2.000000, 2.250000)" fill-rule="nonzero">
                        <rect id="Rectangle-path" fill="#7FABFA" x="44.9335" y="92.0055" width="34.13325" height="14.93325"></rect>
                        <rect id="Rectangle-path" fill="#A4C2F7" x="44.9335" y="92.0055" width="27.73325" height="14.93325"></rect>
                        <path d="M123.86675,8.8055 L123.867784,77.07225 L0.132479838,77.07225 L0.1335,8.8055 C0.09825,6.508 0.97775,4.29075 2.57825,2.642 C4.17875,0.99325 6.36925,0.04875 8.66675,0.01625 L115.3335,0.01625 C117.631,0.04875 119.8215,0.9935 121.422,2.642 C123.0225,4.2905 123.90225,6.508 123.86675,8.8055 Z" id="Shape" fill="url(#linearGradient-1)"></path>
                        <path d="M123.86675,74.93875 L123.86675,83.472 C123.86675,88.18475 120.04625,92.00525 115.3335,92.00525 L8.66675,92.00525 C3.954,92.00525 0.1335,88.18475 0.1335,83.472 L0.1335,74.93875 L123.86675,74.93875 Z" id="Shape" fill="#7FABFA"></path>
                        <path d="M117.46675,74.93875 L117.46675,83.472 C117.46675,88.18475 113.64625,92.00525 108.9335,92.00525 L8.66675,92.00525 C3.954,92.00525 0.1335,88.18475 0.1335,83.472 L0.1335,74.93875 L117.46675,74.93875 Z" id="Shape" fill="#A4C2F7"></path>
                        <path d="M96.1335,111.2055 L96.1335,115.47225 L27.86675,115.47225 L27.86675,111.2055 C27.87375,108.852 29.78,106.94575 32.1335,106.93875 L91.86675,106.93875 C94.22025,106.94575 96.1265,108.852 96.1335,111.2055 Z" id="Shape" fill="#7FABFA"></path>
                        <g transform="translate(10.750000, 8.750000)" fill="#A4C2F7" id="Shape">
                            <path d="M78.9835,102.4555 L78.9835,106.72225 L17.11675,106.72225 L17.11675,102.4555 C17.12375,100.102 19.03,98.19575 21.3835,98.18875 L74.71675,98.18875 C77.07025,98.19575 78.9765,100.102 78.9835,102.4555 Z"></path>
                            <path d="M34.1835,17.12225 C34.1835,26.548 26.5425,34.189 17.11675,34.189 C16.04325,34.18775 14.972,34.08775 13.91675,33.89025 C5.8605,32.363 0.029,25.322 0.029,17.12225 C0.029,8.9225 5.8605,1.8815 13.91675,0.35425 C14.972,0.15675 16.04325,0.05675 17.11675,0.0555 C26.5425,0.0555 34.1835,7.6965 34.1835,17.12225 Z"></path>
                        </g>
                        <path d="M38.5335,25.87225 C38.54575,34.062 32.73225,41.10275 24.68825,42.64025 L24.667,42.64025 C24.26175,42.555 23.87775,42.4695 23.49375,42.363 C23.02925,42.25325 22.573,42.1105 22.1285,41.93625 C21.6805,41.787 21.2325,41.595 20.80575,41.403 C20.379,41.211 19.995,41.019 19.58975,40.78425 C19.55775,40.779 19.528,40.764 19.5045,40.7415 C19.22725,40.59225 18.94975,40.4215 18.69375,40.25075 C18.523,40.144 18.3525,40.0375 18.18175,39.9095 C17.92575,39.73875 17.691,39.56825 17.4565,39.37625 C17.37325,39.3265 17.29475,39.26925 17.22175,39.2055 C12.01375,35.04775 9.702,28.239 11.302,21.76975 C12.902,15.3005 18.12125,10.3545 24.667,9.104 C32.71475,10.6405 38.5355,17.679 38.5335,25.87225 Z" id="Shape" fill="#E3E7F2"></path>
                        <g transform="translate(8.500000, 17.250000)" fill="#F5F5F5">
                            <circle id="Oval" cx="19.36675" cy="6.48875" r="6.4"></circle>
                            <path d="M2.3,42.7555 L19.36675,42.7555 C20.545,42.7555 21.5,43.7105 21.5,44.88875 L21.5,57.68875 L0.16675,57.68875 L0.16675,44.88875 C0.16675,43.7105 1.122,42.7555 2.3,42.7555 Z" id="Shape"></path>
                            <path d="M32.16675,42.7555 L49.2335,42.7555 C50.41175,42.7555 51.36675,43.7105 51.36675,44.88875 L51.36675,57.68875 L30.0335,57.68875 L30.0335,44.88875 C30.0335,43.7105 30.9885,42.7555 32.16675,42.7555 Z" id="Shape"></path>
                        </g>
                        <path d="M38.5335,38.67225 C38.537,38.85025 38.53,39.0285 38.51225,39.2055 C35.49075,41.62275 31.73625,42.9395 27.867,42.93875 C26.8005,42.9375 25.7365,42.8375 24.68825,42.64 C30.0755,41.59675 34.63675,38.035 36.955,33.06125 C37.99175,34.749 38.53825,36.69175 38.5335,38.67225 Z" id="Shape" fill="#E3E7F2"></path>
                        <path d="M36.95475,33.0615 C34.6365,38.03525 30.0755,41.59675 24.688,42.64025 C24.28275,42.555 23.87725,42.4695 23.49325,42.363 C23.02875,42.25325 22.5725,42.1105 22.128,41.93625 C21.68,41.787 21.232,41.595 20.80525,41.403 C20.3785,41.211 19.9945,41.019 19.58925,40.78425 C19.55725,40.779 19.5275,40.764 19.504,40.7415 C19.22675,40.59225 18.94925,40.4215 18.69325,40.25075 C18.5225,40.144 18.352,40.0375 18.18125,39.9095 C17.92525,39.73875 17.6905,39.56825 17.456,39.37625 C17.37275,39.3265 17.29425,39.26925 17.22125,39.2055 C17.2035,39.02825 17.19625,38.85025 17.2,38.67225 C17.21225,34.3125 19.85925,30.3925 23.89875,28.75225 L23.92,28.75225 C26.2265,30.601 29.507,30.601 31.81325,28.75225 L31.8345,28.75225 C33.94425,29.62725 35.7325,31.13225 36.95475,33.0615 Z" id="Shape" fill="#F5F5F5"></path>
                        <path d="M123.86675,46.9495 L123.86675,74.2775 C123.86675,74.2775 123.86675,102.54425 94,119.48275 C92.89075,118.864 91.824,118.20275 90.8,117.5415 C64.1335,100.47475 64.1335,74.2775 64.1335,74.2775 L64.1335,46.9495 C64.1405,44.596 66.04675,42.68975 68.40025,42.68275 L119.60025,42.68275 C121.9535,42.68975 123.85975,44.596 123.86675,46.9495 Z" id="Shape" fill="#A4C2F7"></path>
                        <path d="M117.46675,46.9495 L117.46675,74.2775 C117.46675,74.2775 117.46675,100.47475 90.8,117.5415 C64.1335,100.47475 64.1335,74.2775 64.1335,74.2775 L64.1335,46.9495 C64.1405,44.596 66.04675,42.68975 68.40025,42.68275 L113.20025,42.68275 C115.55375,42.68975 117.45975,44.596 117.46675,46.9495 Z" id="Shape" fill="#E3E7F2"></path>
                        <path d="M115.3335,51.21625 L115.3335,74.2775 C115.31225,75.13075 114.7575,95.29075 94.00025,109.43475 C92.8625,108.66675 91.79575,107.8775 90.80025,107.06675 C72.9015,92.944 72.667,74.49075 72.667,74.2775 L72.667,51.21625 L115.3335,51.21625 Z" id="Shape" fill="#A4C2F7"></path>
                        <path d="M108.9335,51.21625 L108.9335,74.2775 C108.91225,75.08825 108.4215,93.1575 90.80025,107.06675 C72.9015,92.944 72.667,74.49075 72.667,74.2775 L72.667,51.21625 L108.9335,51.21625 Z" id="Shape" fill="#E3E7F2"></path>
                        <g fill="#FFFFFF">
                            <path d="M8.66675,92.0055 L15.06675,92.0055 C10.354,92.0055 6.5335,88.185 6.5335,83.47225 L6.5335,8.8055 C6.49825,6.508 7.37775,4.29075 8.97825,2.642 C10.57875,0.99325 12.76925,0.04875 15.06675,0.01625 L8.66675,0.01625 C6.36925,0.04875 4.17875,0.9935 2.57825,2.642 C0.97775,4.2905 0.09825,6.508 0.1335,8.8055 L0.1335,83.47225 C0.1335,88.185 3.954,92.0055 8.66675,92.0055 Z" id="Shape"></path>
                            <path d="M34.26675,111.2055 C34.27375,108.852 36.18,106.94575 38.5335,106.93875 L32.1335,106.93875 C29.78,106.94575 27.87375,108.852 27.86675,111.2055 L27.86675,115.47225 L34.26675,115.47225 L34.26675,111.2055 Z" id="Shape"></path>
                            <rect id="Rectangle-path" x="44.9335" y="92.0055" width="6.4" height="14.93325"></rect>
                        </g>
                    </g>
                    <g fill-rule="nonzero">
                        <polygon id="Shape" fill="#FFFFFF" points="0 76.93275 0 49.1995 0 10.7995 4.26675 10.7995 4.26675 49.1995 4.26675 76.93275"></polygon>
                        <g fill="#428DFF" id="Shape">
                            <path d="M1.32275,61.82875 C1.44375,61.8905 1.573,61.9335 1.70675,61.95675 C1.84775,61.9805 1.9905,61.99475 2.1335,61.9995 C2.69825,61.99125 3.239,61.77025 3.64825,61.38075 C3.841,61.17675 3.99325,60.93775 4.09625,60.67675 C4.418,59.881 4.24275,58.9705 3.64825,58.3515 C3.44425,58.15875 3.20525,58.0065 2.94425,57.9035 C2.68775,57.79425 2.41225,57.73625 2.1335,57.73275 C1.56875,57.741 1.028,57.962 0.61875,58.3515 C-0.20625,59.19275 -0.20625,60.5395 0.61875,61.38075 L0.93875,61.63675 C1.05775,61.71775 1.18675,61.78225 1.32275,61.82875 Z"></path>
                            <path d="M117.3335,0.13275 L10.66675,0.13275 C4.77875,0.13975 0.00725,4.91125 0,10.7995 L0,51.33275 C0,52.511 0.95525,53.466 2.13325,53.466 C3.31125,53.466 4.2665,52.511 4.2665,51.33275 L4.2665,10.7995 C4.2665,7.265 7.132,4.3995 10.6665,4.3995 L117.33325,4.3995 C120.86775,4.3995 123.73325,7.265 123.73325,10.7995 L123.73325,43.192 C123.05,42.93925 122.32825,42.8065 121.6,42.7995 L70.4,42.7995 C66.8655,42.7995 64,45.665 64,49.1995 L64,51.33275 L12.8,51.33275 C11.62175,51.33275 10.66675,52.288 10.66675,53.466 C10.66675,54.64425 11.622,55.59925 12.8,55.59925 L64,55.59925 L64,74.79925 L42.66675,74.79925 L42.66675,64.1325 L57.6,64.1325 C58.77825,64.1325 59.73325,63.1775 59.73325,61.99925 C59.73325,60.821 58.778,59.866 57.6,59.866 L42.66675,59.866 C40.31025,59.866 38.4,61.77625 38.4,64.13275 L38.4,74.7995 L34.13325,74.7995 L34.13325,64.13275 C34.13325,61.77625 32.223,59.866 29.8665,59.866 L12.8,59.866 C10.4435,59.866 8.53325,61.77625 8.53325,64.13275 L8.53325,74.7995 L4.26675,74.7995 L4.26675,68.3995 C4.26675,67.22125 3.3115,66.26625 2.1335,66.26625 C0.9555,66.26625 0,67.22125 0,68.3995 L0,85.46625 C0.007,91.35425 4.7785,96.12575 10.66675,96.133 L44.8,96.133 L44.8,106.79975 L34.13325,106.79975 C30.59875,106.79975 27.73325,109.66525 27.73325,113.19975 L27.73325,117.4665 C27.73325,118.64475 28.6885,119.59975 29.8665,119.59975 L88.71025,119.59975 C90.7185,121.0365 92.79975,122.368 94.946,123.589 C95.5995,123.96025 96.40025,123.96025 97.05375,123.589 C127.648,106.2255 128,77.74125 128,76.536 L128,10.7995 C127.993,4.91125 123.2215,0.13975 117.3335,0.13275 Z M12.8,64.13275 L29.86675,64.13275 L29.86675,74.7995 L12.8,74.7995 L12.8,64.13275 Z M4.26675,85.46625 L4.26675,79.06625 L64.1515,79.06625 C64.6185,83.44225 65.63275,87.7425 67.17025,91.86625 L10.66675,91.86625 C8.96925,91.86625 7.3415,91.192 6.14125,89.99175 C4.941,88.7915 4.26675,87.1635 4.26675,85.46625 Z M49.06675,96.13275 L68.941,96.13275 C70.69325,99.91225 72.85275,103.489 75.3815,106.7995 L49.06675,106.7995 L49.06675,96.13275 Z M32,115.33275 L32,113.1995 C32,112.02125 32.95525,111.06625 34.13325,111.06625 L78.961,111.06625 C80.29425,112.5085 81.76,113.9335 83.3385,115.333 L32,115.333 L32,115.33275 Z M123.7335,76.534 C123.7335,77.62425 123.32175,103.13025 96.00025,119.269 C90.63175,116.1435 85.774,112.21375 81.596,107.61675 C81.53225,107.52675 81.461,107.4425 81.38275,107.365 C77.70575,103.24375 74.691,98.57675 72.44625,93.53025 C72.389,93.278 72.2855,93.03875 72.14125,92.82425 C69.85575,87.6805 68.54225,82.15825 68.267,76.53625 L68.267,49.1995 C68.267,48.02125 69.22225,47.06625 70.40025,47.06625 L121.60025,47.06625 C122.7785,47.06625 123.7335,48.0215 123.7335,49.1995 L123.7335,76.534 Z"></path>
                            <path d="M17.7985,42.78025 L17.839,42.81 C24.8335,48.4705 34.82875,48.4865 41.84125,42.8485 C41.87675,42.82475 41.911,42.79925 41.94375,42.77175 C48.26975,37.65625 50.68525,29.10925 47.97225,21.43925 C45.25925,13.7695 38.00675,8.642 29.87125,8.642 C21.73575,8.642 14.48325,13.7695 11.77,21.43925 C9.05675,29.109 11.47225,37.65625 17.7985,42.77175 L17.7985,42.78025 Z M21.374,40.13275 C21.55675,37.212 23.2235,34.58875 25.79,33.18225 C28.317,34.6285 31.421,34.6285 33.94775,33.18225 C36.51325,34.59 38.17825,37.21425 38.3595,40.13475 C33.256,43.6905 26.4775,43.6905 21.374,40.13475 L21.374,40.13275 Z M29.86675,29.9995 C27.51025,29.9995 25.6,28.08925 25.6,25.73275 C25.6,23.37625 27.51025,21.466 29.86675,21.466 C32.22325,21.466 34.1335,23.37625 34.1335,25.73275 C34.1335,28.08925 32.22325,29.9995 29.86675,29.9995 Z M29.86675,12.93275 C35.4705,12.922 40.6065,16.055 43.1615,21.0425 C45.7165,26.02975 45.25825,32.02875 41.9755,36.57025 C41.08825,33.9665 39.3855,31.71775 37.12,30.1575 C37.94825,28.82975 38.3915,27.298 38.4,25.733 C38.4,21.02025 34.5795,17.19975 29.86675,17.19975 C25.154,17.19975 21.3335,21.02 21.3335,25.73275 C21.342,27.29775 21.78525,28.8295 22.6135,30.15725 C20.348,31.7175 18.6455,33.96625 17.758,36.57 C14.47525,32.0285 14.01725,26.02975 16.572,21.04225 C19.12675,16.05475 24.26325,12.922 29.86675,12.93275 Z"></path>
                            <path d="M55.46675,19.33275 L117.3335,19.33275 C118.51175,19.33275 119.46675,18.3775 119.46675,17.1995 C119.46675,16.0215 118.51175,15.06625 117.3335,15.06625 L55.46675,15.06625 C54.2885,15.06625 53.3335,16.0215 53.3335,17.1995 C53.3335,18.3775 54.2885,19.33275 55.46675,19.33275 Z"></path>
                            <path d="M55.46675,27.86625 L117.3335,27.86625 C118.51175,27.86625 119.46675,26.911 119.46675,25.733 C119.46675,24.55475 118.51175,23.59975 117.3335,23.59975 L55.46675,23.59975 C54.2885,23.59975 53.3335,24.555 53.3335,25.733 C53.3335,26.911 54.2885,27.86625 55.46675,27.86625 Z"></path>
                            <path d="M55.46675,36.3995 L76.8,36.3995 C77.97825,36.3995 78.93325,35.44425 78.93325,34.26625 C78.93325,33.088 77.978,32.133 76.8,32.133 L55.46675,32.133 C54.2885,32.133 53.3335,33.08825 53.3335,34.26625 C53.3335,35.44425 54.2885,36.3995 55.46675,36.3995 Z"></path>
                            <path d="M115.20025,51.33275 C114.022,51.33275 113.067,52.288 113.067,53.466 C113.067,54.64425 114.02225,55.59925 115.20025,55.59925 L115.20025,76.506 C115.1875,77.31025 114.65625,96.393 94.79925,109.929 C94.14625,110.34825 93.77225,111.08925 93.823,111.86375 C93.87375,112.63825 94.34125,113.324 95.0435,113.6545 C95.74575,113.985 96.57225,113.90775 97.20125,113.45325 C118.86525,98.69275 119.452,77.466 119.46675,76.536 L119.46675,55.5995 C119.46675,53.243 117.5565,51.33275 115.20025,51.33275 Z"></path>
                            <path d="M76.80025,76.536 L76.80025,55.5995 L100.267,55.5995 C101.44525,55.5995 102.40025,54.64425 102.40025,53.46625 C102.40025,52.288 101.44525,51.333 100.267,51.333 L76.80025,51.333 C74.44375,51.333 72.5335,53.24325 72.5335,55.59975 L72.5335,76.53625 C73.1325,85.26425 76.236,93.63425 81.47225,100.643 C81.91975,101.26025 82.6625,101.59225 83.42075,101.51325 C84.179,101.4345 84.83775,100.957 85.14875,100.261 C85.45975,99.56475 85.37575,98.75575 84.92825,98.13825 C80.2325,91.85 77.41425,84.36 76.80025,76.536 Z"></path>
                            <path d="M110.3085,66.6245 C109.4755,65.79175 108.125,65.79175 107.292,66.6245 L91.467,82.4495 L88.97525,79.95775 C88.13825,79.14925 86.8075,79.16075 85.98475,79.98375 C85.16175,80.80675 85.15025,82.13725 85.95875,82.97425 L89.95875,86.97425 C90.79175,87.807 92.14225,87.807 92.97525,86.97425 L110.3085,69.641 C111.14125,68.808 111.14125,67.4575 110.3085,66.6245 Z"></path>
                        </g>
                    </g>
                </g>
            </g>
        </g>
    </g>
</svg>