<?xml version="1.0" encoding="UTF-8"?>
<svg width="128px" height="128px" viewBox="0 0 128 128" version="1.1" xmlns="http://www.w3.org/2000/svg" xmlns:xlink="http://www.w3.org/1999/xlink">
    <!-- Generator: Sketch 50.2 (55047) - http://www.bohemiancoding.com/sketch -->
    <title>settings</title>
    <desc>Created with Sketch.</desc>
    <defs>
        <linearGradient x1="14.0131346%" y1="16.0902575%" x2="85.9930727%" y2="83.9101199%" id="linearGradient-1">
            <stop stop-color="#D4E1F4" offset="0%"></stop>
            <stop stop-color="#D4E1F4" offset="17.17%"></stop>
            <stop stop-color="#D4E1F4" offset="20%"></stop>
            <stop stop-color="#DAE4F4" offset="20.01%"></stop>
            <stop stop-color="#EBEBF4" offset="20.07%"></stop>
            <stop stop-color="#F6F1F4" offset="20.14%"></stop>
            <stop stop-color="#FDF4F4" offset="20.23%"></stop>
            <stop stop-color="#FFF5F4" offset="20.5%"></stop>
            <stop stop-color="#FFF5F4" offset="25.22%"></stop>
            <stop stop-color="#FFF5F4" offset="26%"></stop>
            <stop stop-color="#D4E1F4" offset="26%"></stop>
            <stop stop-color="#D4E1F4" offset="39.74%"></stop>
            <stop stop-color="#D4E1F4" offset="42%"></stop>
            <stop stop-color="#DAE4F4" offset="42.01%"></stop>
            <stop stop-color="#EBEBF4" offset="42.07%"></stop>
            <stop stop-color="#F6F1F4" offset="42.14%"></stop>
            <stop stop-color="#FDF4F4" offset="42.23%"></stop>
            <stop stop-color="#FFF5F4" offset="42.5%"></stop>
            <stop stop-color="#FFF5F4" offset="48.94%"></stop>
            <stop stop-color="#FFF5F4" offset="50%"></stop>
            <stop stop-color="#F9F2F4" offset="50%"></stop>
            <stop stop-color="#E8EBF4" offset="50.01%"></stop>
            <stop stop-color="#DDE5F4" offset="50.03%"></stop>
            <stop stop-color="#D6E2F4" offset="50.05%"></stop>
            <stop stop-color="#D4E1F4" offset="50.1%"></stop>
            <stop stop-color="#D4E1F4" offset="70.62%"></stop>
            <stop stop-color="#D4E1F4" offset="74%"></stop>
            <stop stop-color="#FFF5F4" offset="74.1%"></stop>
            <stop stop-color="#FFF5F4" offset="83.46%"></stop>
            <stop stop-color="#FFF5F4" offset="85%"></stop>
            <stop stop-color="#D4E1F4" offset="85.1%"></stop>
        </linearGradient>
    </defs>
    <g id="Page-1" stroke="none" stroke-width="1" fill="none" fill-rule="evenodd">
        <g id="Artboard" transform="translate(-3002.000000, 0.000000)">
            <g id="settings" transform="translate(3002.000000, 0.000000)">
                <g>
                    <path d="M121.172335,52.14825 L109.221676,52.14825 C106.40892,52.14825 103.873123,50.4505 102.796725,47.84675 C101.720327,45.243 102.315415,42.246 104.304281,40.253 L112.754526,31.78625 C114.399563,30.138 114.399563,27.4655 112.754526,25.81725 L101.983563,15.025 C101.193606,14.2335 100.122199,13.78875 99.0048811,13.78875 C97.8875634,13.78875 96.8161559,14.2335 96.0261988,15.025 L87.5759532,23.49175 C85.5870877,25.4845 82.5956803,26.08075 79.9970058,25.00225 C77.3983314,23.92375 75.7038908,21.383 75.7038908,18.56475 L75.7038908,6.591 C75.7038908,5.4715 75.2600078,4.398 74.4700507,3.6065 C73.6800936,2.815 72.6086862,2.37025 71.4913684,2.37025 L56.2588694,2.37025 C53.9324133,2.37025 52.046347,4.26 52.046347,6.591 L52.046347,18.56475 C52.046347,21.383 50.3519064,23.92375 47.753232,25.00225 C45.1545575,26.08075 42.1633996,25.4845 40.1742846,23.49175 L31.7242885,15.025 C30.9343314,14.2335 29.862924,13.78875 28.7456062,13.78875 C27.6282885,13.78875 26.5568811,14.2335 25.766924,15.025 L14.995961,25.81725 C13.350924,27.4655 13.350924,30.138 14.995961,31.78625 L23.4462066,40.253 C25.4350721,42.24575 26.0301598,45.24275 24.9537622,47.8465 C23.8773645,50.45025 21.3415673,52.148 18.5288109,52.148 L6.57815205,52.148 C4.25169591,52.148 2.36562963,54.03775 2.36562963,56.36875 L2.36562963,71.631 C2.36562963,73.962 4.25169591,75.85175 6.57815205,75.85175 L18.5288109,75.85175 C21.3415673,75.85175 23.8773645,77.5495 24.9537622,80.15325 C26.0301598,82.757 25.4350721,85.754 23.4462066,87.747 L14.995961,96.21375 C13.350924,97.862 13.350924,100.5345 14.995961,102.18275 L25.766924,112.97475 C27.411961,114.623 30.0792515,114.623 31.7242885,112.97475 L40.1745341,104.508 C42.1633996,102.51525 45.154807,101.919 47.7534815,102.9975 C50.3521559,104.076 52.0465965,106.61675 52.0465965,109.435 L52.0465965,121.40875 C52.0465965,123.73975 53.9326628,125.6295 56.2591189,125.6295 L71.4916179,125.6295 C72.6089357,125.6295 73.6803431,125.18475 74.4703002,124.39325 C75.2602573,123.60175 75.7041404,122.52825 75.7041404,121.40875 L75.7041404,109.435 C75.7041404,106.61675 77.3985809,104.076 79.9972554,102.9975 C82.5959298,101.919 85.5870877,102.51525 87.5762027,104.508 L96.0264483,112.97475 C97.6714854,114.623 100.338776,114.623 101.983813,112.97475 L112.754776,102.18275 C114.399813,100.5345 114.399813,97.862 112.754776,96.21375 L104.30453,87.747 C102.315665,85.75425 101.720577,82.757 102.796975,80.15325 C103.873372,77.5495 106.40917,75.85175 109.221926,75.85175 L121.172335,75.85175 C123.498791,75.85175 125.384858,73.962 125.384858,71.631 L125.384858,56.36875 C125.384858,54.03775 123.498791,52.14825 121.172335,52.14825 Z" id="Shape" fill="#A4C2F7" fill-rule="nonzero"></path>
                    <path d="M114.074947,52.14825 L102.124538,52.14825 C99.3117817,52.14825 96.7759844,50.4505 95.6995867,47.84675 C94.6231891,45.243 95.2182768,42.246 97.2071423,40.253 L105.657388,31.786 C106.447345,30.9945 106.891228,29.921 106.891228,28.80175 C106.891228,27.6825 106.447595,26.60875 105.657637,25.81725 L96.0239532,16.165 C95.8445536,16.2635 95.6546745,16.34175 95.458308,16.39875 C90.9236647,18.04675 86.8843041,20.8285 83.7239766,24.47975 C83.2009981,25.031 82.4517115,25.30675 81.6969357,25.226 C80.9421598,25.14525 80.2679766,24.71675 79.8732476,24.06725 C76.0679298,27.55575 75.7041404,24.47 75.7041404,18.56475 L75.7041404,6.59075 C75.7041404,5.47125 75.2602573,4.39775 74.4703002,3.60625 C73.6803431,2.81475 72.6086862,2.37 71.4916179,2.37025 L56.2591189,2.37025 C55.1418012,2.37025 54.0703938,2.81475 53.2804366,3.60625 C52.4904795,4.39775 52.0465965,5.47125 52.0465965,6.59075 L52.0465965,18.56475 C52.0465965,21.383 50.3521559,23.92375 47.7534815,25.00225 C45.154807,26.08075 42.1636491,25.4845 40.1747836,23.49175 L31.724538,15.02475 C30.079501,13.3765 27.4122105,13.3765 25.7671735,15.02475 L14.9962105,25.817 C14.2062534,26.6085 13.7623704,27.682 13.7626199,28.8015 C13.7626199,29.92075 14.2065029,30.99425 14.99646,31.78575 L23.4467057,40.25275 C25.4355712,42.2455 26.0306589,45.24275 24.9542612,47.8465 C23.8778635,50.45025 21.3420663,52.148 18.5293099,52.148 L6.57840156,52.148 C5.46108382,52.148 4.38967641,52.5925 3.5997193,53.384 C2.80976218,54.1755 2.36587914,55.249 2.36587914,56.3685 L2.36587914,71.63075 C2.36587914,73.962 4.25194542,75.85175 6.57840156,75.85175 L18.5288109,75.85175 C21.3415673,75.85175 23.8773645,77.5495 24.9537622,80.15325 C26.0301598,82.757 25.4350721,85.754 23.4462066,87.747 L14.995961,96.2135 C13.350924,97.862 13.350924,100.5345 14.995961,102.18275 L25.766924,112.9745 C27.411961,114.62275 30.0792515,114.62275 31.7242885,112.9745 L40.1745341,104.508 C42.1633996,102.515 45.154807,101.91875 47.7534815,102.9975 C50.3521559,104.076 52.0465965,106.617 52.0465965,109.43525 L52.0465965,121.40875 C52.0465965,123.73975 53.9326628,125.62975 56.2591189,125.62975 L71.4916179,125.62975 C73.8183236,125.62975 75.7041404,123.73975 75.7041404,121.40875 L75.7041404,109.4355 C75.7041404,103.9865 76.0090448,100.9285 79.0461131,103.23 C79.6481871,100.89375 83.3846394,100.21725 83.9203431,102.9725 C84.8480312,102.90775 85.7310565,103.37975 86.194152,104.18775 C87.2725458,105.83575 88.733193,107.19725 90.4510877,108.1565 C91.4446472,108.8115 91.8857856,110.04625 91.5329747,111.18425 C92.6590253,111.70725 93.8230019,112.14375 95.014924,112.49025 C95.1074932,112.5175 95.183345,112.5585 95.2684288,112.59225 L105.657388,102.183 C107.302425,100.5345 107.302425,97.862 105.657388,96.21375 L97.2071423,87.74725 C95.2182768,85.7545 94.6231891,82.75725 95.6995867,80.1535 C96.7759844,77.54975 99.3117817,75.852 102.124788,75.852 L114.075197,75.852 C116.401903,75.852 118.287719,73.962 118.287719,71.631 L118.287719,56.36875 C118.287719,55.24925 117.843836,54.17575 117.053879,53.38425 C116.263673,52.59275 115.192265,52.148 114.074947,52.14825 Z" id="Shape" fill="url(#linearGradient-1)" fill-rule="nonzero"></path>
                    <ellipse id="Oval" fill="#7FACFA" fill-rule="nonzero" cx="63.8752437" cy="64" rx="18.9260351" ry="18.963"></ellipse>
                    <ellipse id="Oval" fill="#A4C2F7" fill-rule="nonzero" cx="60.3266745" cy="64" rx="15.3774659" ry="18.963"></ellipse>
                    <g id="Group" transform="translate(2.245614, 13.750000)" fill="#FFFFFF" fill-rule="nonzero">
                        <path d="M30.0465653,97.85075 C29.8499493,97.90775 29.6603197,97.98625 29.4809201,98.0845 L19.8474854,88.43225 C19.0575283,87.64075 18.6136452,86.56725 18.6138947,85.44775 C18.6138947,84.3285 19.0577778,83.255 19.8477349,82.4635 L28.2979805,73.9965 C30.286846,72.00375 30.8819337,69.0065 29.8055361,66.40275 C28.7291384,63.799 26.1933411,62.10125 23.3805848,62.10125 L16.2831969,62.10125 C19.0959532,62.10125 21.6317505,63.799 22.7081481,66.40275 C23.7845458,69.0065 23.1894581,72.0035 21.2005926,73.9965 L12.750347,82.4635 C11.9603899,83.255 11.5165068,84.3285 11.5165068,85.44775 C11.5165068,86.567 11.9601404,87.64075 12.7500975,88.43225 L23.5210604,99.2245 C25.1660975,100.87275 27.8333879,100.87275 29.478425,99.2245 L31.2809045,97.41825 C30.8734503,97.57225 30.4662456,97.72925 30.0465653,97.85075 Z" id="Shape"></path>
                        <path d="M21.2005926,26.50225 C23.1894581,28.495 23.7845458,31.49225 22.7081481,34.096 C21.6317505,36.69975 19.0959532,38.3975 16.2831969,38.3975 L23.3803353,38.3975 C26.1930916,38.3975 28.7288889,36.69975 29.8052865,34.096 C30.8816842,31.49225 30.2865965,28.49525 28.297731,26.50225 L19.8474854,18.03575 C18.2024483,16.38725 18.2024483,13.71475 19.8474854,12.0665 L30.0485614,1.8455 L29.4786745,1.275 C27.8336374,-0.37325 25.166347,-0.37325 23.5213099,1.275 L12.750347,12.06675 C11.1053099,13.71525 11.1053099,16.38775 12.750347,18.036 L21.2005926,26.50225 Z" id="Shape"></path>
                        <path d="M4.33278752,62.10125 L11.4299259,62.10125 C10.3126082,62.10125 9.24120078,61.65675 8.45124366,60.86525 C7.66128655,60.07375 7.21740351,59.00025 7.21740351,57.88075 L7.21740351,42.6185 C7.21740351,40.28725 9.10346979,38.3975 11.4299259,38.3975 L4.33278752,38.3975 C2.00608187,38.3975 0.120265107,40.2875 0.120265107,42.6185 L0.120265107,57.88075 C0.120265107,59.00025 0.564148148,60.07375 1.35410526,60.86525 C2.14406238,61.65675 3.21546979,62.10125 4.33278752,62.10125 Z" id="Shape"></path>
                    </g>
                    <g id="Group" fill="#428DFF" fill-rule="nonzero">
                        <path d="M71.4923665,128 L56.2581209,128 C52.6272125,127.99625 49.68446,125.04775 49.6807173,121.40975 L49.6807173,109.43525 C49.6804678,107.5755 48.5624016,105.89925 46.8477505,105.18725 C45.1330994,104.4755 43.1592047,104.86825 41.8465185,106.18275 L33.39777,114.65025 C30.7956023,117.14325 26.6963587,117.14325 24.094191,114.65025 L13.3234776,103.8585 C10.7544951,101.28425 10.7544951,97.111 13.3234776,94.53675 L21.7744717,86.0715 C23.0864094,84.756 23.4786433,82.7785 22.7680312,81.0605 C22.0576686,79.3425 20.3844366,78.22225 18.5283119,78.222 L6.57740351,78.222 C2.94649513,78.21825 0.00374269006,75.27 0,71.632 L0,56.368 C0.00374269006,52.73 2.94649513,49.7815 6.57740351,49.77775 L18.5285614,49.77775 C20.3846862,49.7775 22.0576686,48.65725 22.7682807,46.93925 C23.4786433,45.22125 23.0866589,43.2435 21.7747212,41.92825 L13.3237271,33.463 C10.7547446,30.88875 10.7547446,26.7155 13.3237271,24.14125 L24.0944405,13.3495 C26.6973567,10.85875 30.7951033,10.85875 33.3980195,13.3495 L41.846768,21.81475 C43.1589552,23.13025 45.1328499,23.52425 46.8477505,22.81275 C48.5629006,22.10125 49.6809669,20.4245 49.6809669,18.56475 L49.6809669,6.59025 C49.6847096,2.95225 52.6272125,0.00375 56.2581209,0 L71.4923665,0 C75.1232749,0.00375 78.0660273,2.95225 78.06977,6.59025 L78.06977,18.56475 C78.06977,20.4245 79.1878363,22.10125 80.9029864,22.81275 C82.6181365,23.52425 84.5920312,23.13025 85.9039688,21.81475 L94.3527173,13.3495 C96.9556335,10.85875 101.05338,10.85875 103.656296,13.3495 L114.42701,24.14125 C116.995992,26.7155 116.995992,30.88875 114.42701,33.463 L105.976016,41.92825 C104.664078,43.24375 104.271844,45.22125 104.982456,46.93925 C105.692819,48.65725 107.366051,49.7775 109.222175,49.77775 L121.173333,49.77775 C124.804242,49.78175 127.746745,52.73 127.750737,56.368 L127.750737,71.632 C127.746994,75.27 124.804242,78.2185 121.173333,78.22225 L109.222175,78.22225 C107.366051,78.2225 105.693068,79.34275 104.982456,81.06075 C104.272094,82.77875 104.664078,84.7565 105.976016,86.07175 L114.42701,94.537 C116.995992,97.11125 116.995992,101.28475 114.42701,103.85875 L103.656296,114.6505 C101.05338,117.14125 96.9556335,117.14125 94.3527173,114.6505 L85.9039688,106.183 C84.5910331,104.8685 82.6173879,104.4755 80.9027368,105.1875 C79.1880858,105.89925 78.0700195,107.57575 78.06977,109.4355 L78.06977,121.41 C78.0657778,125.048 75.1232749,127.99625 71.4923665,128 Z M45.0325458,100.07175 C46.2783626,100.07475 47.5109552,100.325 48.6597115,100.80775 C52.1688577,102.22075 54.4528967,105.64625 54.4124756,109.43525 L54.4124756,121.40975 C54.4129747,122.431 55.2391111,123.25875 56.2583704,123.25925 L71.492616,123.25925 C72.5118752,123.25875 73.3380117,122.431 73.3385107,121.40975 L73.3385107,109.43525 C73.3387602,105.65825 75.609575,102.253 79.0920234,100.8075 C82.5747212,99.362 86.5836413,100.1605 89.2494347,102.831 L97.6981832,111.2985 C98.4200234,112.02075 99.5892398,112.02075 100.31108,111.2985 L111.081793,100.50675 C111.802635,99.7835 111.802635,98.612 111.081793,97.88875 L102.630799,89.4235 C99.9655049,86.7525 99.1683119,82.73575 100.610994,79.24625 C102.053676,75.75675 105.452288,73.4815 109.221926,73.4815 L121.173084,73.4815 C122.192343,73.481 123.01848,72.65325 123.018979,71.632 L123.018979,56.368 C123.01848,55.34675 122.192343,54.519 121.173084,54.5185 L109.221926,54.5185 C105.452288,54.51825 102.053676,52.243 100.610994,48.7535 C99.1683119,45.264 99.9652554,41.24725 102.63055,38.57625 L111.081544,30.111 C111.802386,29.38775 111.802386,28.21625 111.081544,27.493 L100.31083,16.70125 C99.5889903,15.979 98.4197739,15.979 97.6979337,16.70125 L89.2491852,25.1665 C86.5841404,27.838 82.5749708,28.63775 79.0920234,27.1925 C75.6088265,25.74725 73.3380117,22.342 73.3382612,18.5645 L73.3382612,6.59025 C73.3377622,5.569 72.5116257,4.74125 71.4923665,4.74075 L56.2581209,4.74075 C55.2388616,4.74125 54.4127251,5.569 54.4122261,6.59025 L54.4122261,18.56475 C54.4124756,22.342 52.1414113,25.7475 48.6582144,27.1925 C45.1752671,28.63775 41.1660975,27.838 38.5010526,25.1665 L30.0523041,16.70125 C29.3304639,15.979 28.1612476,15.979 27.4394074,16.70125 L16.668694,27.493 C15.9478519,28.21625 15.9478519,29.38775 16.668694,30.111 L25.1196881,38.57625 C27.7849825,41.24725 28.5819259,45.264 27.1392437,48.7535 C25.6965614,52.243 22.2979493,54.51825 18.5283119,54.51825 L6.57740351,54.51825 C5.55814425,54.51875 4.7320078,55.3465 4.73150877,56.36775 L4.73150877,71.63175 C4.7320078,72.653 5.55814425,73.48075 6.57740351,73.48125 L18.5285614,73.48125 C22.2981988,73.4815 25.6968109,75.75675 27.1394932,79.246 C28.5821754,82.7355 27.785232,86.75225 25.1199376,89.42325 L16.6689435,97.8885 C15.9481014,98.61175 15.9481014,99.78325 16.6689435,100.5065 L27.4396569,111.29825 C28.1614971,112.0205 29.3307135,112.0205 30.0525536,111.29825 L38.5013021,102.83075 C40.2226901,101.0735 42.574846,100.07975 45.0325458,100.07175 Z" id="Shape"></path>
                        <path d="M63.8752437,85.33325 C52.1162105,85.33325 42.5835789,75.782 42.5835789,64 C42.5835789,52.218 52.1162105,42.66675 63.8752437,42.66675 C75.6342768,42.66675 85.1669084,52.218 85.1669084,64 C85.1541832,75.77675 75.629037,85.3205 63.8752437,85.33325 Z M63.8752437,47.4075 C54.7293567,47.4075 47.3150877,54.83625 47.3150877,64 C47.3150877,73.16375 54.7293567,80.5925 63.8752437,80.5925 C73.0211306,80.5925 80.4353996,73.16375 80.4353996,64 C80.4244211,54.84075 73.0166394,47.4185 63.8752437,47.4075 Z" id="Shape"></path>
                    </g>
                </g>
            </g>
        </g>
    </g>
</svg>