<?xml version="1.0" encoding="UTF-8"?>
<svg width="25px" height="25px" viewBox="0 0 25 25" version="1.1" xmlns="http://www.w3.org/2000/svg" xmlns:xlink="http://www.w3.org/1999/xlink">
    <!-- Generator: Sketch 50.2 (55047) - http://www.bohemiancoding.com/sketch -->
    <title>yes</title>
    <desc>Created with Sketch.</desc>
    <defs></defs>
    <g id="Page-1" stroke="none" stroke-width="1" fill="none" fill-rule="evenodd">
        <g id="Artboard" transform="translate(-15.000000, -105.000000)">
            <g id="yes" transform="translate(15.000000, 105.000000)">
                <g>
                    <circle id="Oval" fill="#A4C2F7" fill-rule="nonzero" cx="12.5" cy="12.5" r="12.0192383"></circle>
                    <ellipse id="Oval" fill="#E3E7F2" fill-rule="nonzero" cx="12.5" cy="12.5" rx="10.5769043" ry="12.0192383"></ellipse>
                    <path d="M1.9230957,12.5 C1.9230957,5.86196289 6.65854492,0.480761719 12.5,0.480761719 C5.86196289,0.480761719 0.480761719,5.86196289 0.480761719,12.5 C0.480761719,19.1380371 5.86196289,24.5192383 12.5,24.5192383 C6.65854492,24.5192383 1.9230957,19.1380371 1.9230957,12.5 Z" id="Shape" fill="#FFFFFF" fill-rule="nonzero"></path>
                    <g id="Group" fill="#428DFF" fill-rule="nonzero">
                        <path d="M12.5,25 C5.59643555,25 0,19.4035645 0,12.5 C0,5.59643555 5.59643555,0 12.5,0 C19.4035645,0 25,5.59643555 25,12.5 C24.9922852,19.4003418 19.4003418,24.9922852 12.5,25 Z M12.5,0.961523438 C6.12749023,0.961523438 0.961523438,6.12749023 0.961523438,12.5 C0.961523438,18.8725098 6.12749023,24.0384766 12.5,24.0384766 C18.8725098,24.0384766 24.0384766,18.8725098 24.0384766,12.5 C24.0311523,6.13051758 18.8694824,0.968847656 12.5,0.961523438 Z" id="Shape"></path>
                        <path d="M11.0574707,16.8269043 C10.9484375,16.8269531 10.842627,16.7898437 10.7574707,16.7217285 L5.94975586,12.8755859 C5.74321289,12.7095215 5.71000977,12.4076172 5.87548828,12.2005859 C6.0409668,11.9935547 6.34277344,11.9594727 6.55024414,12.1243652 L11.0015625,15.6855469 L18.3905762,7.37304687 C18.5668945,7.17456055 18.870752,7.1565918 19.0692383,7.33291016 C19.2677246,7.50922852 19.2856934,7.81308594 19.109375,8.01157227 L11.4170898,16.6654297 C11.3258301,16.7682617 11.1949219,16.8270508 11.0574707,16.8269043 Z" id="Shape"></path>
                    </g>
                </g>
            </g>
        </g>
    </g>
</svg>