<?xml version="1.0" encoding="UTF-8"?>
<svg width="60px" height="59px" viewBox="0 0 60 59" version="1.1" xmlns="http://www.w3.org/2000/svg" xmlns:xlink="http://www.w3.org/1999/xlink">
    <!-- Generator: Sketch 50.2 (55047) - http://www.bohemiancoding.com/sketch -->
    <title>key</title>
    <desc>Created with Sketch.</desc>
    <defs>
        <linearGradient x1="59.1666895%" y1="7.75668674%" x2="43.2567309%" y2="97.9669837%" id="linearGradient-1">
            <stop stop-color="#D4E1F4" offset="0%"></stop>
            <stop stop-color="#D4E1F4" offset="17.17%"></stop>
            <stop stop-color="#D4E1F4" offset="20%"></stop>
            <stop stop-color="#DAE4F4" offset="20.01%"></stop>
            <stop stop-color="#EBEBF4" offset="20.07%"></stop>
            <stop stop-color="#F6F1F4" offset="20.14%"></stop>
            <stop stop-color="#FDF4F4" offset="20.23%"></stop>
            <stop stop-color="#FFF5F4" offset="20.5%"></stop>
            <stop stop-color="#FFF5F4" offset="25.22%"></stop>
            <stop stop-color="#FFF5F4" offset="26%"></stop>
            <stop stop-color="#D4E1F4" offset="26%"></stop>
            <stop stop-color="#D4E1F4" offset="39.74%"></stop>
            <stop stop-color="#D4E1F4" offset="42%"></stop>
            <stop stop-color="#DAE4F4" offset="42.01%"></stop>
            <stop stop-color="#EBEBF4" offset="42.07%"></stop>
            <stop stop-color="#F6F1F4" offset="42.14%"></stop>
            <stop stop-color="#FDF4F4" offset="42.23%"></stop>
            <stop stop-color="#FFF5F4" offset="42.5%"></stop>
            <stop stop-color="#FFF5F4" offset="48.94%"></stop>
            <stop stop-color="#FFF5F4" offset="50%"></stop>
            <stop stop-color="#F9F2F4" offset="50%"></stop>
            <stop stop-color="#E8EBF4" offset="50.01%"></stop>
            <stop stop-color="#DDE5F4" offset="50.03%"></stop>
            <stop stop-color="#D6E2F4" offset="50.05%"></stop>
            <stop stop-color="#D4E1F4" offset="50.1%"></stop>
            <stop stop-color="#D4E1F4" offset="70.62%"></stop>
            <stop stop-color="#D4E1F4" offset="74%"></stop>
            <stop stop-color="#FFF5F4" offset="74.1%"></stop>
            <stop stop-color="#FFF5F4" offset="83.46%"></stop>
            <stop stop-color="#FFF5F4" offset="85%"></stop>
            <stop stop-color="#D4E1F4" offset="85.1%"></stop>
        </linearGradient>
    </defs>
    <g id="Page-1" stroke="none" stroke-width="1" fill="none" fill-rule="evenodd">
        <g id="Artboard" transform="translate(0.000000, -8.000000)">
            <g id="key" transform="translate(0.000000, 8.000000)">
                <g>
                    <g id="Group" transform="translate(0.937500, 1.057769)" fill-rule="nonzero">
                        <g fill="#E3E7F2" id="Shape">
                            <path d="M53.2298438,4.85398406 C53.1698437,4.79380876 53.1098437,4.73363347 53.0498438,4.68344821 C46.5789844,-1.61274502 36.2680078,-1.53682072 29.8898438,4.85398406 C29.6598047,5.08469522 29.4398438,5.31528884 29.2298438,5.56609761 L50.3398828,26.7378127 L52.5199219,28.9241036 C52.7599219,28.71349 52.9999219,28.4928865 53.2299609,28.2621753 C59.6698828,21.7960339 59.6698828,11.320008 53.2298438,4.85398406 Z M49.4299219,18.944994 L39.1798828,8.66500797 C38.9485547,8.43958566 38.7826172,8.15528088 38.6998828,7.84265139 C38.5400391,7.3148247 38.6109375,6.74374701 38.8951172,6.27139442 C39.1791797,5.79904183 39.6498047,5.46972311 40.1899219,5.36535657 C43.4360156,4.7235259 46.7950781,5.63156175 49.2799219,7.82255378 C49.4599219,7.97299203 49.6299609,8.13342032 49.7998828,8.30395618 C52.3120313,10.8248546 53.4069141,14.4351375 52.7198437,17.932004 C52.5840234,18.6422371 52.0680469,19.2190737 51.37875,19.4313327 C50.6894531,19.6435916 49.9396875,19.4564841 49.4299219,18.944994 Z"></path>
                            <path d="M53.2298438,4.85398406 C53.1698437,4.79380876 53.1098438,4.73363347 53.0498438,4.68344821 C57.6698437,11.2634761 56.9019141,20.2226614 51.2298047,25.9153386 C50.9997656,26.1460498 50.7597656,26.3666534 50.5197656,26.5772669 C50.4597656,26.6274522 50.3997656,26.6876275 50.3397656,26.7376952 L52.5199219,28.9241036 C52.7599219,28.71349 52.9999219,28.4928865 53.2299609,28.2621753 C59.6698828,21.7960339 59.6698828,11.320008 53.2298438,4.85398406 Z"></path>
                            <path d="M29.8898438,28.2621753 C28.4832422,26.8501713 27.3417188,25.1957032 26.5198828,23.3779861 L1.48992187,48.4910657 C1.21511719,48.7590339 1.02984375,49.1059821 0.959882812,49.4839582 L0.09984375,53.776502 L0.09984375,53.786492 C-0.007265625,54.3102052 0.107460937,54.8549562 0.416601562,55.2905219 C0.725742187,55.7260876 1.20140625,56.0132131 1.72992188,56.0831434 L6.95988281,56.8353347 C7.5365625,56.9184283 8.11992187,56.7381375 8.54988281,56.3438247 C8.97984375,55.949512 9.2109375,55.3827829 9.17988281,54.7993645 L9.06984375,52.7934821 C9.045,52.2409741 9.25300781,51.7033924 9.64300781,51.312253 C10.0330078,50.9211135 10.5689062,50.712498 11.1199219,50.7374143 L13.3299609,50.867755 C13.8799219,50.8922012 14.4146484,50.6832331 14.8028906,50.2918586 C15.1911328,49.9004841 15.3970312,49.3631375 15.3699609,48.8118048 L15.2499609,46.5953088 C15.2214844,46.0444462 15.4272656,45.5073347 15.8162109,45.117253 C16.2051562,44.7271713 16.7407031,44.5207888 17.2899609,44.5493486 L19.5,44.6696992 C20.0513672,44.696261 20.5884375,44.4882331 20.9787891,44.096741 C21.3691406,43.705249 21.5765625,43.1667271 21.5500781,42.6136315 L21.4201172,40.3971355 C21.395625,39.8455677 21.6041016,39.3092789 21.9943359,38.9197849 C22.3845703,38.5304084 22.9203516,38.3239084 23.4700781,38.3511753 L27.8300391,38.5818865 L34.7600391,31.6416295 C33.7934766,31.2017151 32.8723828,30.6676594 32.01,30.0469841 C31.2530859,29.5148088 30.54375,28.9175219 29.8898438,28.2621753 Z"></path>
                        </g>
                        <path d="M28.0298437,26.0356892 L3.56988281,50.5771036 L0.0598828125,54.1240378 L0.959882812,49.4839582 C1.02984375,49.1059821 1.215,48.7590339 1.48992187,48.4910657 L26.5198828,23.3778685 C26.9408203,24.3084701 27.44625,25.1980538 28.0298437,26.0356892 Z" id="Shape" fill="#FFFFFF"></path>
                        <g transform="translate(0.000000, 4.583665)" fill="#A4C2F7" id="Shape">
                            <path d="M53.2298438,0.270318725 C53.1698437,0.210143426 53.1098438,0.149968127 53.0498438,0.0997828685 C57.6698437,6.67981076 56.9019141,15.638996 51.2298047,21.3316733 C50.9997656,21.5623845 50.7597656,21.782988 50.5197656,21.9936016 C50.4597656,22.0437869 50.3997656,22.1039622 50.3397656,22.1540299 L52.5199219,24.3404382 C52.7599219,24.1298247 52.9999219,23.9092211 53.2299609,23.67851 C59.6698828,17.2123685 59.6698828,6.73634263 53.2298438,0.270318725 Z"></path>
                            <path d="M34.7599219,27.0583167 L27.8299219,33.9985737 L23.4699609,33.7678625 C22.9201172,33.7405956 22.3843359,33.9470956 21.9942187,34.3364721 C21.6039844,34.7258486 21.3955078,35.262255 21.42,35.8138227 L21.5499609,38.0303187 C21.5765625,38.5832968 21.3690234,39.1219363 20.9786719,39.5134283 C20.5883203,39.9049203 20.0513672,40.1129482 19.4998828,40.0863865 L17.2898437,39.9660359 C16.7405859,39.9374761 16.2050391,40.1438586 15.8160937,40.5339402 C15.4271484,40.9240219 15.2213672,41.4611335 15.2498437,42.011996 L15.3698437,44.228492 C15.3969141,44.7799422 15.1911328,45.3172888 14.8027734,45.7085458 C14.4145313,46.0999203 13.8796875,46.309006 13.3298437,46.2844422 L11.1199219,46.1539841 C10.5690234,46.1290677 10.0330078,46.3376833 9.64300781,46.7288227 C9.25300781,47.1199622 9.045,47.6574263 9.06984375,48.2100518 L9.17988281,50.2159343 C9.21105469,50.7993526 8.97984375,51.3660817 8.54988281,51.7603944 C8.11992187,52.1547072 7.5365625,52.334998 6.95988281,52.2519044 L1.72992187,51.4997131 C1.20140625,51.4296653 0.725742187,51.1426574 0.416601562,50.7070916 C0.107460937,50.2715259 -0.007265625,49.7267749 0.09984375,49.2030618 L4.95984375,49.9050677 C5.53652344,49.9882789 6.12,49.8078705 6.54984375,49.4135578 C6.97980469,49.019245 7.21089844,48.4525159 7.17984375,47.8690976 L7.06980469,45.8632151 C7.04496094,45.3107072 7.25296875,44.7731255 7.64296875,44.3819861 C8.03296875,43.9908466 8.56886719,43.7822311 9.11988281,43.8071474 L11.3299219,43.937488 C11.8798828,43.9620518 12.4146094,43.7529661 12.8028516,43.3615916 C13.1910938,42.9702171 13.3969922,42.4328705 13.3699219,41.8815378 L13.2499219,39.6650418 C13.2214453,39.1141793 13.4272266,38.5770677 13.8161719,38.1869861 C14.2051172,37.7969044 14.7406641,37.5905219 15.2899219,37.6190817 L17.4999609,37.7394323 C18.0513281,37.765994 18.5883984,37.5579661 18.97875,37.1664741 C19.3691016,36.7749821 19.5765234,36.2364602 19.5500391,35.6833645 L19.4200781,33.4668685 C19.3955859,32.9153008 19.6040625,32.379012 19.9942969,31.9896355 C20.3845313,31.600259 20.9203125,31.393759 21.4700391,31.4209084 L25.83,31.6516195 L32.01,25.4635538 C32.8722656,26.0842291 33.7933594,26.6184024 34.7599219,27.0583167 Z"></path>
                        </g>
                        <path d="M52.5199219,28.9241036 C45.9923438,34.7502948 36.0671484,34.4608187 29.8882031,28.2638207 C23.7092578,22.0668227 23.420625,12.1126295 29.2298438,5.56598008 L52.5199219,28.9241036 Z" id="Shape" fill="#F3D55B"></path>
                        <path d="M50.3398828,26.7376952 L29.2298438,5.56598008 C23.4176953,12.1112191 23.7071484,22.0677629 29.8898438,28.2620578 C30.54375,28.9174044 31.2530859,29.5146912 32.0098828,30.0472191 C32.8722656,30.6678944 33.7933594,31.2019502 34.7599219,31.6418645 C40.6957031,34.3325936 47.6544141,33.2676554 52.5199219,28.9239861 L50.3398828,26.7376952 Z" id="Shape" fill="url(#linearGradient-1)"></path>
                        <path d="M52.5199219,28.9241036 C47.6544141,33.2678904 40.6957031,34.3328287 34.7599219,31.6419821 C33.7933594,31.2020677 32.8722656,30.668012 32.0098828,30.0473367 L32.7598828,29.2951454 C38.6163281,31.9495578 45.4767188,30.951494 50.3398828,26.7376952 L52.5199219,28.9241036 Z" id="Shape" fill="#A4C2F7"></path>
                    </g>
                    <path d="M54.0124219,5.75626096 C54.0724219,5.81643625 54.1324219,5.87661155 54.1824609,5.93678685 C47.6214844,1.30328884 38.6885156,2.07346215 33.0124219,7.76214343 C32.7823828,7.99285458 32.5624219,8.23355578 32.3524219,8.47425697 C32.3023828,8.53443227 32.2423828,8.59460757 32.1924609,8.65478287 C27.9909375,13.5321554 26.9957813,20.4125896 29.6424609,26.2861454 L28.8924609,27.0383367 C28.2735937,26.1734343 27.7410938,25.2496494 27.3024609,24.2802629 C24.6195703,18.3271394 25.6814063,11.3480976 30.0124219,6.4683745 C30.2224219,6.22767331 30.4423828,5.98697211 30.6724219,5.75626096 C37.1197266,-0.702593625 47.5651172,-0.702593625 54.0124219,5.75626096 Z" id="Shape" fill="#FFFFFF" fill-rule="nonzero"></path>
                    <g id="Group" fill-rule="nonzero">
                        <path d="M28.1676563,25.1470458 L18.9752344,34.3663247 L4.64964844,48.7338825 L3.75433594,49.6318108 C3.49066406,49.9068307 3.05964844,50.3040817 3.01347656,50.4013964 C2.95792969,50.4843725 2.91667969,50.5761633 2.89148438,50.6728904 L2.77757812,51.235741 L2.52785156,52.4839084 L2.02839844,54.980243 C1.91695313,55.4000598 2.1103125,55.8412669 2.49398438,56.0427131 C2.58457031,56.0918406 2.68277344,56.1252191 2.78449219,56.1413207 L3.38871094,56.2299382 L4.64203125,56.4094064 L7.14867188,56.7685777 L7.77527344,56.8583705 L8.0653125,56.8973904 C8.11699219,56.9039721 8.16925781,56.9057351 8.22128906,56.9025618 C8.64339844,56.8841096 9.00105469,56.5846434 9.09445312,56.1714084 C9.12082031,56.0535259 9.12726562,55.9321175 9.11367187,55.8122371 L9.07898437,55.1778108 L9.00960937,53.9089582 C8.9409375,52.5843964 9.75914062,51.3757191 11.0119922,50.9510837 C11.3149219,50.846012 11.6335547,50.7934761 11.9540625,50.7955916 C12.2682422,50.7978247 12.4041797,50.8166295 12.6379687,50.8262669 L13.9021875,50.8971375 C14.1735937,50.9531992 14.4548437,50.936745 14.7179297,50.8496554 C14.9098828,50.7696175 15.0707812,50.6292869 15.1764844,50.4497012 C15.2305078,50.3623765 15.268125,50.2657669 15.2872266,50.1646912 C15.2984766,50.114506 15.3055078,50.0633805 15.3079687,50.0120199 C15.3063281,49.9666534 15.3117187,49.9198765 15.3021094,49.7924741 L15.2314453,48.5245618 L15.1960547,47.8906056 C15.1729687,47.6021873 15.1848047,47.312006 15.2312109,47.0262908 C15.4735547,45.7224143 16.5480469,44.7375139 17.8646484,44.6124622 C18.0171094,44.5992988 18.1703906,44.5964781 18.3233203,44.6038825 L18.639375,44.6216295 L19.2714844,44.6571235 L20.5126172,44.7243506 C20.7723047,44.7308147 21.0233203,44.6302092 21.2070703,44.4460398 C21.3908203,44.2618705 21.49125,44.010239 21.4849219,43.7497928 L21.4533984,43.1396952 L21.3827344,41.8717829 L21.3650391,41.5548048 C21.3576562,41.4016633 21.3603516,41.2482869 21.3733594,41.0956155 C21.4010156,40.7754641 21.4817578,40.462247 21.6124219,40.1688924 C22.0072266,39.2729622 22.8179297,38.6306614 23.7782812,38.4528386 C24.0629297,38.4061793 24.3521484,38.3940737 24.6397266,38.4165219 L25.9051172,38.4843367 L28.3796484,38.6169104 L34.9891406,31.9881076 L36.4033594,33.4065757 L32.821875,36.9984064 L31.03125,38.7946155 L30.1359375,39.6925438 L29.9121094,39.9170259 L29.8001953,40.0292669 C29.7276563,40.1020179 29.6499609,40.1693625 29.5675781,40.2307131 C29.2250391,40.4842251 28.8108984,40.6216175 28.3852734,40.6230279 L25.8021094,40.487751 L24.5385937,40.4199363 C24.4054688,40.4045398 24.2709375,40.4066554 24.1382812,40.4260478 C24.0377344,40.4453227 23.9409375,40.4803466 23.8512891,40.5300618 C23.6691797,40.6309024 23.5252734,40.7890976 23.4417187,40.9800837 C23.3990625,41.0736375 23.3731641,41.1738904 23.3653125,41.276494 C23.3603906,41.3346713 23.3594531,41.3930837 23.3625,41.4513785 L23.3801953,41.7683566 L23.4508594,43.0362689 L23.4842578,43.6943187 C23.5058203,44.5060976 23.1936328,45.2911972 22.6208203,45.8652131 C22.0480078,46.4392291 21.2650781,46.7518586 20.4556641,46.7296454 L19.168125,46.6606554 L18.5360156,46.6251614 L18.2199609,46.6074143 C18.1620703,46.6043586 18.1040625,46.6054163 18.0464063,46.6104701 C17.6237109,46.6521932 17.2788281,46.9678785 17.1990234,47.3862849 C17.1846094,47.7315876 17.1946875,48.0774781 17.2289063,48.421253 L17.2995703,49.6891653 C17.3519531,50.3107809 17.2115625,50.9334542 16.8976172,51.4719761 C16.5701953,52.0273048 16.0713281,52.4605199 15.4764844,52.7060398 C15.1792969,52.8255677 14.8654687,52.8980837 14.5461328,52.921002 C14.296875,52.926996 14.0475,52.9201793 13.7989453,52.9005518 L12.5347266,52.8296813 C12.3469922,52.8212191 12.0619922,52.7986534 11.9540625,52.8017092 C11.8516406,52.7995936 11.7496875,52.8164004 11.6533594,52.8513068 C11.4566016,52.9180637 11.2867969,53.0473466 11.1699609,53.2195279 C11.0540625,53.3925319 10.996875,53.5984442 11.0070703,53.8067072 L11.0763281,55.0739143 L11.1108984,55.7075179 C11.1326953,56.0099223 11.1108984,56.3139721 11.0460938,56.6101474 C10.755,57.9082649 9.63246094,58.8495618 8.30707031,58.9067988 C8.14828125,58.9146733 7.98914063,58.9089143 7.83128906,58.889757 L7.49390625,58.844508 L6.86707031,58.7547151 L4.35972656,58.3954263 L3.10605469,58.2158406 L2.45753906,58.1202888 C2.14183594,58.0685757 1.83679688,57.9650319 1.55460938,57.8136534 C0.98484375,57.5097211 0.530390625,57.0263207 0.2615625,56.4379661 C0,55.855488 -0.0676171875,55.2037849 0.0687890625,54.5795837 L0.56578125,52.0954721 L0.814335937,50.8534163 L0.95484375,50.1723307 C1.03582031,49.8584084 1.16882813,49.5602351 1.34824219,49.290504 C1.50644531,49.0620259 1.68890625,48.8514124 1.89257812,48.6624243 L2.34023438,48.2134602 L3.23554688,47.3155319 L17.5611328,32.9479741 L26.7535547,23.7286952 L28.1676563,25.1470458 Z" id="Shape" fill="#FFFFFF"></path>
                        <g fill="#428DFF" id="Shape">
                            <path d="M0.81421875,50.8534163 L0.565664063,52.0954721 L0.068671875,54.5795837 C-0.0676171875,55.2037849 0,55.8553705 0.2615625,56.4380837 C0.530507813,57.0264382 0.98484375,57.5098386 1.55460938,57.8137709 C1.83667969,57.9650319 2.14183594,58.0686932 2.45753906,58.1204064 L3.10605469,58.2158406 L4.35972656,58.3954263 L6.86707031,58.7547151 L7.49390625,58.844508 L7.83128906,58.889757 C7.98914063,58.9089143 8.14828125,58.9146733 8.30695313,58.9067988 C9.63234375,58.8495618 10.7548828,57.9082649 11.0459766,56.6101474 C11.1107813,56.3139721 11.1325781,56.0099223 11.1107813,55.7075179 L11.0762109,55.0739143 L11.0069531,53.8067072 C10.9967578,53.5985618 11.0539453,53.3926494 11.1698438,53.2196454 C11.2866797,53.0473466 11.4564844,52.9180637 11.6532422,52.8514243 C11.7495703,52.8165179 11.8515234,52.7997112 11.9539453,52.8018267 C12.0617578,52.7986534 12.346875,52.8213367 12.5346094,52.8297988 L13.7989453,52.9006693 C14.0475,52.9202968 14.296875,52.9271135 14.5461328,52.9211195 C14.8654688,52.8982012 15.1792969,52.8256853 15.4764844,52.7061574 C16.0713281,52.4605199 16.5701953,52.0273048 16.8976172,51.4719761 C17.2115625,50.9334542 17.3519531,50.3107809 17.2995703,49.6891653 L17.2289063,48.421253 C17.1945703,48.0773606 17.1846094,47.7314701 17.1990234,47.3862849 C17.2788281,46.9678785 17.6237109,46.6521932 18.0464063,46.6104701 C18.1041797,46.6054163 18.1621875,46.6044761 18.2199609,46.6074143 L18.5360156,46.6251614 L19.168125,46.6606554 L20.4556641,46.7296454 C21.2650781,46.7518586 22.0480078,46.4392291 22.6208203,45.8652131 C23.1936328,45.2911972 23.5058203,44.5062151 23.4842578,43.6943187 L23.4508594,43.0362689 L23.3801953,41.7683566 L23.3625,41.4513785 C23.3594531,41.3930837 23.3603906,41.3346713 23.3654297,41.276494 C23.3733984,41.174008 23.3991797,41.0736375 23.4418359,40.9800837 C23.5253906,40.7889801 23.6692969,40.6309024 23.8514063,40.5300618 C23.9410547,40.4804641 24.0378516,40.4453227 24.1383984,40.4260478 C24.2710547,40.4066554 24.4055859,40.4046574 24.5387109,40.4200538 L25.8022266,40.4878685 L28.3853906,40.6231454 C28.8110156,40.6217351 29.2251563,40.4843426 29.5676953,40.2309482 C29.6500781,40.1695976 29.7277734,40.102253 29.8003125,40.029502 L29.9122266,39.917261 L30.1360547,39.6927789 L31.0314844,38.7947331 L32.8222266,36.998759 L35.9251172,33.8868028 C42.0096094,36.3579861 48.9616406,35.2005518 53.9235938,30.890261 C54.0196875,30.8466574 54.1081641,30.7876574 54.185625,30.7157291 C54.2264063,30.6658964 54.2621484,30.6120677 54.2920313,30.5549482 C54.4846875,30.3779482 54.68625,30.2136414 54.8721094,30.0271215 C61.6960547,23.171251 61.69125,12.0669104 54.8613281,5.21703386 C48.0314063,-1.63284263 36.9592969,-1.63766135 30.1233984,5.20622112 C29.9374219,5.39262351 29.7737109,5.5947749 29.5971094,5.78799402 C29.5402734,5.81808167 29.4864844,5.85381076 29.4367969,5.89471116 C29.3649609,5.97228088 29.30625,6.06101594 29.2627734,6.15750797 C24.9651563,11.1339582 23.8110938,18.1063008 26.2749609,24.2085697 L23.925,26.5653964 C23.6723437,26.8187908 23.5736719,27.1880697 23.66625,27.5341952 C23.7587109,27.8803207 24.0282422,28.1506394 24.3733594,28.2433705 C24.7184766,28.3361016 25.0866797,28.2371414 25.3393359,27.983747 L27.1944141,26.123249 C28.7804297,29.002496 31.1450391,31.3738964 34.0157813,32.9645458 L28.3796484,38.6171454 L25.9051172,38.4845717 L24.6397266,38.416757 C24.3521484,38.3941912 24.0629297,38.4064143 23.7782813,38.4529562 C22.8179297,38.6308964 22.0072266,39.2731972 21.6124219,40.1691275 C21.4817578,40.4624821 21.4010156,40.7756992 21.3733594,41.0957331 C21.3604688,41.2484044 21.3576563,41.4018984 21.3650391,41.5549223 L21.3827344,41.8719004 L21.4533984,43.1398127 L21.4849219,43.7499104 C21.4875,43.8523964 21.4734375,43.9547649 21.4433203,44.0527849 C21.3160547,44.4589681 20.9370703,44.7324602 20.5126172,44.7245857 L19.2714844,44.6573586 L18.6392578,44.6218645 L18.3232031,44.6041175 C18.1702734,44.5967131 18.0171094,44.5996514 17.8645313,44.6126972 C16.5480469,44.737749 15.4735547,45.7227669 15.2312109,47.0265259 C15.1848047,47.3121235 15.1730859,47.6023048 15.1960547,47.8908406 L15.2314453,48.5247968 L15.3021094,49.7927092 C15.3117188,49.9201116 15.3063281,49.9668884 15.3079688,50.012255 C15.3053906,50.0636155 15.2984766,50.114741 15.2872266,50.1649263 C15.268125,50.266002 15.2305078,50.3626116 15.1764844,50.4499363 C15.0708984,50.6295219 14.91,50.7698526 14.7179297,50.8498904 C14.4548438,50.9369801 14.1735938,50.9533167 13.9021875,50.8973725 L12.6378516,50.826502 C12.4040625,50.8168645 12.268125,50.7980598 11.9539453,50.7958267 C11.6334375,50.7935936 11.3148047,50.846247 11.011875,50.9513187 C9.75902344,51.3759542 8.94082031,52.5846315 9.00949219,53.9091932 L9.07886719,55.1780458 L9.11355469,55.8124721 C9.12714844,55.9324701 9.12070313,56.0538785 9.09433594,56.1716434 C9.00082031,56.5848785 8.64328125,56.8843446 8.22117188,56.9026793 C8.16914063,56.9058526 8.116875,56.9042072 8.06519531,56.897508 L7.77515625,56.858488 L7.14855469,56.7686952 L4.64191406,56.4095239 L3.38859375,56.2300558 L2.784375,56.1414382 C2.68265625,56.1253367 2.58445313,56.0919582 2.49386719,56.0428307 C2.11019531,55.8413845 1.91683594,55.4001773 2.02828125,54.9803606 L2.52773438,52.4840259 L2.77746094,51.2358586 L2.89136719,50.673008 C2.9165625,50.5762809 2.9578125,50.48449 3.01335938,50.4015139 C3.05953125,50.3040817 3.49054688,49.9069482 3.75421875,49.6319283 L4.64964844,48.7338825 L18.9753516,34.3663247 L19.6824609,33.6571494 C20.0729297,33.2654223 20.0729297,32.6304084 19.6824609,32.2387988 C19.291875,31.8471892 18.6587109,31.8471892 18.2682422,32.2387988 L17.5611328,32.9479741 L3.23542969,47.3155319 L2.34011719,48.2134602 L1.89246094,48.6624243 C1.68890625,48.8514124 1.50644531,49.0620259 1.34824219,49.290504 C1.16882812,49.5603526 1.03582031,49.8584084 0.95484375,50.1723307 L0.81421875,50.8534163 Z M53.4578906,6.62445418 C59.4924609,12.6914641 59.5011328,22.5095578 53.4773437,28.5872629 L31.5589453,6.60494422 C37.6187109,0.562733068 47.4089062,0.571430279 53.4578906,6.62445418 Z M26.9974219,17.6169064 C26.9923828,14.1770418 28.1344922,10.834257 30.2419922,8.1203745 L51.9662109,29.9080637 C47.2920703,33.5348008 40.9675781,34.1781594 35.6623828,31.5666454 C30.3571875,28.9551315 26.9960156,23.5439382 26.9974219,17.6169064 Z"></path>
                            <path d="M21.8037891,31.1182689 C22.3559766,31.1128625 22.8023438,30.6651912 22.8077344,30.1113904 L22.7867578,29.9199343 C22.7742188,29.8534124 22.7527734,29.7888884 22.7232422,29.7281255 C22.7034375,29.6674801 22.6747266,29.6101255 22.6379297,29.5580598 C22.5991406,29.5032908 22.5567188,29.4512251 22.5108984,29.4023327 C22.3210547,29.2172231 22.0685156,29.1108586 21.8037891,29.104512 C21.4669922,29.0981653 21.1502344,29.2648227 20.9639063,29.5463068 C20.7775781,29.8277908 20.7475781,30.1853167 20.8842188,30.4940677 C20.9330859,30.6158287 21.0051563,30.7266594 21.0965625,30.8205657 C21.2866406,31.0053227 21.5391797,31.1115697 21.8037891,31.1182689 Z"></path>
                            <path d="M39.4080469,10.4299542 L49.6633594,20.7152291 C50.4349219,21.4869303 51.5680078,21.7687669 52.6096875,21.4480279 C53.6513672,21.1272888 54.4316016,20.2563924 54.6384375,19.1833446 C55.389375,15.3564542 54.1901953,11.4056873 51.4401563,8.64773108 C48.6902344,5.8897749 44.7510938,4.6869741 40.9352344,5.44010558 C39.8654297,5.64754582 38.9969531,6.43005976 38.6771484,7.47478287 C38.3575781,8.51974104 38.6385938,9.65613745 39.4080469,10.4299542 Z M40.5876563,8.06960159 C40.6880859,7.72888247 40.9707422,7.47349004 41.3191406,7.40896614 C44.4816797,6.78370717 47.746875,7.78024303 50.0261719,10.0661992 C52.3054688,12.3521554 53.2989844,15.6268904 52.6755469,18.7986693 C52.6112109,19.1480857 52.3565625,19.4315677 52.0168359,19.5322908 C51.6846094,19.639008 51.3207422,19.5479223 51.0773438,19.2972311 L40.8220313,9.01183865 C40.5720703,8.76772908 40.48125,8.4027988 40.5876563,8.06960159 Z"></path>
                            <path d="M26.7332813,32.092239 L27.4197656,31.403749 C27.8102344,31.0121394 27.8102344,30.3771255 27.4197656,29.9855159 C27.0292969,29.5939064 26.3961328,29.5939064 26.0056641,29.9855159 L25.3191797,30.674006 C25.0666406,30.9272829 24.9679688,31.2965618 25.0604297,31.6426873 C25.1528906,31.9888127 25.4224219,32.2590139 25.7674219,32.351745 C26.1124219,32.4444761 26.480625,32.3455159 26.7332813,32.092239 Z"></path>
                            <path d="M5.41640625,52.0531614 C5.60390625,52.2413267 5.85820313,52.3469861 6.12339844,52.3469861 C6.38859375,52.3469861 6.64289062,52.2413267 6.83039062,52.0531614 L23.9880469,34.8453765 C24.2407031,34.5919821 24.3392578,34.2228207 24.2467969,33.8766952 C24.1543359,33.5306873 23.8848047,33.2603685 23.5398047,33.1676375 C23.1948047,33.0749064 22.8266016,33.1738665 22.5739453,33.4271434 L5.41640625,50.6349283 C5.22878906,50.8229761 5.1234375,51.0780159 5.1234375,51.3439861 C5.1234375,51.6099562 5.22878906,51.8651135 5.41640625,52.0531614 Z"></path>
                        </g>
                    </g>
                </g>
            </g>
        </g>
    </g>
</svg>