<?xml version="1.0" encoding="UTF-8"?>
<svg width="25px" height="25px" viewBox="0 0 25 25" version="1.1" xmlns="http://www.w3.org/2000/svg" xmlns:xlink="http://www.w3.org/1999/xlink">
    <!-- Generator: Sketch 50.2 (55047) - http://www.bohemiancoding.com/sketch -->
    <title>no</title>
    <desc>Created with Sketch.</desc>
    <defs></defs>
    <g id="Page-1" stroke="none" stroke-width="1" fill="none" fill-rule="evenodd">
        <g id="Artboard" transform="translate(-537.000000, -105.000000)">
            <g id="no" transform="translate(537.000000, 105.000000)">
                <g>
                    <circle id="Oval" fill="#A4C2F7" fill-rule="nonzero" cx="12.5" cy="12.0192383" r="12.0192383"></circle>
                    <ellipse id="Oval" fill="#E3E7F2" fill-rule="nonzero" cx="12.5" cy="12.0192383" rx="10.5769043" ry="12.0192383"></ellipse>
                    <path d="M1.9230957,12.0192383 C1.9230957,5.38120117 6.65854492,0 12.5,0 C5.86196289,0 0.480761719,5.38120117 0.480761719,12.0192383 C0.480761719,18.6572754 5.86196289,24.0384766 12.5,24.0384766 C6.65854492,24.0384766 1.9230957,18.6572754 1.9230957,12.0192383 Z" id="Shape" fill="#FFFFFF" fill-rule="nonzero"></path>
                    <g id="Group" fill="#428DFF" fill-rule="nonzero">
                        <path d="M12.5,25 C5.59643555,25 0,19.4035645 0,12.5 C0,5.59643555 5.59643555,0 12.5,0 C19.4035645,0 25,5.59643555 25,12.5 C24.9922852,19.4003418 19.4003418,24.9922852 12.5,25 Z M12.5,0.961523438 C6.12749023,0.961523438 0.961523438,6.12749023 0.961523438,12.5 C0.961523438,18.8725098 6.12749023,24.0384766 12.5,24.0384766 C18.8725098,24.0384766 24.0384766,18.8725098 24.0384766,12.5 C24.0311523,6.13051758 18.8694824,0.968847656 12.5,0.961523438 Z" id="Shape"></path>
                        <path d="M8.1730957,17.3077148 C7.97866211,17.307666 7.80341797,17.1905273 7.72900391,17.0109375 C7.65458984,16.8312988 7.69570312,16.6245605 7.8331543,16.4870605 L16.4870117,7.83320312 C16.6080566,7.70991211 16.7859863,7.66108398 16.9530273,7.70532227 C17.1200684,7.74956055 17.2504883,7.87998047 17.2947266,8.04702148 C17.3389648,8.2140625 17.2901367,8.39194336 17.1668457,8.51303711 L8.51298828,17.1668457 C8.42294922,17.2571289 8.30058594,17.3078613 8.1730957,17.3077148 Z" id="Shape"></path>
                        <path d="M16.8269043,17.3077148 C16.6993652,17.3078613 16.5770508,17.2571777 16.4870117,17.1668457 L7.8331543,8.51298828 C7.64833984,8.32475586 7.64970703,8.02275391 7.83623047,7.83623047 C8.02275391,7.64970703 8.32475586,7.64833984 8.51298828,7.8331543 L17.1668457,16.4870117 C17.3042969,16.6245117 17.3454102,16.83125 17.2709961,17.0108887 C17.196582,17.1905273 17.0213379,17.307666 16.8269043,17.3077148 Z" id="Shape"></path>
                    </g>
                </g>
            </g>
        </g>
    </g>
</svg>