<?xml version="1.0" encoding="UTF-8"?>
<svg width="61px" height="73px" viewBox="0 0 61 73" version="1.1" xmlns="http://www.w3.org/2000/svg" xmlns:xlink="http://www.w3.org/1999/xlink">
    <!-- Generator: Sketch 50.2 (55047) - http://www.bohemiancoding.com/sketch -->
    <title>padlock</title>
    <desc>Created with Sketch.</desc>
    <defs>
        <linearGradient x1="7.84550354%" y1="2.58133163%" x2="92.1555776%" y2="97.4314567%" id="linearGradient-1">
            <stop stop-color="#D4E1F4" offset="0%"></stop>
            <stop stop-color="#D4E1F4" offset="17.17%"></stop>
            <stop stop-color="#D4E1F4" offset="20%"></stop>
            <stop stop-color="#DAE4F4" offset="20.01%"></stop>
            <stop stop-color="#EBEBF4" offset="20.07%"></stop>
            <stop stop-color="#F6F1F4" offset="20.14%"></stop>
            <stop stop-color="#FDF4F4" offset="20.23%"></stop>
            <stop stop-color="#FFF5F4" offset="20.5%"></stop>
            <stop stop-color="#FFF5F4" offset="25.22%"></stop>
            <stop stop-color="#FFF5F4" offset="26%"></stop>
            <stop stop-color="#D4E1F4" offset="26%"></stop>
            <stop stop-color="#D4E1F4" offset="39.74%"></stop>
            <stop stop-color="#D4E1F4" offset="42%"></stop>
            <stop stop-color="#DAE4F4" offset="42.01%"></stop>
            <stop stop-color="#EBEBF4" offset="42.07%"></stop>
            <stop stop-color="#F6F1F4" offset="42.14%"></stop>
            <stop stop-color="#FDF4F4" offset="42.23%"></stop>
            <stop stop-color="#FFF5F4" offset="42.5%"></stop>
            <stop stop-color="#FFF5F4" offset="48.94%"></stop>
            <stop stop-color="#FFF5F4" offset="50%"></stop>
            <stop stop-color="#F9F2F4" offset="50%"></stop>
            <stop stop-color="#E8EBF4" offset="50.01%"></stop>
            <stop stop-color="#DDE5F4" offset="50.03%"></stop>
            <stop stop-color="#D6E2F4" offset="50.05%"></stop>
            <stop stop-color="#D4E1F4" offset="50.1%"></stop>
            <stop stop-color="#D4E1F4" offset="70.62%"></stop>
            <stop stop-color="#D4E1F4" offset="74%"></stop>
            <stop stop-color="#FFF5F4" offset="74.1%"></stop>
            <stop stop-color="#FFF5F4" offset="83.46%"></stop>
            <stop stop-color="#FFF5F4" offset="85%"></stop>
            <stop stop-color="#D4E1F4" offset="85.1%"></stop>
        </linearGradient>
    </defs>
    <g id="Page-1" stroke="none" stroke-width="1" fill="none" fill-rule="evenodd">
        <g id="Artboard" transform="translate(-259.000000, -1.000000)">
            <g id="padlock" transform="translate(259.500000, 1.000000)">
                <g>
                    <path d="M9.89698565,28.388873 L27.2793301,28.388873 C31.9613397,28.388873 35.7568421,32.1589238 35.7568421,36.8095371 L35.7568421,63.2274102 C35.7568421,67.8780234 31.9613397,71.6480742 27.2793301,71.6480742 L9.89698565,71.6480742 C5.21497608,71.6480742 1.41947368,67.8780234 1.41947368,63.2274102 L1.41947368,36.8095371 C1.41947368,32.1589238 5.21497608,28.388873 9.89698565,28.388873 Z" id="Shape" fill="#FFFFFF" fill-rule="nonzero"></path>
                    <path d="M32.7219617,28.388873 L50.1043062,28.388873 C54.7863158,28.388873 58.5818182,32.1589238 58.5818182,36.8095371 L58.5818182,63.2274102 C58.5818182,67.8780234 54.7863158,71.6480742 50.1043062,71.6480742 L32.7219617,71.6480742 C28.0399522,71.6480742 24.2444498,67.8780234 24.2444498,63.2274102 L24.2444498,36.8095371 C24.2444498,32.1589238 28.0399522,28.388873 32.7219617,28.388873 Z" id="Shape" fill="#A4C2F7" fill-rule="nonzero"></path>
                    <path d="M13.9798565,28.388873 L46.02,28.388873 C50.7020096,28.388873 54.497512,32.1589238 54.497512,36.8095371 L54.497512,63.2274102 C54.497512,67.8780234 50.7020096,71.6480742 46.02,71.6480742 L13.9798565,71.6480742 C9.29784689,71.6480742 5.5023445,67.8780234 5.5023445,63.2274102 L5.5023445,36.8095371 C5.5023445,32.1589238 9.29784689,28.388873 13.9798565,28.388873 Z" id="Shape" fill="url(#linearGradient-1)" fill-rule="nonzero"></path>
                    <path d="M30,39.203709 C32.2548804,39.203709 34.0828708,41.0194414 34.0828708,43.2592012 L34.0828708,51.3703281 C34.0828708,53.6100879 32.2548804,55.4258203 30,55.4258203 C27.7451196,55.4258203 25.9171292,53.6100879 25.9171292,51.3703281 L25.9171292,43.2592012 C25.9171292,41.0194414 27.7451196,39.203709 30,39.203709 Z" id="Shape" fill="#7FACFA" fill-rule="nonzero"></path>
                    <path d="M27.3644498,39.4808809 C27.1278947,39.9124648 26.6666986,40.1748086 26.172201,40.159125 C26.0856459,40.15 26.0002392,40.132748 25.9169856,40.1076543 L25.9169856,53.8960996 C25.9482775,53.8943887 25.9696651,53.8789902 26.0019617,53.8789902 C26.7320096,53.8576035 27.3470813,54.4162246 27.3910048,55.1403789 C28.9580383,54.5357051 29.9929665,53.0402031 29.9998565,51.3703281 L29.9998565,43.2592012 C29.9926794,41.5796309 28.9451196,40.0777129 27.3644498,39.4808809 Z" id="Shape" fill="#A4C2F7" fill-rule="nonzero"></path>
                    <g id="Group" fill="#428DFF" fill-rule="nonzero">
                        <path d="M50.1030144,73 L9.89698565,73 C4.4661244,72.9937266 0.0651674641,68.6224238 0.0584210526,63.228123 L0.0584210526,36.81025 C0.0644497608,31.4153789 4.46569378,27.0435059 9.89698565,27.0370898 L50.1030144,27.0370898 C55.5343062,27.0435059 59.9354067,31.4155215 59.9415789,36.81025 L59.9415789,63.228123 C59.9348325,68.6224238 55.5337321,72.9937266 50.1030144,73 Z M9.89698565,29.7407988 C5.96827751,29.7452187 2.78454545,32.9078867 2.78038278,36.81025 L2.78038278,63.228123 C2.78511962,67.1300586 5.96870813,70.2920137 9.89698565,70.296291 L50.1030144,70.296291 C54.0312919,70.2920137 57.2148804,67.1300586 57.2196172,63.228123 L57.2196172,36.81025 C57.2154545,32.9078867 54.031866,29.7452187 50.1030144,29.7407988 L9.89698565,29.7407988 Z" id="Shape"></path>
                        <path d="M50.4146411,29.7407988 L9.58535885,29.7407988 C9.22435407,29.7409414 8.87813397,29.5985059 8.62291866,29.345002 C8.36770335,29.091498 8.22430622,28.7475996 8.22444976,28.3890156 L8.22444976,19.6019258 C8.22430622,8.79364844 17.99311,0 30,0 C42.00689,0 51.7756938,8.79364844 51.7756938,19.6017832 L51.7756938,28.388873 C51.7758373,28.747457 51.6324402,29.0913555 51.3772249,29.3448594 C51.121866,29.5985059 50.7756459,29.7407988 50.4146411,29.7407988 Z M10.9462679,27.0370898 L49.0537321,27.0370898 L49.0537321,19.6019258 C49.0537321,10.2841602 40.5064593,2.70370898 30,2.70370898 C19.4935407,2.70370898 10.9462679,10.2841602 10.9462679,19.6017832 L10.9462679,27.0370898 Z" id="Shape"></path>
                        <path d="M30,56.7777461 C26.994689,56.7746094 24.5592344,54.3554863 24.5560766,51.3703281 L24.5560766,43.2592012 C24.5560766,40.2727598 26.9933971,37.8517832 30,37.8517832 C33.0066029,37.8517832 35.4439234,40.2727598 35.4439234,43.2592012 L35.4439234,51.3703281 C35.4407656,54.3554863 33.005311,56.7746094 30,56.7777461 Z M30,40.5554922 C28.4974163,40.5572031 27.2797608,41.7666934 27.2780383,43.2592012 L27.2780383,51.3703281 C27.2780383,52.8635488 28.4966986,54.0740371 30,54.0740371 C31.5033014,54.0740371 32.7219617,52.8635488 32.7219617,51.3703281 L32.7219617,43.2592012 C32.7202392,41.7666934 31.5025837,40.5572031 30,40.5554922 Z" id="Shape"></path>
                    </g>
                </g>
            </g>
        </g>
    </g>
</svg>