<?xml version="1.0" encoding="UTF-8"?>
<svg width="105px" height="128px" viewBox="0 0 105 128" version="1.1" xmlns="http://www.w3.org/2000/svg" xmlns:xlink="http://www.w3.org/1999/xlink">
    <!-- Generator: Sketch 50.2 (55047) - http://www.bohemiancoding.com/sketch -->
    <title>padlock</title>
    <desc>Created with Sketch.</desc>
    <defs>
        <linearGradient x1="7.84550354%" y1="2.58133163%" x2="92.1555776%" y2="97.4314567%" id="linearGradient-1">
            <stop stop-color="#D4E1F4" offset="0%"></stop>
            <stop stop-color="#D4E1F4" offset="17.17%"></stop>
            <stop stop-color="#D4E1F4" offset="20%"></stop>
            <stop stop-color="#DAE4F4" offset="20.01%"></stop>
            <stop stop-color="#EBEBF4" offset="20.07%"></stop>
            <stop stop-color="#F6F1F4" offset="20.14%"></stop>
            <stop stop-color="#FDF4F4" offset="20.23%"></stop>
            <stop stop-color="#FFF5F4" offset="20.5%"></stop>
            <stop stop-color="#FFF5F4" offset="25.22%"></stop>
            <stop stop-color="#FFF5F4" offset="26%"></stop>
            <stop stop-color="#D4E1F4" offset="26%"></stop>
            <stop stop-color="#D4E1F4" offset="39.74%"></stop>
            <stop stop-color="#D4E1F4" offset="42%"></stop>
            <stop stop-color="#DAE4F4" offset="42.01%"></stop>
            <stop stop-color="#EBEBF4" offset="42.07%"></stop>
            <stop stop-color="#F6F1F4" offset="42.14%"></stop>
            <stop stop-color="#FDF4F4" offset="42.23%"></stop>
            <stop stop-color="#FFF5F4" offset="42.5%"></stop>
            <stop stop-color="#FFF5F4" offset="48.94%"></stop>
            <stop stop-color="#FFF5F4" offset="50%"></stop>
            <stop stop-color="#F9F2F4" offset="50%"></stop>
            <stop stop-color="#E8EBF4" offset="50.01%"></stop>
            <stop stop-color="#DDE5F4" offset="50.03%"></stop>
            <stop stop-color="#D6E2F4" offset="50.05%"></stop>
            <stop stop-color="#D4E1F4" offset="50.1%"></stop>
            <stop stop-color="#D4E1F4" offset="70.62%"></stop>
            <stop stop-color="#D4E1F4" offset="74%"></stop>
            <stop stop-color="#FFF5F4" offset="74.1%"></stop>
            <stop stop-color="#FFF5F4" offset="83.46%"></stop>
            <stop stop-color="#FFF5F4" offset="85%"></stop>
            <stop stop-color="#D4E1F4" offset="85.1%"></stop>
        </linearGradient>
    </defs>
    <g id="Page-1" stroke="none" stroke-width="1" fill="none" fill-rule="evenodd">
        <g id="Artboard" transform="translate(-1544.000000, -1.000000)">
            <g id="padlock" transform="translate(1544.000000, 1.000000)">
                <g>
                    <path d="M17.3197249,49.77775 L47.7388278,49.77775 C55.9323445,49.77775 62.5744737,56.38825 62.5744737,64.54275 L62.5744737,110.8645 C62.5744737,119.019 55.9323445,125.6295 47.7388278,125.6295 L17.3197249,125.6295 C9.12620813,125.6295 2.48407895,119.019 2.48407895,110.8645 L2.48407895,64.54275 C2.48407895,56.38825 9.12620813,49.77775 17.3197249,49.77775 Z" id="Shape" fill="#FFFFFF" fill-rule="nonzero"></path>
                    <path d="M57.263433,49.77775 L87.6825359,49.77775 C95.8760526,49.77775 102.518182,56.38825 102.518182,64.54275 L102.518182,110.8645 C102.518182,119.019 95.8760526,125.6295 87.6825359,125.6295 L57.263433,125.6295 C49.0699163,125.6295 42.4277871,119.019 42.4277871,110.8645 L42.4277871,64.54275 C42.4277871,56.38825 49.0699163,49.77775 57.263433,49.77775 Z" id="Shape" fill="#A4C2F7" fill-rule="nonzero"></path>
                    <path d="M24.4647488,49.77775 L80.535,49.77775 C88.7285167,49.77775 95.3706459,56.38825 95.3706459,64.54275 L95.3706459,110.8645 C95.3706459,119.019 88.7285167,125.6295 80.535,125.6295 L24.4647488,125.6295 C16.2712321,125.6295 9.62910287,119.019 9.62910287,110.8645 L9.62910287,64.54275 C9.62910287,56.38825 16.2712321,49.77775 24.4647488,49.77775 Z" id="Shape" fill="url(#linearGradient-1)" fill-rule="nonzero"></path>
                    <path d="M52.5,68.74075 C56.4460407,68.74075 59.6450239,71.9245 59.6450239,75.85175 L59.6450239,90.074 C59.6450239,94.00125 56.4460407,97.185 52.5,97.185 C48.5539593,97.185 45.3549761,94.00125 45.3549761,90.074 L45.3549761,75.85175 C45.3549761,71.9245 48.5539593,68.74075 52.5,68.74075 Z" id="Shape" fill="#7FACFA" fill-rule="nonzero"></path>
                    <path d="M47.8877871,69.22675 C47.4738158,69.9835 46.6667225,70.4435 45.8013517,70.416 C45.6498804,70.4 45.5004187,70.36975 45.3547249,70.32575 L45.3547249,94.50275 C45.4094856,94.49975 45.4469139,94.47275 45.503433,94.47275 C46.7810167,94.43525 47.8573923,95.41475 47.9342584,96.6845 C50.676567,95.62425 52.4876914,93.002 52.4997488,90.074 L52.4997488,75.85175 C52.487189,72.90675 50.6539593,70.27325 47.8877871,69.22675 Z" id="Shape" fill="#A4C2F7" fill-rule="nonzero"></path>
                    <g id="Group" fill="#428DFF" fill-rule="nonzero">
                        <path d="M87.6802751,128 L17.3197249,128 C7.8157177,127.989 0.114043062,120.32425 0.102236842,110.86575 L0.102236842,64.544 C0.112787081,55.0845 7.81496411,47.41875 17.3197249,47.4075 L87.6802751,47.4075 C97.1850359,47.41875 104.886962,55.08475 104.897763,64.544 L104.897763,110.86575 C104.885957,120.32425 97.1840311,127.989 87.6802751,128 Z M17.3197249,52.14825 C10.4444856,52.156 4.87295455,57.7015 4.86566986,64.544 L4.86566986,110.86575 C4.87395933,117.7075 10.4452392,123.25175 17.3197249,123.25925 L87.6802751,123.25925 C94.5547608,123.25175 100.126041,117.7075 100.13433,110.86575 L100.13433,64.544 C100.127045,57.7015 94.5557656,52.156 87.6802751,52.14825 L17.3197249,52.14825 Z" id="Shape"></path>
                        <path d="M88.225622,52.14825 L16.774378,52.14825 C16.1426196,52.1485 15.5367344,51.89875 15.0901077,51.45425 C14.6434809,51.00975 14.3925359,50.40675 14.3927871,49.778 L14.3927871,34.3705 C14.3925359,15.419 31.4879426,0 52.5,0 C73.5120574,0 90.6074641,15.419 90.6074641,34.37025 L90.6074641,49.77775 C90.6077153,50.4065 90.3567703,51.0095 89.9101435,51.454 C89.4632656,51.89875 88.8573804,52.14825 88.225622,52.14825 Z M19.1559689,47.4075 L85.8440311,47.4075 L85.8440311,34.3705 C85.8440311,18.0325 70.8863038,4.74075 52.5,4.74075 C34.1136962,4.74075 19.1559689,18.0325 19.1559689,34.37025 L19.1559689,47.4075 Z" id="Shape"></path>
                        <path d="M52.5,99.5555 C47.2407057,99.55 42.9786603,95.30825 42.973134,90.074 L42.973134,75.85175 C42.973134,70.61525 47.238445,66.37025 52.5,66.37025 C57.761555,66.37025 62.026866,70.61525 62.026866,75.85175 L62.026866,90.074 C62.0213397,95.30825 57.7592943,99.55 52.5,99.5555 Z M52.5,71.111 C49.8704785,71.114 47.7395813,73.23475 47.736567,75.85175 L47.736567,90.074 C47.736567,92.69225 49.8692225,94.81475 52.5,94.81475 C55.1307775,94.81475 57.263433,92.69225 57.263433,90.074 L57.263433,75.85175 C57.2604187,73.23475 55.1295215,71.114 52.5,71.111 Z" id="Shape"></path>
                    </g>
                </g>
            </g>
        </g>
    </g>
</svg>