<?xml version="1.0" encoding="UTF-8"?>
<svg width="61px" height="58px" viewBox="0 0 61 58" version="1.1" xmlns="http://www.w3.org/2000/svg" xmlns:xlink="http://www.w3.org/1999/xlink">
    <!-- Generator: Sketch 50.2 (55047) - http://www.bohemiancoding.com/sketch -->
    <title>protected-profile</title>
    <desc>Created with Sketch.</desc>
    <defs>
        <linearGradient x1="10.4523861%" y1="-10.2010148%" x2="89.5424473%" y2="116.788985%" id="linearGradient-1">
            <stop stop-color="#D3DFF2" offset="0%"></stop>
            <stop stop-color="#D3DFF2" offset="17.2%"></stop>
            <stop stop-color="#D3DFF2" offset="20%"></stop>
            <stop stop-color="#DAE2F2" offset="20%"></stop>
            <stop stop-color="#EBEAF2" offset="20.1%"></stop>
            <stop stop-color="#F6EFF2" offset="20.1%"></stop>
            <stop stop-color="#FDF2F2" offset="20.2%"></stop>
            <stop stop-color="#FFF3F2" offset="20.5%"></stop>
            <stop stop-color="#FFF3F2" offset="25.2%"></stop>
            <stop stop-color="#FFF3F2" offset="26%"></stop>
            <stop stop-color="#D3DFF2" offset="26%"></stop>
            <stop stop-color="#D3DFF2" offset="39.7%"></stop>
            <stop stop-color="#D3DFF2" offset="42%"></stop>
            <stop stop-color="#DAE2F2" offset="42%"></stop>
            <stop stop-color="#EBEAF2" offset="42.1%"></stop>
            <stop stop-color="#F6EFF2" offset="42.1%"></stop>
            <stop stop-color="#FDF2F2" offset="42.2%"></stop>
            <stop stop-color="#FFF3F2" offset="42.5%"></stop>
            <stop stop-color="#FFF3F2" offset="48.9%"></stop>
            <stop stop-color="#FFF3F2" offset="50%"></stop>
            <stop stop-color="#F8F0F2" offset="50%"></stop>
            <stop stop-color="#E7E8F2" offset="50%"></stop>
            <stop stop-color="#DCE3F2" offset="50%"></stop>
            <stop stop-color="#D5E0F2" offset="50%"></stop>
            <stop stop-color="#D3DFF2" offset="50.1%"></stop>
            <stop stop-color="#D3DFF2" offset="70.6%"></stop>
            <stop stop-color="#D3DFF2" offset="74%"></stop>
            <stop stop-color="#FFF3F2" offset="74.1%"></stop>
            <stop stop-color="#FFF3F2" offset="83.5%"></stop>
            <stop stop-color="#FFF3F2" offset="85%"></stop>
            <stop stop-color="#D3DFF2" offset="85.1%"></stop>
        </linearGradient>
    </defs>
    <g id="Page-1" stroke="none" stroke-width="1" fill="none" fill-rule="evenodd">
        <g id="Artboard" transform="translate(-389.000000, -8.000000)">
            <g id="protected-profile" transform="translate(389.250000, 8.000000)">
                <g id="Group">
                    <g transform="translate(0.937500, 1.052419)" fill-rule="nonzero">
                        <rect id="Rectangle-path" fill="#7FABFA" x="21.0625781" y="43.0348306" width="15.9999609" height="6.98490726"></rect>
                        <rect id="Rectangle-path" fill="#A4C2F7" x="21.0625781" y="43.0348306" width="12.9999609" height="6.98490726"></rect>
                        <path d="M58.0625391,4.11870161 L58.0630238,36.0499234 L0.0620999239,36.0499234 L0.062578125,4.11870161 C0.0460546875,3.04406452 0.458320312,2.00696371 1.20855469,1.23577419 C1.95878906,0.464584677 2.98558594,0.0228024194 4.06253906,0.00760080645 L54.0625781,0.00760080645 C55.1395312,0.0228024194 56.1663281,0.464701613 56.9165625,1.23577419 C57.6667969,2.00684677 58.0791797,3.04406452 58.0625391,4.11870161 Z" id="Shape" fill="url(#linearGradient-1)"></path>
                        <path d="M58.0625391,35.051996 L58.0625391,39.0433548 C58.0625391,41.2477056 56.2716797,43.0347137 54.0625781,43.0347137 L4.06253906,43.0347137 C1.8534375,43.0347137 0.062578125,41.2477056 0.062578125,39.0433548 L0.062578125,35.051996 L58.0625391,35.051996 Z" id="Shape" fill="#7FABFA"></path>
                        <path d="M55.0625391,35.051996 L55.0625391,39.0433548 C55.0625391,41.2477056 53.2716797,43.0347137 51.0625781,43.0347137 L4.06253906,43.0347137 C1.8534375,43.0347137 0.062578125,41.2477056 0.062578125,39.0433548 L0.062578125,35.051996 L55.0625391,35.051996 Z" id="Shape" fill="#A4C2F7"></path>
                        <path d="M45.0625781,52.0154758 L45.0625781,54.0112137 L13.0625391,54.0112137 L13.0625391,52.0154758 C13.0658203,50.9146452 13.959375,50.0230121 15.0625781,50.0197379 L43.0625391,50.0197379 C44.1657422,50.0230121 45.0592969,50.9146452 45.0625781,52.0154758 Z" id="Shape" fill="#7FABFA"></path>
                        <g transform="translate(5.039062, 4.092742)" fill="#A4C2F7" id="Shape">
                            <path d="M37.0235156,47.9227339 L37.0235156,49.9184718 L8.02347656,49.9184718 L8.02347656,47.9227339 C8.02675781,46.8219032 8.9203125,45.9302702 10.0235156,45.926996 L35.0234766,45.926996 C36.1266797,45.9302702 37.0202344,46.8219032 37.0235156,47.9227339 Z"></path>
                            <path d="M16.0235156,8.00879435 C16.0235156,12.4176129 12.4417969,15.991629 8.02347656,15.991629 C7.52027344,15.9910444 7.018125,15.9442702 6.52347656,15.8518911 C2.74710938,15.1375323 0.01359375,11.8441613 0.01359375,8.00879435 C0.01359375,4.17342742 2.74710938,0.880056452 6.52347656,0.165697581 C7.018125,0.0733185484 7.52027344,0.0265443548 8.02347656,0.0259596774 C12.4417969,0.0259596774 16.0235156,3.59997581 16.0235156,8.00879435 Z"></path>
                        </g>
                        <path d="M18.0625781,12.1015363 C18.0683203,15.9322258 15.3432422,19.2254798 11.5726172,19.9446331 L11.5626563,19.9446331 C11.3726953,19.9047581 11.1926953,19.8647661 11.0126953,19.8149516 C10.7949609,19.7636169 10.5810938,19.6968468 10.3727344,19.6153427 C10.1627344,19.5455323 9.95273438,19.4557258 9.75269531,19.3659194 C9.55265625,19.2761129 9.37265625,19.1863065 9.18269531,19.076504 C9.16769531,19.0740484 9.15375,19.0670323 9.14273438,19.0565081 C9.01277344,18.9866976 8.88269531,18.9068306 8.76269531,18.8269637 C8.68265625,18.7770323 8.60273438,18.7272177 8.52269531,18.6673468 C8.40269531,18.5874798 8.29265625,18.5077298 8.18273438,18.4179234 C8.14371094,18.3946532 8.10691406,18.367875 8.07269531,18.3380565 C5.63144531,16.3933024 4.5478125,13.2085645 5.2978125,10.182625 C6.0478125,7.15668548 8.49433594,4.84323387 11.5626563,4.25832258 C15.3350391,4.97700806 18.0635156,8.26920968 18.0625781,12.1015363 Z" id="Shape" fill="#E3E7F2"></path>
                        <g transform="translate(3.984375, 8.068548)" fill="#F5F5F5">
                            <ellipse id="Oval" cx="9.07816406" cy="3.03506048" rx="3" ry="2.99354839"></ellipse>
                            <path d="M1.078125,19.9985403 L9.07816406,19.9985403 C9.63046875,19.9985403 10.078125,20.4452339 10.078125,20.9963508 L10.078125,26.9834476 L0.0781640625,26.9834476 L0.0781640625,20.9963508 C0.0781640625,20.4452339 0.5259375,19.9985403 1.078125,19.9985403 Z" id="Shape"></path>
                            <path d="M15.0781641,19.9985403 L23.0782031,19.9985403 C23.6305078,19.9985403 24.0781641,20.4452339 24.0781641,20.9963508 L24.0781641,26.9834476 L14.0782031,26.9834476 L14.0782031,20.9963508 C14.0782031,20.4452339 14.5258594,19.9985403 15.0781641,19.9985403 Z" id="Shape"></path>
                        </g>
                        <path d="M18.0625781,18.0886331 C18.0642187,18.1718911 18.0609375,18.2552661 18.0526172,18.3380565 C16.6362891,19.4687056 14.8763672,20.0846048 13.0626562,20.084254 C12.5627344,20.0836694 12.0639844,20.0368952 11.5726172,19.9445161 C14.0978906,19.4565444 16.2359766,17.7905645 17.3226562,15.4641331 C17.8086328,16.2535645 18.0648047,17.1622702 18.0625781,18.0886331 Z" id="Shape" fill="#E3E7F2"></path>
                        <path d="M17.3225391,15.46425 C16.2358594,17.7906815 14.0978906,19.4565444 11.5725,19.9446331 C11.3825391,19.9047581 11.1924609,19.8647661 11.0124609,19.8149516 C10.7947266,19.7636169 10.5808594,19.6968468 10.3725,19.6153427 C10.1625,19.5455323 9.9525,19.4557258 9.75246094,19.3659194 C9.55242188,19.2761129 9.37242188,19.1863065 9.18246094,19.076504 C9.16746094,19.0740484 9.15351563,19.0670323 9.1425,19.0565081 C9.01253906,18.9866976 8.88246094,18.9068306 8.76246094,18.8269637 C8.68242188,18.7770323 8.6025,18.7272177 8.52246094,18.6673468 C8.40246094,18.5874798 8.29242188,18.5077298 8.1825,18.4179234 C8.14347656,18.3946532 8.10667969,18.367875 8.07246094,18.3380565 C8.06414063,18.2551492 8.06074219,18.1718911 8.0625,18.0886331 C8.06824219,16.0493952 9.30902344,14.2158468 11.2025391,13.4486331 L11.2125,13.4486331 C12.2936719,14.313371 13.8314063,14.313371 14.9124609,13.4486331 L14.9224219,13.4486331 C15.9113672,13.8579073 16.7496094,14.5618589 17.3225391,15.46425 Z" id="Shape" fill="#F5F5F5"></path>
                        <path d="M58.0625391,21.96025 L58.0625391,34.7427016 C58.0625391,34.7427016 58.0625391,47.964246 44.0625,55.8870927 C43.5425391,55.5976774 43.0425,55.2883831 42.5625,54.9790887 C30.0625781,46.996254 30.0625781,34.7427016 30.0625781,34.7427016 L30.0625781,21.96025 C30.0658594,20.8594194 30.9594141,19.9677863 32.0626172,19.9645121 L56.0626172,19.9645121 C57.1657031,19.9677863 58.0592578,20.8594194 58.0625391,21.96025 Z" id="Shape" fill="#A4C2F7"></path>
                        <path d="M55.0625391,21.96025 L55.0625391,34.7427016 C55.0625391,34.7427016 55.0625391,46.996254 42.5625,54.9790887 C30.0625781,46.996254 30.0625781,34.7427016 30.0625781,34.7427016 L30.0625781,21.96025 C30.0658594,20.8594194 30.9594141,19.9677863 32.0626172,19.9645121 L53.0626172,19.9645121 C54.1658203,19.9677863 55.0592578,20.8594194 55.0625391,21.96025 Z" id="Shape" fill="#E3E7F2"></path>
                        <path d="M54.0625781,23.9559879 L54.0625781,34.7427016 C54.0526172,35.1418024 53.7925781,44.5714798 44.0626172,51.1872218 C43.5292969,50.827996 43.0292578,50.4588306 42.5626172,50.0796089 C34.1725781,43.4738065 34.0626562,34.8424476 34.0626562,34.7427016 L34.0626562,23.9559879 L54.0625781,23.9559879 Z" id="Shape" fill="#A4C2F7"></path>
                        <path d="M51.0625781,23.9559879 L51.0625781,34.7427016 C51.0526172,35.1219234 50.8225781,43.5736694 42.5626172,50.0796089 C34.1725781,43.4738065 34.0626562,34.8424476 34.0626562,34.7427016 L34.0626562,23.9559879 L51.0625781,23.9559879 Z" id="Shape" fill="#E3E7F2"></path>
                        <g fill="#FFFFFF">
                            <path d="M4.06253906,43.0348306 L7.06253906,43.0348306 C4.8534375,43.0348306 3.06257813,41.2478226 3.06257813,39.0434718 L3.06257813,4.11870161 C3.04605469,3.04406452 3.45832031,2.00696371 4.20855469,1.23577419 C4.95878906,0.464584677 5.98558594,0.0228024194 7.06253906,0.00760080645 L4.06253906,0.00760080645 C2.98558594,0.0228024194 1.95878906,0.464701613 1.20855469,1.23577419 C0.458320313,2.00684677 0.0460546875,3.04406452 0.062578125,4.11870161 L0.062578125,39.0434718 C0.062578125,41.2478226 1.8534375,43.0348306 4.06253906,43.0348306 Z" id="Shape"></path>
                            <path d="M16.0625391,52.0154758 C16.0658203,50.9146452 16.959375,50.0230121 18.0625781,50.0197379 L15.0625781,50.0197379 C13.959375,50.0230121 13.0658203,50.9146452 13.0625391,52.0154758 L13.0625391,54.0112137 L16.0625391,54.0112137 L16.0625391,52.0154758 Z" id="Shape"></path>
                            <rect id="Rectangle-path" x="21.0625781" y="43.0348306" width="3" height="6.98490726"></rect>
                        </g>
                    </g>
                    <g fill-rule="nonzero">
                        <polygon id="Shape" fill="#FFFFFF" points="0 35.9846734 0 23.0126694 0 5.05137903 2.00003906 5.05137903 2.00003906 23.0126694 2.00003906 35.9846734"></polygon>
                        <g fill="#428DFF" id="Shape">
                            <path d="M0.620039063,28.9198992 C0.676757813,28.9487823 0.73734375,28.9688952 0.800039063,28.9797702 C0.866132813,28.990879 0.933046875,28.9975444 1.00007813,28.9997661 C1.26480469,28.9959073 1.51828125,28.8925363 1.71011719,28.7103508 C1.80046875,28.6149315 1.87183594,28.5031411 1.92011719,28.3810605 C2.0709375,28.0088548 1.98878906,27.5829758 1.71011719,27.2934435 C1.61449219,27.2032863 1.50246094,27.1320726 1.38011719,27.0838952 C1.25988281,27.0327944 1.13074219,27.0056653 1.00007813,27.0040282 C0.735351563,27.0078871 0.481875,27.1112581 0.290039063,27.2934435 C-0.0966796875,27.6869315 -0.0966796875,28.3168629 0.290039063,28.7103508 L0.440039063,28.8300927 C0.495820313,28.8679798 0.556289063,28.8981492 0.620039063,28.9198992 Z"></path>
                            <path d="M55.0000781,0.0620927419 L5.00003906,0.0620927419 C2.24003906,0.0653669355 0.0033984375,2.29719758 0,5.05137903 L0,24.0104798 C0,24.5615968 0.447773438,25.0082903 0.999960937,25.0082903 C1.55214844,25.0082903 1.99992187,24.5615968 1.99992187,24.0104798 L1.99992187,5.05137903 C1.99992187,3.39814516 3.343125,2.05783065 4.99992188,2.05783065 L54.9999609,2.05783065 C56.6567578,2.05783065 57.9999609,3.39814516 57.9999609,5.05137903 L57.9999609,20.2027097 C57.6796875,20.0844879 57.3413672,20.0223952 57,20.019121 L33,20.019121 C31.3432031,20.019121 30,21.3594355 30,23.0126694 L30,24.0104798 L6,24.0104798 C5.44769531,24.0104798 5.00003906,24.4572903 5.00003906,25.0082903 C5.00003906,25.5594073 5.4478125,26.0061008 6,26.0061008 L30,26.0061008 L30,34.986746 L20.0000391,34.986746 L20.0000391,29.9974597 L27,29.9974597 C27.5523047,29.9974597 27.9999609,29.5507661 27.9999609,28.9996492 C27.9999609,28.4485323 27.5521875,28.0018387 27,28.0018387 L20.0000391,28.0018387 C18.8954297,28.0018387 18,28.8953427 18,29.9975766 L18,34.9868629 L15.9999609,34.9868629 L15.9999609,29.9975766 C15.9999609,28.8953427 15.1045312,28.0018387 13.9999219,28.0018387 L6,28.0018387 C4.89539063,28.0018387 3.99996094,28.8953427 3.99996094,29.9975766 L3.99996094,34.9868629 L2.00003906,34.9868629 L2.00003906,31.9933145 C2.00003906,31.4421976 1.55226562,30.995504 1.00007813,30.995504 C0.447890625,30.995504 0,31.4421976 0,31.9933145 L0,39.9761492 C0.00328125,42.7302137 2.23992188,44.9620444 5.00003906,44.9654355 L21,44.9654355 L21,49.9547218 L15.9999609,49.9547218 C14.3431641,49.9547218 12.9999609,51.2950363 12.9999609,52.9482702 L12.9999609,54.9440081 C12.9999609,55.495125 13.4477344,55.9418185 13.9999219,55.9418185 L41.5829297,55.9418185 C42.5242969,56.6138468 43.4998828,57.2366452 44.5059375,57.8077581 C44.8122656,57.9814073 45.1876172,57.9814073 45.4939453,57.8077581 C59.835,49.686121 60,36.3628427 60,35.7990968 L60,5.05137903 C59.9967187,2.29719758 57.7600781,0.0653669355 55.0000781,0.0620927419 Z M6,29.9975766 L14.0000391,29.9975766 L14.0000391,34.9868629 L6,34.9868629 L6,29.9975766 Z M2.00003906,39.9761492 L2.00003906,36.9826008 L30.0710156,36.9826008 C30.2899219,39.0294395 30.7653516,41.0408468 31.4860547,42.9696976 L5.00003906,42.9696976 C4.20433594,42.9696976 3.44132812,42.6543226 2.87871094,42.0929153 C2.31609375,41.5315081 2.00003906,40.7700242 2.00003906,39.9761492 Z M23.0000391,44.9653185 L32.3160938,44.9653185 C33.1374609,46.7331492 34.1497266,48.4061452 35.3350781,49.9546048 L23.0000391,49.9546048 L23.0000391,44.9653185 Z M15,53.9459637 L15,52.9481532 C15,52.3970363 15.4477734,51.9503427 15.9999609,51.9503427 L37.0129687,51.9503427 C37.6379297,52.6249435 38.325,53.2914758 39.0649219,53.9460806 L15,53.9460806 L15,53.9459637 Z M58.0000781,35.7981613 C58.0000781,36.3081169 57.8070703,48.2383427 45.0001172,55.7871129 C42.4836328,54.3251855 40.2065625,52.4870766 38.248125,50.3368669 C38.2182422,50.2947702 38.1848437,50.2553629 38.1481641,50.2191129 C36.4245703,48.2914315 35.0114062,46.1084798 33.9591797,43.7480202 C33.9323437,43.6300323 33.8838281,43.518125 33.8162109,43.4177944 C32.7448828,41.0118468 32.1291797,38.4288589 32.0001562,35.7992137 L32.0001562,23.0126694 C32.0001562,22.4615524 32.4479297,22.0148589 33.0001172,22.0148589 L57.0001172,22.0148589 C57.5524219,22.0148589 58.0000781,22.4616694 58.0000781,23.0126694 L58.0000781,35.7981613 Z"></path>
                            <path d="M8.34304687,20.0101169 L8.36203125,20.0240323 C11.6407031,22.6716855 16.3259766,22.6791694 19.6130859,20.0420403 C19.6297266,20.0309315 19.6457812,20.019004 19.6611328,20.0061411 C22.6264453,17.6134073 23.7587109,13.6156169 22.4869922,10.0280363 C21.2152734,6.44057258 17.8156641,4.04222581 14.0021484,4.04222581 C10.1886328,4.04222581 6.78902344,6.44057258 5.5171875,10.0280363 C4.24535156,13.6155 5.37761719,17.6134073 8.34304687,20.0061411 L8.34304687,20.0101169 Z M10.0190625,18.7717702 C10.1047266,17.4056129 10.8860156,16.1786089 12.0890625,15.5207298 C13.2735937,16.1972016 14.7285937,16.1972016 15.9130078,15.5207298 C17.1155859,16.1791935 17.8960547,17.4066653 17.9810156,18.7727056 C15.58875,20.435879 12.4113281,20.435879 10.0190625,18.7727056 L10.0190625,18.7717702 Z M14.0000391,14.0320242 C12.8954297,14.0320242 12,13.1385202 12,12.0362863 C12,10.9340524 12.8954297,10.0405484 14.0000391,10.0405484 C15.1046484,10.0405484 16.0000781,10.9340524 16.0000781,12.0362863 C16.0000781,13.1385202 15.1046484,14.0320242 14.0000391,14.0320242 Z M14.0000391,6.04918952 C16.6267969,6.04416129 19.0342969,7.50959677 20.2319531,9.84245968 C21.4296094,12.1752056 21.2148047,14.9811895 19.6760156,17.1054395 C19.2601172,15.8875565 18.4619531,14.8357218 17.4,14.1059274 C17.7882422,13.4848831 17.9960156,12.7684194 18,12.0364032 C18,9.83205242 16.2091406,8.04504435 14.0000391,8.04504435 C11.7909375,8.04504435 10.0000781,9.83193548 10.0000781,12.0362863 C10.0040625,12.7683024 10.2118359,13.4847661 10.6000781,14.1058105 C9.538125,14.8356048 8.74007813,15.8874395 8.3240625,17.1053226 C6.78527344,14.9810726 6.57058594,12.1752056 7.768125,9.84234274 C8.96566406,7.50947984 11.3733984,6.04416129 14.0000391,6.04918952 Z"></path>
                            <path d="M26.0000391,9.0427379 L55.0000781,9.0427379 C55.5523828,9.0427379 56.0000391,8.59592742 56.0000391,8.04492742 C56.0000391,7.49392742 55.5523828,7.04711694 55.0000781,7.04711694 L26.0000391,7.04711694 C25.4477344,7.04711694 25.0000781,7.49392742 25.0000781,8.04492742 C25.0000781,8.59592742 25.4477344,9.0427379 26.0000391,9.0427379 Z"></path>
                            <path d="M26.0000391,13.0342137 L55.0000781,13.0342137 C55.5523828,13.0342137 56.0000391,12.5874032 56.0000391,12.0364032 C56.0000391,11.4852863 55.5523828,11.0385927 55.0000781,11.0385927 L26.0000391,11.0385927 C25.4477344,11.0385927 25.0000781,11.4854032 25.0000781,12.0364032 C25.0000781,12.5874032 25.4477344,13.0342137 26.0000391,13.0342137 Z"></path>
                            <path d="M26.0000391,17.0255726 L36,17.0255726 C36.5523047,17.0255726 36.9999609,16.5787621 36.9999609,16.0277621 C36.9999609,15.4766452 36.5521875,15.0299516 36,15.0299516 L26.0000391,15.0299516 C25.4477344,15.0299516 25.0000781,15.4767621 25.0000781,16.0277621 C25.0000781,16.5787621 25.4477344,17.0255726 26.0000391,17.0255726 Z"></path>
                            <path d="M54.0001172,24.0104798 C53.4478125,24.0104798 53.0001562,24.4572903 53.0001562,25.0082903 C53.0001562,25.5594073 53.4479297,26.0061008 54.0001172,26.0061008 L54.0001172,35.7850645 C53.9941406,36.161246 53.7451172,45.0870484 44.4371484,51.4184032 C44.1310547,51.614504 43.9557422,51.9611008 43.9795312,52.3233669 C44.0033203,52.6856331 44.2224609,53.0063871 44.5516406,53.1609758 C44.8808203,53.3155645 45.2682422,53.2794315 45.5630859,53.0668427 C55.7180859,46.1627379 55.993125,36.2340968 56.0000391,35.7990968 L56.0000391,26.0062177 C56.0000391,24.9039839 55.1046094,24.0104798 54.0001172,24.0104798 Z"></path>
                            <path d="M36.0001172,35.7990968 L36.0001172,26.0062177 L47.0001563,26.0062177 C47.5524609,26.0062177 48.0001172,25.5594073 48.0001172,25.0084073 C48.0001172,24.4572903 47.5524609,24.0105968 47.0001563,24.0105968 L36.0001172,24.0105968 C34.8955078,24.0105968 34.0000781,24.9041008 34.0000781,26.0063347 L34.0000781,35.7992137 C34.2808594,39.8816653 35.735625,43.7966653 38.1901172,47.0749516 C38.3998828,47.3636653 38.7480469,47.5189556 39.1034766,47.482004 C39.4589062,47.4451694 39.7676953,47.2218226 39.9134766,46.8962742 C40.0592578,46.5706089 40.0198828,46.1922056 39.8101172,45.903375 C37.6089844,42.9620968 36.2879297,39.4587097 36.0001172,35.7990968 Z"></path>
                            <path d="M51.7071094,31.1630726 C51.3166406,30.7735605 50.6835937,30.7735605 50.293125,31.1630726 L42.8751562,38.5650887 L41.7071484,37.3995927 C41.3148047,37.0214234 40.6910156,37.0268024 40.3053516,37.411754 C39.9195703,37.7967056 39.9141797,38.4190363 40.2931641,38.8105363 L42.1681641,40.681504 C42.5586328,41.0710161 43.1916797,41.0710161 43.5821484,40.681504 L51.7071094,32.5740161 C52.0974609,32.1843871 52.0974609,31.5527016 51.7071094,31.1630726 Z"></path>
                        </g>
                    </g>
                </g>
            </g>
        </g>
    </g>
</svg>