<?xml version="1.0" encoding="UTF-8"?>
<svg width="61px" height="60px" viewBox="0 0 61 60" version="1.1" xmlns="http://www.w3.org/2000/svg" xmlns:xlink="http://www.w3.org/1999/xlink">
    <!-- Generator: Sketch 50.2 (55047) - http://www.bohemiancoding.com/sketch -->
    <title>scale</title>
    <desc>Created with Sketch.</desc>
    <defs></defs>
    <g id="Page-1" stroke="none" stroke-width="1" fill="none" fill-rule="evenodd">
        <g id="Artboard" transform="translate(-129.000000, -7.000000)">
            <g id="scale" transform="translate(129.750000, 7.000000)">
                <g id="Group">
                    <g transform="translate(0.952381, 0.952381)" fill-rule="nonzero">
                        <rect id="Rectangle-path" fill="#A4C2F7" x="0.0467857143" y="0.0532142857" width="57.9547619" height="57.9547619"></rect>
                        <rect id="Rectangle-path" fill="#E3E7F2" x="0.0467857143" y="0.0532142857" width="54.9570238" height="57.9547619"></rect>
                        <path d="M38.0171429,22.0260714 L38.0171429,55.9995238 C38.0172619,56.5296429 37.8067857,57.0379762 37.4320238,57.4127381 C37.0572619,57.7875 36.5488095,57.9980952 36.0188095,57.9978571 L2.0452381,57.9978571 C1.51511905,57.9979762 1.00678571,57.7875 0.63202381,57.4127381 C0.257261905,57.0379762 0.0466666667,56.5295238 0.0469047619,55.9995238 L0.0469047619,22.0260714 C0.0501190476,20.9236905 0.94297619,20.0308333 2.04535714,20.027619 L36.0188095,20.027619 C37.1210714,20.0308333 38.0139286,20.9236905 38.0171429,22.0260714 Z" id="Shape" fill="#A4C2F7"></path>
                        <path d="M35.0195238,22.0260714 L35.0195238,55.9995238 C35.0196429,56.5296429 34.8091667,57.0379762 34.4344048,57.4127381 C34.0596429,57.7875 33.5511905,57.9980952 33.0211905,57.9978571 L2.0452381,57.9978571 C1.51511905,57.9979762 1.00678571,57.7875 0.63202381,57.4127381 C0.257261905,57.0379762 0.0466666667,56.5295238 0.0469047619,55.9995238 L0.0469047619,22.0260714 C0.0501190476,20.9236905 0.94297619,20.0308333 2.04535714,20.027619 L33.0211905,20.027619 C34.1234524,20.0308333 35.0163095,20.9236905 35.0195238,22.0260714 Z" id="Shape" fill="#E3E7F2"></path>
                        <path d="M27.0257143,38.0135714 C27.0267857,40.0872619 26.2204762,42.079881 24.7775,43.5692857 C23.6394048,44.7641667 23.0121429,46.3557143 23.0288095,48.0058333 C23.0289286,48.5359524 22.8184524,49.0442857 22.4436905,49.4190476 C22.0689286,49.7938095 21.5604762,50.0044048 21.0304762,50.0041667 L16.9535714,50.0041667 C15.8811905,49.9611905 15.0342857,49.0789286 15.035119,48.0057143 C15.0392857,46.3434524 14.4021429,44.7435714 13.2565476,43.5391667 C11.2296429,41.4234524 10.5229762,38.3680952 11.415119,35.5772619 C12.3072619,32.7864286 14.655,30.707381 17.5332143,30.1596429 C17.7279762,30.1191667 17.9247619,30.0891667 18.1227381,30.0697619 C20.3863095,29.812381 22.6522619,30.532381 24.3521429,32.0491667 C26.0520238,33.5659524 27.0245238,35.7353571 27.0257143,38.0135714 Z" id="Shape" fill="#A4C2F7"></path>
                        <path d="M24.0280952,38.0135714 C24.0291667,40.0872619 23.2228571,42.079881 21.779881,43.5692857 C20.6417857,44.7641667 20.0145238,46.3557143 20.0311905,48.0058333 C20.0313095,48.5359524 19.8208333,49.0442857 19.4460714,49.4190476 C19.0713095,49.7938095 18.5628571,50.0044048 18.0328571,50.0041667 L16.9536905,50.0041667 C15.8813095,49.9611905 15.0344048,49.0789286 15.0352381,48.0057143 C15.0394048,46.3434524 14.4022619,44.7435714 13.2566667,43.5391667 C11.2297619,41.4234524 10.5230952,38.3680952 11.4152381,35.5772619 C12.307381,32.7864286 14.655119,30.707381 17.5333333,30.1596429 C21.3029762,30.8788095 24.0294048,34.1758333 24.0280952,38.0135714 Z" id="Shape" fill="#E3E7F2"></path>
                        <polygon id="Shape" fill="#FFFFFF" points="3.04452381 56.0194048 3.04452381 22.0459524 3.04452381 0.0732142857 0.0467857143 0.0732142857 0.0467857143 22.0459524 0.0467857143 56.0194048 0.0467857143 58.0278571 3.04452381 58.0278571"></polygon>
                    </g>
                    <g fill-rule="nonzero">
                        <polygon id="Shape" fill="#FFFFFF" points="1.99845238 22.982381 1.99845238 35.9722619 1.99845238 56.9558333 0 56.9558333 0 35.9722619 0 22.982381"></polygon>
                        <g fill="#428DFF" id="Shape">
                            <path d="M0.999166667,31.9752381 C1.26369048,31.9711905 1.51690476,31.8677381 1.70857143,31.6854762 C2.095,31.2914286 2.095,30.6607143 1.70857143,30.2666667 L1.55880952,30.1466667 C1.50309524,30.1086905 1.4425,30.0783333 1.37880952,30.0564286 C1.32214286,30.027619 1.26142857,30.007619 1.19880952,29.9969048 C1.13285714,29.9855952 1.06607143,29.9789286 0.999166667,29.9769048 C0.734642857,29.9805952 0.481190476,30.0840476 0.289761905,30.2666667 C-0.0875,30.6644048 -0.0875,31.2877381 0.289761905,31.6854762 C0.385238095,31.7757143 0.49702381,31.8469048 0.619047619,31.8953571 C0.739404762,31.9464286 0.868452381,31.9736905 0.999166667,31.9752381 Z"></path>
                            <path d="M0.999166667,7.99380952 C1.55107143,7.99380952 1.99833333,7.54642857 1.99833333,6.99464286 L1.99833333,1.99845238 L6.99440476,1.99845238 C7.54630952,1.99845238 7.99357143,1.55107143 7.99357143,0.999285714 C7.99357143,0.4475 7.54642857,0 6.99452381,0 L0.999166667,0 C0.447380952,0 0,0.447380952 0,0.999166667 L0,6.99452381 C0,7.54642857 0.447380952,7.99380952 0.999166667,7.99380952 Z"></path>
                            <path d="M59.3358333,0.0771428571 C59.214881,0.0266666667 59.085119,0.000357142857 58.9540476,0 L52.9586905,0 C52.4067857,0 51.9595238,0.447380952 51.9595238,0.999166667 C51.9595238,1.55095238 52.4069048,1.99833333 52.9586905,1.99833333 L56.5417857,1.99833333 L39.9688095,18.5714286 L39.9688095,14.9883333 C39.9688095,14.4364286 39.5214286,13.9891667 38.9696429,13.9891667 C38.4178571,13.9891667 37.9704762,14.4365476 37.9704762,14.9883333 L37.9704762,20.1685714 C37.6504762,20.050119 37.3125,19.9878571 36.9713095,19.9844048 L2.99761905,19.9844048 C1.34285714,19.9861905 0.00178571429,21.3272619 0,22.9820238 L0.000119047619,22.9822619 L0,22.9822619 L0,26.9791667 C0,27.5310714 0.447380952,27.9783333 0.999166667,27.9783333 C1.55095238,27.9783333 1.99833333,27.5309524 1.99833333,26.9791667 L1.99833333,22.9822619 L1.99821429,22.9822619 L1.99833333,22.9820238 C1.99904762,22.4304762 2.44595238,21.9835714 2.9975,21.9828571 L36.9709524,21.9828571 C37.5225,21.9835714 37.9694048,22.4304762 37.970119,22.9820238 L37.970119,56.9554762 C37.9694048,57.5070238 37.5225,57.9539286 36.9709524,57.9546429 L2.99761905,57.9546429 C2.44607143,57.9539286 1.99916667,57.5070238 1.99845238,56.9554762 L1.99845238,34.9728571 C1.99845238,34.4209524 1.55107143,33.9736905 0.999285714,33.9736905 C0.4475,33.9736905 0,34.4210714 0,34.9728571 L0,56.9557143 C0.0019047619,58.6104762 1.34297619,59.9514286 2.99761905,59.9532143 L36.9710714,59.9532143 C38.6258333,59.9514286 39.9669048,58.6103571 39.9686905,56.9555952 L39.9686905,22.9820238 C39.9653571,22.6408333 39.9029762,22.3027381 39.7845238,21.9828571 L44.9647619,21.9828571 C45.5166667,21.9828571 45.9639286,21.5354762 45.9639286,20.9836905 C45.9639286,20.4317857 45.5165476,19.9845238 44.9647619,19.9845238 L41.3816667,19.9845238 L57.9547619,3.41142857 L57.9547619,6.99452381 C57.9547619,7.54642857 58.4021429,7.99369048 58.9539286,7.99369048 C59.5058333,7.99369048 59.9530952,7.54630952 59.9530952,6.99452381 L59.9530952,0.999166667 C59.9515476,0.595714286 59.7083333,0.232380952 59.3358333,0.0771428571 Z"></path>
                            <path d="M58.9539286,10.9914286 C58.4021429,10.9914286 57.9547619,11.4388095 57.9547619,11.9905952 L57.9547619,17.9859524 C57.9547619,18.5378571 58.4021429,18.985119 58.9539286,18.985119 C59.5058333,18.985119 59.9530952,18.5377381 59.9530952,17.9859524 L59.9530952,11.9905952 C59.9530952,11.4388095 59.5058333,10.9914286 58.9539286,10.9914286 Z"></path>
                            <path d="M58.9539286,20.9777381 C58.4021429,20.9777381 57.9547619,21.425119 57.9547619,21.9769048 L57.9547619,27.9722619 C57.9547619,28.5241667 58.4021429,28.9714286 58.9539286,28.9714286 C59.5058333,28.9714286 59.9530952,28.5240476 59.9530952,27.9722619 L59.9530952,21.9769048 C59.9530952,21.425119 59.5058333,20.9777381 58.9539286,20.9777381 Z"></path>
                            <path d="M58.9539286,30.97 C58.4021429,30.97 57.9547619,31.417381 57.9547619,31.9691667 L57.9547619,37.9645238 C57.9547619,38.5164286 58.4021429,38.9636905 58.9539286,38.9636905 C59.5058333,38.9636905 59.9530952,38.5163095 59.9530952,37.9645238 L59.9530952,31.9691667 C59.9530952,31.4172619 59.5058333,30.97 58.9539286,30.97 Z"></path>
                            <path d="M58.9539286,40.9621429 C58.4021429,40.9621429 57.9547619,41.4095238 57.9547619,41.9613095 L57.9547619,47.9566667 C57.9547619,48.5085714 58.4021429,48.9558333 58.9539286,48.9558333 C59.5058333,48.9558333 59.9530952,48.5084524 59.9530952,47.9566667 L59.9530952,41.9613095 C59.9530952,41.4095238 59.5058333,40.9621429 58.9539286,40.9621429 Z"></path>
                            <path d="M0.999166667,18.985119 C1.55107143,18.985119 1.99833333,18.5377381 1.99833333,17.9859524 L1.99833333,11.9905952 C1.99833333,11.4386905 1.55095238,10.9914286 0.999166667,10.9914286 C0.447380952,10.9914286 0,11.4388095 0,11.9905952 L0,17.9859524 C0,18.5378571 0.447380952,18.985119 0.999166667,18.985119 Z"></path>
                            <path d="M11.9905952,1.99845238 L17.9859524,1.99845238 C18.5378571,1.99845238 18.985119,1.55107143 18.985119,0.999285714 C18.985119,0.4475 18.5378571,0 17.9859524,0 L11.9905952,0 C11.4386905,0 10.9914286,0.447380952 10.9914286,0.999166667 C10.9914286,1.55095238 11.4388095,1.99845238 11.9905952,1.99845238 Z"></path>
                            <path d="M21.9828571,1.99845238 L27.9782143,1.99845238 C28.530119,1.99845238 28.977381,1.55107143 28.977381,0.999285714 C28.977381,0.4475 28.53,0 27.9780952,0 L21.9827381,0 C21.4308333,0 20.9835714,0.447380952 20.9835714,0.999166667 C20.9835714,1.55095238 21.4309524,1.99845238 21.9828571,1.99845238 Z"></path>
                            <path d="M31.975,1.99845238 L37.9703571,1.99845238 C38.5222619,1.99845238 38.9695238,1.55107143 38.9695238,0.999285714 C38.9695238,0.4475 38.5221429,0 37.9703571,0 L31.975,0 C31.4230952,0 30.9758333,0.447380952 30.9758333,0.999166667 C30.9758333,1.55095238 31.4232143,1.99845238 31.975,1.99845238 Z"></path>
                            <path d="M41.9672619,1.99845238 L47.962619,1.99845238 C48.5145238,1.99845238 48.9617857,1.55107143 48.9617857,0.999285714 C48.9617857,0.4475 48.5144048,0 47.9625,0 L41.9671429,0 C41.4152381,0 40.9679762,0.447380952 40.9679762,0.999166667 C40.9679762,1.55095238 41.4153571,1.99845238 41.9672619,1.99845238 Z"></path>
                            <path d="M47.9625,59.9532143 C48.5144048,59.9532143 48.9616667,59.5058333 48.9616667,58.9540476 C48.9616667,58.4021429 48.5142857,57.954881 47.9625,57.954881 L41.9671429,57.954881 C41.4152381,57.954881 40.9679762,58.4022619 40.9679762,58.9540476 C40.9679762,59.5059524 41.4153571,59.9532143 41.9671429,59.9532143 L47.9625,59.9532143 Z"></path>
                            <path d="M58.9539286,51.9594048 C58.4021429,51.9594048 57.9547619,52.4067857 57.9547619,52.9585714 L57.9547619,57.9546429 L52.9586905,57.9546429 C52.4067857,57.9546429 51.9595238,58.4020238 51.9595238,58.9538095 C51.9595238,59.5057143 52.4069048,59.9529762 52.9586905,59.9529762 L58.9540476,59.9529762 C59.5059524,59.9529762 59.9532143,59.5055952 59.9532143,58.9538095 L59.9532143,52.9584524 C59.9530952,52.4067857 59.5058333,51.9594048 58.9539286,51.9594048 Z"></path>
                            <path d="M15.9875,53.9578571 C15.4355952,53.9578571 14.9883333,54.4052381 14.9883333,54.9570238 C14.9883333,55.5089286 15.4357143,55.9561905 15.9875,55.9561905 L23.9813095,55.9561905 C24.5332143,55.9561905 24.9804762,55.5088095 24.9804762,54.9570238 C24.9804762,54.405119 24.5330952,53.9578571 23.9813095,53.9578571 L15.9875,53.9578571 Z"></path>
                            <path d="M20.9835714,26.9789286 L20.9835714,24.9804762 C20.9835714,24.4285714 20.5361905,23.9813095 19.9844048,23.9813095 C19.4325,23.9813095 18.9852381,24.4286905 18.9852381,24.9804762 L18.9852381,26.9789286 C18.9852381,27.5308333 19.432619,27.9780952 19.9844048,27.9780952 C20.5361905,27.9780952 20.9835714,27.5308333 20.9835714,26.9789286 Z"></path>
                            <path d="M10.7991667,28.3714286 C10.5467857,28.1190476 10.1789286,28.0204762 9.83404762,28.1128571 C9.48928571,28.2052381 9.22,28.4745238 9.12761905,28.8192857 C9.0352381,29.1640476 9.13380952,29.5319048 9.38619048,29.7844048 L10.7991667,31.1978571 C11.0515476,31.4502381 11.4194048,31.5488095 11.7642857,31.4564286 C12.1090476,31.3640476 12.3783333,31.0947619 12.4707143,30.75 C12.5630952,30.4052381 12.4645238,30.037381 12.2121429,29.784881 L10.7991667,28.3714286 Z"></path>
                            <path d="M9.38619048,49.5682143 C9.57357143,49.7555952 9.82761905,49.8609524 10.092619,49.8609524 C10.357619,49.8609524 10.6117857,49.7555952 10.7990476,49.5682143 L12.2120238,48.1547619 C12.4670238,47.9028571 12.567619,47.5336905 12.4755952,47.1872619 C12.3835714,46.8408333 12.1129762,46.5702381 11.7665476,46.4782143 C11.420119,46.3861905 11.0509524,46.4867857 10.7990476,46.7417857 L9.38607143,48.1552381 C9.19869048,48.342619 9.09333333,48.5966667 9.09333333,48.8616667 C9.09333333,49.1266667 9.19880952,49.3808333 9.38619048,49.5682143 Z"></path>
                            <path d="M7.99380952,39.9688095 C8.54571429,39.9688095 8.99297619,39.5214286 8.99297619,38.9696429 C8.99297619,38.4177381 8.54559524,37.9704762 7.99380952,37.9704762 L5.99535714,37.9704762 C5.44345238,37.9704762 4.99619048,38.4178571 4.99619048,38.9696429 C4.99619048,39.5215476 5.44357143,39.9688095 5.99535714,39.9688095 L7.99380952,39.9688095 Z"></path>
                            <path d="M30.5825,28.3714286 C30.395119,28.1840476 30.1410714,28.0786905 29.8760714,28.0786905 C29.6110714,28.0786905 29.3569048,28.1840476 29.1696429,28.3714286 L27.7566667,29.784881 C27.3665476,30.175 27.3665476,30.807619 27.7566667,31.1978571 C28.1467857,31.5879762 28.7794048,31.5879762 29.1696429,31.1978571 L30.582619,29.7844048 C30.77,29.5970238 30.8753571,29.3429762 30.8753571,29.0779762 C30.8753571,28.8129762 30.77,28.5586905 30.5825,28.3714286 Z"></path>
                            <path d="M29.1696429,46.7417857 C28.7788095,46.3558333 28.1496429,46.3577381 27.7611905,46.7461905 C27.3727381,47.1346429 27.3707143,47.7638095 27.7567857,48.1546429 L29.1697619,49.5680952 C29.560119,49.9571429 30.1917857,49.9565476 30.5815476,49.5669048 C30.9711905,49.1772619 30.9717857,48.5455952 30.5827381,48.155119 L29.1696429,46.7417857 Z"></path>
                            <path d="M33.9734524,39.9688095 C34.5253571,39.9688095 34.972619,39.5214286 34.972619,38.9696429 C34.972619,38.4177381 34.5252381,37.9704762 33.9734524,37.9704762 L31.975,37.9704762 C31.4230952,37.9704762 30.9758333,38.4178571 30.9758333,38.9696429 C30.9758333,39.5215476 31.4232143,39.9688095 31.975,39.9688095 L33.9734524,39.9688095 Z"></path>
                            <path d="M11.1030952,37.5346429 C10.6522619,40.3171429 11.5365476,43.1496429 13.4903571,45.1815476 C14.4605952,46.2 14.9975,47.5552381 14.9882143,48.9617857 C14.99,50.6165476 16.3310714,51.957619 17.9858333,51.9594048 L21.9827381,51.9594048 C23.6375,51.957619 24.9785714,50.6165476 24.9803571,48.9617857 C24.9614286,47.5696429 25.487381,46.2253571 26.4460714,45.2157143 C28.1472619,43.4597619 29.0591667,41.0863095 28.9715476,38.6430952 C28.8839286,36.199881 27.8041667,33.8978571 25.9816667,32.2683333 C23.5319048,30.075119 20.0807143,29.3935714 16.9811905,30.4905952 C13.8815476,31.5877381 11.6277381,34.2886905 11.1030952,37.5346429 Z M19.9921429,31.9745238 C21.7117857,31.9692857 23.3717857,32.604881 24.6482143,33.7572619 C26.0659524,35.0240476 26.9059524,36.8139286 26.9744048,38.7139286 C27.0428571,40.6139286 26.3336905,42.4596429 25.0107143,43.825 C23.689881,45.2067857 22.9619048,47.0502381 22.9820238,48.9616667 C22.9813095,49.5132143 22.5344048,49.960119 21.9828571,49.9608333 L17.9859524,49.9608333 C17.4342857,49.96 16.9872619,49.5128571 16.9867857,48.9610714 C16.9967857,47.0389286 16.2604762,45.1879762 14.9327381,43.7980952 C13.0942857,41.8815476 12.5013095,39.0885714 13.4025,36.5904762 C14.3036905,34.092381 16.5432143,32.3211905 19.1817857,32.0197619 C19.4508333,31.989881 19.7214286,31.9746429 19.9921429,31.9745238 Z"></path>
                        </g>
                    </g>
                </g>
            </g>
        </g>
    </g>
</svg>