<?xml version="1.0" encoding="UTF-8"?>
<svg width="126px" height="126px" viewBox="0 0 126 126" version="1.1" xmlns="http://www.w3.org/2000/svg" xmlns:xlink="http://www.w3.org/1999/xlink">
    <!-- Generator: Sketch 50.2 (55047) - http://www.bohemiancoding.com/sketch -->
    <title>scale</title>
    <desc>Created with Sketch.</desc>
    <defs></defs>
    <g id="Page-1" stroke="none" stroke-width="1" fill="none" fill-rule="evenodd">
        <g id="Artboard" transform="translate(-776.000000, -5.000000)">
            <g id="scale" transform="translate(776.000000, 5.000000)">
                <g id="Group">
                    <g transform="translate(2.000000, 2.000000)" fill-rule="nonzero">
                        <rect id="Rectangle-path" fill="#A4C2F7" x="0.09825" y="0.11175" width="121.705" height="121.705"></rect>
                        <rect id="Rectangle-path" fill="#E3E7F2" x="0.09825" y="0.11175" width="115.40975" height="121.705"></rect>
                        <path d="M79.836,46.25475 L79.836,117.599 C79.83625,118.71225 79.39425,119.77975 78.60725,120.56675 C77.82025,121.35375 76.7525,121.796 75.6395,121.7955 L4.295,121.7955 C3.18175,121.79575 2.11425,121.35375 1.32725,120.56675 C0.54025,119.77975 0.098,118.712 0.0985,117.599 L0.0985,46.25475 C0.10525,43.93975 1.98025,42.06475 4.29525,42.058 L75.6395,42.058 C77.95425,42.06475 79.82925,43.93975 79.836,46.25475 Z" id="Shape" fill="#A4C2F7"></path>
                        <path d="M73.541,46.25475 L73.541,117.599 C73.54125,118.71225 73.09925,119.77975 72.31225,120.56675 C71.52525,121.35375 70.4575,121.796 69.3445,121.7955 L4.295,121.7955 C3.18175,121.79575 2.11425,121.35375 1.32725,120.56675 C0.54025,119.77975 0.098,118.712 0.0985,117.599 L0.0985,46.25475 C0.10525,43.93975 1.98025,42.06475 4.29525,42.058 L69.3445,42.058 C71.65925,42.06475 73.53425,43.93975 73.541,46.25475 Z" id="Shape" fill="#E3E7F2"></path>
                        <path d="M56.754,79.8285 C56.75625,84.18325 55.063,88.36775 52.03275,91.4955 C49.64275,94.00475 48.3255,97.347 48.3605,100.81225 C48.36075,101.9255 47.91875,102.993 47.13175,103.78 C46.34475,104.567 45.277,105.00925 44.164,105.00875 L35.6025,105.00875 C33.3505,104.9185 31.572,103.06575 31.57375,100.812 C31.5825,97.32125 30.2445,93.9615 27.83875,91.43225 C23.58225,86.98925 22.09825,80.573 23.97175,74.71225 C25.84525,68.8515 30.7755,64.4855 36.81975,63.33525 C37.22875,63.25025 37.642,63.18725 38.05775,63.1465 C42.81125,62.606 47.56975,64.118 51.1395,67.30325 C54.70925,70.4885 56.7515,75.04425 56.754,79.8285 Z" id="Shape" fill="#A4C2F7"></path>
                        <path d="M50.459,79.8285 C50.46125,84.18325 48.768,88.36775 45.73775,91.4955 C43.34775,94.00475 42.0305,97.347 42.0655,100.81225 C42.06575,101.9255 41.62375,102.993 40.83675,103.78 C40.04975,104.567 38.982,105.00925 37.869,105.00875 L35.60275,105.00875 C33.35075,104.9185 31.57225,103.06575 31.574,100.812 C31.58275,97.32125 30.24475,93.9615 27.839,91.43225 C23.5825,86.98925 22.0985,80.573 23.972,74.71225 C25.8455,68.8515 30.77575,64.4855 36.82,63.33525 C44.73625,64.8455 50.46175,71.76925 50.459,79.8285 Z" id="Shape" fill="#E3E7F2"></path>
                        <polygon id="Shape" fill="#FFFFFF" points="6.3935 117.64075 6.3935 46.2965 6.3935 0.15375 0.09825 0.15375 0.09825 46.2965 0.09825 117.64075 0.09825 121.8585 6.3935 121.8585"></polygon>
                    </g>
                    <g fill-rule="nonzero">
                        <polygon id="Shape" fill="#FFFFFF" points="4.19675 48.263 4.19675 75.54175 4.19675 119.60725 0 119.60725 0 75.54175 0 48.263"></polygon>
                        <g fill="#428DFF" id="Shape">
                            <path d="M2.09825,67.148 C2.65375,67.1395 3.1855,66.92225 3.588,66.5395 C4.3995,65.712 4.3995,64.3875 3.588,63.56 L3.2735,63.308 C3.1565,63.22825 3.02925,63.1645 2.8955,63.1185 C2.7765,63.058 2.649,63.016 2.5175,62.9935 C2.379,62.96975 2.23875,62.95575 2.09825,62.9515 C1.54275,62.95925 1.0105,63.1765 0.6085,63.56 C-0.18375,64.39525 -0.18375,65.70425 0.6085,66.5395 C0.809,66.729 1.04375,66.8785 1.3,66.98025 C1.55275,67.0875 1.82375,67.14475 2.09825,67.148 Z"></path>
                            <path d="M2.09825,16.787 C3.25725,16.787 4.1965,15.8475 4.1965,14.68875 L4.1965,4.19675 L14.68825,4.19675 C15.84725,4.19675 16.7865,3.25725 16.7865,2.0985 C16.7865,0.93975 15.8475,0 14.6885,0 L2.09825,0 C0.9395,0 0,0.9395 0,2.09825 L0,14.6885 C0,15.8475 0.9395,16.787 2.09825,16.787 Z"></path>
                            <path d="M124.60525,0.162 C124.35125,0.056 124.07875,0.00075 123.8035,0 L111.21325,0 C110.05425,0 109.115,0.9395 109.115,2.09825 C109.115,3.257 110.0545,4.1965 111.21325,4.1965 L118.73775,4.1965 L83.9345,39 L83.9345,31.4755 C83.9345,30.3165 82.995,29.37725 81.83625,29.37725 C80.6775,29.37725 79.738,30.31675 79.738,31.4755 L79.738,42.354 C79.066,42.10525 78.35625,41.9745 77.63975,41.96725 L6.295,41.96725 C2.82,41.971 0.00375,44.78725 0,48.26225 L0.00025,48.26275 L0,48.26275 L0,56.65625 C0,57.81525 0.9395,58.7545 2.09825,58.7545 C3.257,58.7545 4.1965,57.815 4.1965,56.65625 L4.1965,48.26275 L4.19625,48.26275 L4.1965,48.26225 C4.198,47.104 5.1365,46.1655 6.29475,46.164 L77.639,46.164 C78.79725,46.1655 79.73575,47.104 79.73725,48.26225 L79.73725,119.6065 C79.73575,120.76475 78.79725,121.70325 77.639,121.70475 L6.295,121.70475 C5.13675,121.70325 4.19825,120.76475 4.19675,119.6065 L4.19675,73.443 C4.19675,72.284 3.25725,71.34475 2.0985,71.34475 C0.93975,71.34475 0,72.28425 0,73.443 L0,119.607 C0.004,123.082 2.82025,125.898 6.295,125.90175 L77.63925,125.90175 C81.11425,125.898 83.9305,123.08175 83.93425,119.60675 L83.93425,48.26225 C83.92725,47.54575 83.79625,46.83575 83.5475,46.164 L94.426,46.164 C95.585,46.164 96.52425,45.2245 96.52425,44.06575 C96.52425,42.90675 95.58475,41.9675 94.426,41.9675 L86.9015,41.9675 L121.705,7.164 L121.705,14.6885 C121.705,15.8475 122.6445,16.78675 123.80325,16.78675 C124.96225,16.78675 125.9015,15.84725 125.9015,14.6885 L125.9015,2.09825 C125.89825,1.251 125.3875,0.488 124.60525,0.162 Z"></path>
                            <path d="M123.80325,23.082 C122.6445,23.082 121.705,24.0215 121.705,25.18025 L121.705,37.7705 C121.705,38.9295 122.6445,39.86875 123.80325,39.86875 C124.96225,39.86875 125.9015,38.92925 125.9015,37.7705 L125.9015,25.18025 C125.9015,24.0215 124.96225,23.082 123.80325,23.082 Z"></path>
                            <path d="M123.80325,44.05325 C122.6445,44.05325 121.705,44.99275 121.705,46.1515 L121.705,58.74175 C121.705,59.90075 122.6445,60.84 123.80325,60.84 C124.96225,60.84 125.9015,59.9005 125.9015,58.74175 L125.9015,46.1515 C125.9015,44.99275 124.96225,44.05325 123.80325,44.05325 Z"></path>
                            <path d="M123.80325,65.037 C122.6445,65.037 121.705,65.9765 121.705,67.13525 L121.705,79.7255 C121.705,80.8845 122.6445,81.82375 123.80325,81.82375 C124.96225,81.82375 125.9015,80.88425 125.9015,79.7255 L125.9015,67.13525 C125.9015,65.97625 124.96225,65.037 123.80325,65.037 Z"></path>
                            <path d="M123.80325,86.0205 C122.6445,86.0205 121.705,86.96 121.705,88.11875 L121.705,100.709 C121.705,101.868 122.6445,102.80725 123.80325,102.80725 C124.96225,102.80725 125.9015,101.86775 125.9015,100.709 L125.9015,88.11875 C125.9015,86.96 124.96225,86.0205 123.80325,86.0205 Z"></path>
                            <path d="M2.09825,39.86875 C3.25725,39.86875 4.1965,38.92925 4.1965,37.7705 L4.1965,25.18025 C4.1965,24.02125 3.257,23.082 2.09825,23.082 C0.9395,23.082 0,24.0215 0,25.18025 L0,37.7705 C0,38.9295 0.9395,39.86875 2.09825,39.86875 Z"></path>
                            <path d="M25.18025,4.19675 L37.7705,4.19675 C38.9295,4.19675 39.86875,3.25725 39.86875,2.0985 C39.86875,0.93975 38.9295,0 37.7705,0 L25.18025,0 C24.02125,0 23.082,0.9395 23.082,2.09825 C23.082,3.257 24.0215,4.19675 25.18025,4.19675 Z"></path>
                            <path d="M46.164,4.19675 L58.75425,4.19675 C59.91325,4.19675 60.8525,3.25725 60.8525,2.0985 C60.8525,0.93975 59.913,0 58.754,0 L46.16375,0 C45.00475,0 44.0655,0.9395 44.0655,2.09825 C44.0655,3.257 45.005,4.19675 46.164,4.19675 Z"></path>
                            <path d="M67.1475,4.19675 L79.73775,4.19675 C80.89675,4.19675 81.836,3.25725 81.836,2.0985 C81.836,0.93975 80.8965,0 79.73775,0 L67.1475,0 C65.9885,0 65.04925,0.9395 65.04925,2.09825 C65.04925,3.257 65.98875,4.19675 67.1475,4.19675 Z"></path>
                            <path d="M88.13125,4.19675 L100.7215,4.19675 C101.8805,4.19675 102.81975,3.25725 102.81975,2.0985 C102.81975,0.93975 101.88025,0 100.72125,0 L88.131,0 C86.972,0 86.03275,0.9395 86.03275,2.09825 C86.03275,3.257 86.97225,4.19675 88.13125,4.19675 Z"></path>
                            <path d="M100.72125,125.90175 C101.88025,125.90175 102.8195,124.96225 102.8195,123.8035 C102.8195,122.6445 101.88,121.70525 100.72125,121.70525 L88.131,121.70525 C86.972,121.70525 86.03275,122.64475 86.03275,123.8035 C86.03275,124.9625 86.97225,125.90175 88.131,125.90175 L100.72125,125.90175 Z"></path>
                            <path d="M123.80325,109.11475 C122.6445,109.11475 121.705,110.05425 121.705,111.213 L121.705,121.70475 L111.21325,121.70475 C110.05425,121.70475 109.115,122.64425 109.115,123.803 C109.115,124.962 110.0545,125.90125 111.21325,125.90125 L123.8035,125.90125 C124.9625,125.90125 125.90175,124.96175 125.90175,123.803 L125.90175,111.21275 C125.9015,110.05425 124.96225,109.11475 123.80325,109.11475 Z"></path>
                            <path d="M33.57375,113.3115 C32.41475,113.3115 31.4755,114.251 31.4755,115.40975 C31.4755,116.56875 32.415,117.508 33.57375,117.508 L50.36075,117.508 C51.51975,117.508 52.459,116.5685 52.459,115.40975 C52.459,114.25075 51.5195,113.3115 50.36075,113.3115 L33.57375,113.3115 Z"></path>
                            <path d="M44.0655,56.65575 L44.0655,52.459 C44.0655,51.3 43.126,50.36075 41.96725,50.36075 C40.80825,50.36075 39.869,51.30025 39.869,52.459 L39.869,56.65575 C39.869,57.81475 40.8085,58.754 41.96725,58.754 C43.126,58.754 44.0655,57.81475 44.0655,56.65575 Z"></path>
                            <path d="M22.67825,59.58 C22.14825,59.05 21.37575,58.843 20.6515,59.037 C19.9275,59.231 19.362,59.7965 19.168,60.5205 C18.974,61.2445 19.181,62.017 19.711,62.54725 L22.67825,65.5155 C23.20825,66.0455 23.98075,66.2525 24.705,66.0585 C25.429,65.8645 25.9945,65.299 26.1885,64.575 C26.3825,63.851 26.1755,63.0785 25.6455,62.54825 L22.67825,59.58 Z"></path>
                            <path d="M19.711,104.09325 C20.1045,104.48675 20.638,104.708 21.1945,104.708 C21.751,104.708 22.28475,104.48675 22.678,104.09325 L25.64525,101.125 C26.18075,100.596 26.392,99.82075 26.19875,99.09325 C26.0055,98.36575 25.43725,97.7975 24.70975,97.60425 C23.98225,97.411 23.207,97.62225 22.678,98.15775 L19.71075,101.126 C19.31725,101.5195 19.096,102.053 19.096,102.6095 C19.096,103.166 19.3175,103.69975 19.711,104.09325 Z"></path>
                            <path d="M16.787,83.9345 C17.946,83.9345 18.88525,82.995 18.88525,81.83625 C18.88525,80.67725 17.94575,79.738 16.787,79.738 L12.59025,79.738 C11.43125,79.738 10.492,80.6775 10.492,81.83625 C10.492,82.99525 11.4315,83.9345 12.59025,83.9345 L16.787,83.9345 Z"></path>
                            <path d="M64.22325,59.58 C63.82975,59.1865 63.29625,58.96525 62.73975,58.96525 C62.18325,58.96525 61.6495,59.1865 61.25625,59.58 L58.289,62.54825 C57.46975,63.3675 57.46975,64.696 58.289,65.5155 C59.10825,66.33475 60.43675,66.33475 61.25625,65.5155 L64.2235,62.54725 C64.617,62.15375 64.83825,61.62025 64.83825,61.06375 C64.83825,60.50725 64.617,59.97325 64.22325,59.58 Z"></path>
                            <path d="M61.25625,98.15775 C60.4355,97.34725 59.11425,97.35125 58.2985,98.167 C57.48275,98.98275 57.4785,100.304 58.28925,101.12475 L61.2565,104.093 C62.07625,104.91 63.40275,104.90875 64.22125,104.0905 C65.0395,103.27225 65.04075,101.94575 64.22375,101.12575 L61.25625,98.15775 Z"></path>
                            <path d="M71.34425,83.9345 C72.50325,83.9345 73.4425,82.995 73.4425,81.83625 C73.4425,80.67725 72.503,79.738 71.34425,79.738 L67.1475,79.738 C65.9885,79.738 65.04925,80.6775 65.04925,81.83625 C65.04925,82.99525 65.98875,83.9345 67.1475,83.9345 L71.34425,83.9345 Z"></path>
                            <path d="M23.3165,78.82275 C22.36975,84.666 24.22675,90.61425 28.32975,94.88125 C30.36725,97.02 31.49475,99.866 31.47525,102.81975 C31.479,106.29475 34.29525,109.111 37.77025,109.11475 L46.16375,109.11475 C49.63875,109.111 52.455,106.29475 52.45875,102.81975 C52.419,99.89625 53.5235,97.07325 55.53675,94.953 C59.10925,91.2655 61.02425,86.28125 60.84025,81.1505 C60.65625,76.01975 58.38875,71.1855 54.5615,67.7635 C49.417,63.15775 42.1695,61.7265 35.6605,64.03025 C29.15125,66.33425 24.41825,72.00625 23.3165,78.82275 Z M41.9835,67.1465 C45.59475,67.1355 49.08075,68.47025 51.76125,70.89025 C54.7385,73.5505 56.5025,77.30925 56.64625,81.29925 C56.79,85.28925 55.30075,89.16525 52.5225,92.0325 C49.74875,94.93425 48.22,98.8055 48.26225,102.8195 C48.26075,103.97775 47.32225,104.91625 46.164,104.91775 L37.7705,104.91775 C36.612,104.916 35.67325,103.977 35.67225,102.81825 C35.69325,98.78175 34.147,94.89475 31.35875,91.976 C27.498,87.95125 26.25275,82.086 28.14525,76.84 C30.03775,71.594 34.74075,67.8745 40.28175,67.2415 C40.84675,67.17875 41.415,67.14675 41.9835,67.1465 Z"></path>
                        </g>
                    </g>
                </g>
            </g>
        </g>
    </g>
</svg>