<?xml version="1.0" encoding="UTF-8"?>
<svg width="60px" height="60px" viewBox="0 0 60 60" version="1.1" xmlns="http://www.w3.org/2000/svg" xmlns:xlink="http://www.w3.org/1999/xlink">
    <!-- Generator: Sketch 50.2 (55047) - http://www.bohemiancoding.com/sketch -->
    <title>settings</title>
    <desc>Created with Sketch.</desc>
    <defs>
        <linearGradient x1="14.0131346%" y1="16.0902575%" x2="85.9930727%" y2="83.9101199%" id="linearGradient-1">
            <stop stop-color="#D4E1F4" offset="0%"></stop>
            <stop stop-color="#D4E1F4" offset="17.17%"></stop>
            <stop stop-color="#D4E1F4" offset="20%"></stop>
            <stop stop-color="#DAE4F4" offset="20.01%"></stop>
            <stop stop-color="#EBEBF4" offset="20.07%"></stop>
            <stop stop-color="#F6F1F4" offset="20.14%"></stop>
            <stop stop-color="#FDF4F4" offset="20.23%"></stop>
            <stop stop-color="#FFF5F4" offset="20.5%"></stop>
            <stop stop-color="#FFF5F4" offset="25.22%"></stop>
            <stop stop-color="#FFF5F4" offset="26%"></stop>
            <stop stop-color="#D4E1F4" offset="26%"></stop>
            <stop stop-color="#D4E1F4" offset="39.74%"></stop>
            <stop stop-color="#D4E1F4" offset="42%"></stop>
            <stop stop-color="#DAE4F4" offset="42.01%"></stop>
            <stop stop-color="#EBEBF4" offset="42.07%"></stop>
            <stop stop-color="#F6F1F4" offset="42.14%"></stop>
            <stop stop-color="#FDF4F4" offset="42.23%"></stop>
            <stop stop-color="#FFF5F4" offset="42.5%"></stop>
            <stop stop-color="#FFF5F4" offset="48.94%"></stop>
            <stop stop-color="#FFF5F4" offset="50%"></stop>
            <stop stop-color="#F9F2F4" offset="50%"></stop>
            <stop stop-color="#E8EBF4" offset="50.01%"></stop>
            <stop stop-color="#DDE5F4" offset="50.03%"></stop>
            <stop stop-color="#D6E2F4" offset="50.05%"></stop>
            <stop stop-color="#D4E1F4" offset="50.1%"></stop>
            <stop stop-color="#D4E1F4" offset="70.62%"></stop>
            <stop stop-color="#D4E1F4" offset="74%"></stop>
            <stop stop-color="#FFF5F4" offset="74.1%"></stop>
            <stop stop-color="#FFF5F4" offset="83.46%"></stop>
            <stop stop-color="#FFF5F4" offset="85%"></stop>
            <stop stop-color="#D4E1F4" offset="85.1%"></stop>
        </linearGradient>
    </defs>
    <g id="Page-1" stroke="none" stroke-width="1" fill="none" fill-rule="evenodd">
        <g id="Artboard" transform="translate(-519.000000, -8.000000)">
            <g id="settings" transform="translate(519.000000, 8.000000)">
                <g>
                    <path d="M56.7995322,24.4444922 L51.1976608,24.4444922 C49.8791813,24.4444922 48.6905263,23.6486719 48.1859649,22.4281641 C47.6814035,21.2076562 47.9603509,19.8028125 48.8926316,18.8685938 L52.8536842,14.8998047 C53.6247953,14.1271875 53.6247953,12.8744531 52.8536842,12.1018359 L47.8047953,7.04296875 C47.4345029,6.67195312 46.9322807,6.46347656 46.408538,6.46347656 C45.8847953,6.46347656 45.3825731,6.67195312 45.0122807,7.04296875 L41.0512281,11.0117578 C40.1189474,11.9458594 38.7167251,12.2253516 37.4985965,11.7198047 C36.2804678,11.2142578 35.4861988,10.0232812 35.4861988,8.70222656 L35.4861988,3.08953125 C35.4861988,2.56476562 35.2781287,2.0615625 34.9078363,1.69054687 C34.5375439,1.31953125 34.0353216,1.11105469 33.5115789,1.11105469 L26.371345,1.11105469 C25.2808187,1.11105469 24.3967251,1.996875 24.3967251,3.08953125 L24.3967251,8.70222656 C24.3967251,10.0232812 23.6024561,11.2142578 22.3843275,11.7198047 C21.1661988,12.2253516 19.7640936,11.9458594 18.8316959,11.0117578 L14.8707602,7.04296875 C14.5004678,6.67195312 13.9982456,6.46347656 13.4745029,6.46347656 C12.9507602,6.46347656 12.448538,6.67195312 12.0782456,7.04296875 L7.02935673,12.1018359 C6.25824561,12.8744531 6.25824561,14.1271875 7.02935673,14.8998047 L10.9904094,18.8685938 C11.9226901,19.8026953 12.2016374,21.2075391 11.697076,22.4280469 C11.1925146,23.6485547 10.0038596,24.444375 8.68538012,24.444375 L3.08350877,24.444375 C1.99298246,24.444375 1.10888889,25.3301953 1.10888889,26.4228516 L1.10888889,33.5770313 C1.10888889,34.6696875 1.99298246,35.5555078 3.08350877,35.5555078 L8.68538012,35.5555078 C10.0038596,35.5555078 11.1925146,36.3513281 11.697076,37.5718359 C12.2016374,38.7923438 11.9226901,40.1971875 10.9904094,41.1314062 L7.02935673,45.1001953 C6.25824561,45.8728125 6.25824561,47.1255469 7.02935673,47.8981641 L12.0782456,52.9569141 C12.8493567,53.7295313 14.0996491,53.7295313 14.8707602,52.9569141 L18.8318129,48.988125 C19.7640936,48.0540234 21.1663158,47.7745313 22.3844444,48.2800781 C23.6025731,48.785625 24.3968421,49.9766016 24.3968421,51.2976563 L24.3968421,56.9103516 C24.3968421,58.0030078 25.2809357,58.8888281 26.371462,58.8888281 L33.5116959,58.8888281 C34.0354386,58.8888281 34.5376608,58.6803516 34.9079532,58.3093359 C35.2782456,57.9383203 35.4863158,57.4351172 35.4863158,56.9103516 L35.4863158,51.2976563 C35.4863158,49.9766016 36.2805848,48.785625 37.4987135,48.2800781 C38.7168421,47.7745313 40.1189474,48.0540234 41.051345,48.988125 L45.0123977,52.9569141 C45.7835088,53.7295313 47.0338012,53.7295313 47.8049123,52.9569141 L52.8538012,47.8981641 C53.6249123,47.1255469 53.6249123,45.8728125 52.8538012,45.1001953 L48.8927485,41.1314062 C47.9604678,40.1973047 47.6815205,38.7923438 48.1860819,37.5718359 C48.6906433,36.3513281 49.8792982,35.5555078 51.1977778,35.5555078 L56.7995322,35.5555078 C57.8900585,35.5555078 58.774152,34.6696875 58.774152,33.5770313 L58.774152,26.4228516 C58.774152,25.3301953 57.8900585,24.4444922 56.7995322,24.4444922 Z" id="Shape" fill="#A4C2F7" fill-rule="nonzero"></path>
                    <path d="M53.4726316,24.4444922 L47.8708772,24.4444922 C46.5523977,24.4444922 45.3637427,23.6486719 44.8591813,22.4281641 C44.3546199,21.2076562 44.6335673,19.8028125 45.565848,18.8685937 L49.5269006,14.8996875 C49.897193,14.5286719 50.1052632,14.0254688 50.1052632,13.5008203 C50.1052632,12.9761719 49.8973099,12.4728516 49.5270175,12.1018359 L45.0112281,7.57734375 C44.9271345,7.62351563 44.8381287,7.66019531 44.7460819,7.68691406 C42.6204678,8.45941406 40.7270175,9.76335937 39.245614,11.4748828 C39.0004678,11.7332812 38.6492398,11.8625391 38.2954386,11.8246875 C37.9416374,11.7868359 37.625614,11.5859766 37.4405848,11.2815234 C35.6568421,12.9167578 35.4863158,11.4703125 35.4863158,8.70222656 L35.4863158,3.08941406 C35.4863158,2.56464844 35.2782456,2.06144531 34.9079532,1.69042969 C34.5376608,1.31941406 34.0353216,1.1109375 33.5116959,1.11105469 L26.371462,1.11105469 C25.8477193,1.11105469 25.3454971,1.31941406 24.9752047,1.69042969 C24.6049123,2.06144531 24.3968421,2.56464844 24.3968421,3.08941406 L24.3968421,8.70222656 C24.3968421,10.0232813 23.6025731,11.2142578 22.3844444,11.7198047 C21.1663158,12.2253516 19.7642105,11.9458594 18.8319298,11.0117578 L14.8708772,7.04285156 C14.0997661,6.27023438 12.8494737,6.27023438 12.0783626,7.04285156 L7.02947368,12.1017187 C6.65918129,12.4727344 6.45111111,12.9759375 6.45122807,13.5007031 C6.45122807,14.0253516 6.65929825,14.5285547 7.02959064,14.8995703 L10.9906433,18.8684766 C11.922924,19.8025781 12.2018713,21.2075391 11.6973099,22.4280469 C11.1927485,23.6485547 10.0040936,24.444375 8.68561404,24.444375 L3.08362573,24.444375 C2.55988304,24.444375 2.05766082,24.6527344 1.68736842,25.02375 C1.31707602,25.3947656 1.10900585,25.8979687 1.10900585,26.4227344 L1.10900585,33.5769141 C1.10900585,34.6696875 1.99309942,35.5555078 3.08362573,35.5555078 L8.68538012,35.5555078 C10.0038596,35.5555078 11.1925146,36.3513281 11.697076,37.5718359 C12.2016374,38.7923438 11.9226901,40.1971875 10.9904094,41.1314062 L7.02935673,45.1000781 C6.25824561,45.8728125 6.25824561,47.1255469 7.02935673,47.8981641 L12.0782456,52.9567969 C12.8493567,53.7294141 14.0996491,53.7294141 14.8707602,52.9567969 L18.8318129,48.988125 C19.7640936,48.0539063 21.1663158,47.7744141 22.3844444,48.2800781 C23.6025731,48.785625 24.3968421,49.9767188 24.3968421,51.2977734 L24.3968421,56.9103516 C24.3968421,58.0030078 25.2809357,58.8889453 26.371462,58.8889453 L33.5116959,58.8889453 C34.6023392,58.8889453 35.4863158,58.0030078 35.4863158,56.9103516 L35.4863158,51.2978906 C35.4863158,48.7436719 35.6292398,47.3102344 37.0528655,48.3890625 C37.3350877,47.2939453 39.0865497,46.9768359 39.3376608,48.2683594 C39.7725146,48.2380078 40.1864327,48.4592578 40.4035088,48.8380078 C40.9090058,49.6105078 41.5936842,50.2487109 42.3989474,50.6983594 C42.8646784,51.0053906 43.071462,51.5841797 42.9060819,52.1176172 C43.4339181,52.3627734 43.9795322,52.5673828 44.5382456,52.7298047 C44.5816374,52.7425781 44.617193,52.7617969 44.657076,52.7776172 L49.5269006,47.8982813 C50.2980117,47.1255469 50.2980117,45.8728125 49.5269006,45.1001953 L45.565848,41.1315234 C44.6335673,40.1974219 44.3546199,38.7924609 44.8591813,37.5719531 C45.3637427,36.3514453 46.5523977,35.555625 47.8709942,35.555625 L53.4727485,35.555625 C54.5633918,35.555625 55.4473684,34.6696875 55.4473684,33.5770313 L55.4473684,26.4228516 C55.4473684,25.8980859 55.2392982,25.3948828 54.8690058,25.0238672 C54.4985965,24.6528516 53.9963743,24.444375 53.4726316,24.4444922 Z" id="Shape" fill="url(#linearGradient-1)" fill-rule="nonzero"></path>
                    <ellipse id="Oval" fill="#7FACFA" fill-rule="nonzero" cx="29.9415205" cy="30" rx="8.87157895" ry="8.88890625"></ellipse>
                    <ellipse id="Oval" fill="#A4C2F7" fill-rule="nonzero" cx="28.2781287" cy="30" rx="7.20818713" ry="8.88890625"></ellipse>
                    <g id="Group" transform="translate(1.052632, 6.445312)" fill="#FFFFFF" fill-rule="nonzero">
                        <path d="M14.0843275,45.8675391 C13.9921637,45.8942578 13.9032749,45.9310547 13.8191813,45.9771094 L9.30350877,41.4526172 C8.93321637,41.0816016 8.7251462,40.5783984 8.72526316,40.0536328 C8.72526316,39.5289844 8.93333333,39.0257813 9.30362573,38.6547656 L13.2646784,34.6858594 C14.1969591,33.7517578 14.4759064,32.3467969 13.971345,31.1262891 C13.4667836,29.9057813 12.2781287,29.1099609 10.9596491,29.1099609 L7.63274854,29.1099609 C8.95122807,29.1099609 10.139883,29.9057813 10.6444444,31.1262891 C11.1490058,32.3467969 10.8700585,33.7516406 9.93777778,34.6858594 L5.97672515,38.6547656 C5.60643275,39.0257813 5.39836257,39.5289844 5.39836257,40.0536328 C5.39836257,40.5782813 5.60631579,41.0816016 5.97660819,41.4526172 L11.0254971,46.5114844 C11.7966082,47.2841016 13.0469006,47.2841016 13.8180117,46.5114844 L14.662924,45.6648047 C14.4719298,45.7369922 14.2810526,45.8105859 14.0843275,45.8675391 Z" id="Shape"></path>
                        <path d="M9.93777778,12.4229297 C10.8700585,13.3570312 11.1490058,14.7619922 10.6444444,15.9825 C10.139883,17.2030078 8.95122807,17.9988281 7.63274854,17.9988281 L10.9595322,17.9988281 C12.2780117,17.9988281 13.4666667,17.2030078 13.9712281,15.9825 C14.4757895,14.7619922 14.1968421,13.3571484 13.2645614,12.4229297 L9.30350877,8.45425781 C8.53239766,7.68152344 8.53239766,6.42878906 9.30350877,5.65617187 L14.0852632,0.865078125 L13.8181287,0.59765625 C13.0470175,-0.174960938 11.7967251,-0.174960938 11.025614,0.59765625 L5.97672515,5.65628906 C5.20561404,6.42902344 5.20561404,7.68175781 5.97672515,8.454375 L9.93777778,12.4229297 Z" id="Shape"></path>
                        <path d="M2.03099415,29.1099609 L5.35777778,29.1099609 C4.83403509,29.1099609 4.33181287,28.9016016 3.96152047,28.5305859 C3.59122807,28.1595703 3.38315789,27.6563672 3.38315789,27.1316016 L3.38315789,19.9774219 C3.38315789,18.8846484 4.26725146,17.9988281 5.35777778,17.9988281 L2.03099415,17.9988281 C0.940350877,17.9988281 0.056374269,18.8847656 0.056374269,19.9774219 L0.056374269,27.1316016 C0.056374269,27.6563672 0.264444444,28.1595703 0.634736842,28.5305859 C1.00502924,28.9016016 1.50725146,29.1099609 2.03099415,29.1099609 Z" id="Shape"></path>
                    </g>
                    <g id="Group" fill="#428DFF" fill-rule="nonzero">
                        <path d="M33.5120468,60 L26.3709942,60 C24.6690058,59.9982422 23.2895906,58.6161328 23.2878363,56.9108203 L23.2878363,51.2977734 C23.2877193,50.4260156 22.7636257,49.6402734 21.959883,49.3065234 C21.1561404,48.9728906 20.2308772,49.1569922 19.6155556,49.7731641 L15.6552047,53.7423047 C14.4354386,54.9108984 12.5139181,54.9108984 11.294152,53.7423047 L6.24538012,48.6836719 C5.04116959,47.4769922 5.04116959,45.5207812 6.24538012,44.3141016 L10.2067836,40.3460156 C10.8217544,39.729375 11.005614,38.8024219 10.6725146,37.9971094 C10.3395322,37.1917969 9.55520468,36.6666797 8.6851462,36.6665625 L3.08315789,36.6665625 C1.38116959,36.6648047 0.00175438596,35.2828125 0,33.5775 L0,26.4225 C0.00175438596,24.7171875 1.38116959,23.3350781 3.08315789,23.3333203 L8.68526316,23.3333203 C9.55532164,23.3332031 10.3395322,22.8080859 10.6726316,22.0027734 C11.005614,21.1974609 10.8218713,20.2703906 10.2069006,19.6538672 L6.24549708,15.6857813 C5.04128655,14.4791016 5.04128655,12.5228906 6.24549708,11.3162109 L11.294269,6.25757813 C12.514386,5.09003906 14.4352047,5.09003906 15.6553216,6.25757813 L19.6156725,10.2256641 C20.2307602,10.8423047 21.1560234,11.0269922 21.959883,10.6934766 C22.7638596,10.3599609 23.2879532,9.57398438 23.2879532,8.70222656 L23.2879532,3.08917969 C23.2897076,1.38386719 24.6690058,0.0017578125 26.3709942,0 L33.5120468,0 C35.2140351,0.0017578125 36.5934503,1.38386719 36.5952047,3.08917969 L36.5952047,8.70222656 C36.5952047,9.57398438 37.1192982,10.3599609 37.9232749,10.6934766 C38.7272515,11.0269922 39.6525146,10.8423047 40.2674854,10.2256641 L44.2278363,6.25757813 C45.4479532,5.09003906 47.3687719,5.09003906 48.5888889,6.25757813 L53.6376608,11.3162109 C54.8418713,12.5228906 54.8418713,14.4791016 53.6376608,15.6857812 L49.6762573,19.6538672 C49.0612865,20.2705078 48.8774269,21.1974609 49.2105263,22.0027734 C49.5435088,22.8080859 50.3278363,23.3332031 51.1978947,23.3333203 L56.8,23.3333203 C58.5019883,23.3351953 59.8812865,24.7171875 59.8831579,26.4225 L59.8831579,33.5775 C59.8814035,35.2828125 58.5019883,36.6649219 56.8,36.6666797 L51.1978947,36.6666797 C50.3278363,36.6667969 49.5436257,37.1919141 49.2105263,37.9972266 C48.8775439,38.8025391 49.0612865,39.7296094 49.6762573,40.3461328 L53.6376608,44.3142187 C54.8418713,45.5208984 54.8418713,47.4772266 53.6376608,48.6837891 L48.5888889,53.7424219 C47.3687719,54.9099609 45.4479532,54.9099609 44.2278363,53.7424219 L40.2674854,49.7732812 C39.6520468,49.1571094 38.7269006,48.9728906 37.9231579,49.3066406 C37.1194152,49.6402734 36.5953216,50.4261328 36.5952047,51.2978906 L36.5952047,56.9109375 C36.5933333,58.61625 35.2140351,59.9982422 33.5120468,60 Z M21.1090058,46.9086328 C21.6929825,46.9100391 22.2707602,47.0273438 22.8092398,47.2536328 C24.454152,47.9159766 25.5247953,49.5216797 25.505848,51.2977734 L25.505848,56.9108203 C25.5060819,57.3895313 25.8933333,57.7775391 26.3711111,57.7777734 L33.5121637,57.7777734 C33.9899415,57.7775391 34.377193,57.3895313 34.3774269,56.9108203 L34.3774269,51.2977734 C34.3775439,49.5273047 35.4419883,47.9310938 37.074386,47.2535156 C38.7069006,46.5759375 40.5860819,46.9502344 41.8356725,48.2020312 L45.7960234,52.1711719 C46.134386,52.5097266 46.6824561,52.5097266 47.0208187,52.1711719 L52.0695906,47.1125391 C52.4074854,46.7735156 52.4074854,46.224375 52.0695906,45.8853516 L48.1081871,41.9172656 C46.8588304,40.6652344 46.4851462,38.7823828 47.1614035,37.1466797 C47.8376608,35.5109766 49.4307602,34.4444531 51.1977778,34.4444531 L56.799883,34.4444531 C57.2776608,34.4442187 57.6649123,34.0562109 57.6651462,33.5775 L57.6651462,26.4225 C57.6649123,25.9437891 57.2776608,25.5557812 56.799883,25.5555469 L51.1977778,25.5555469 C49.4307602,25.5554297 47.8376608,24.4889062 47.1614035,22.8532031 C46.4851462,21.2175 46.8587135,19.3346484 48.1080702,18.0826172 L52.0694737,14.1145312 C52.4073684,13.7755078 52.4073684,13.2263672 52.0694737,12.8873437 L47.0207018,7.82871094 C46.6823392,7.49015625 46.134269,7.49015625 45.7959064,7.82871094 L41.8355556,11.7967969 C40.5863158,13.0490625 38.7070175,13.4239453 37.074386,12.7464844 C35.4416374,12.0690234 34.377193,10.4728125 34.3773099,8.70210937 L34.3773099,3.08917969 C34.377076,2.61046875 33.9898246,2.22246094 33.5120468,2.22222656 L26.3709942,2.22222656 C25.8932164,2.22246094 25.5059649,2.61046875 25.505731,3.08917969 L25.505731,8.70222656 C25.505848,10.4728125 24.4412865,12.0691406 22.808538,12.7464844 C21.1759064,13.4239453 19.2966082,13.0490625 18.0473684,11.7967969 L14.0870175,7.82871094 C13.748655,7.49015625 13.2005848,7.49015625 12.8622222,7.82871094 L7.81345029,12.8873438 C7.47555556,13.2263672 7.47555556,13.7755078 7.81345029,14.1145313 L11.7748538,18.0826172 C13.0242105,19.3346484 13.3977778,21.2175 12.7215205,22.8532031 C12.0452632,24.4889063 10.4521637,25.5554297 8.6851462,25.5554297 L3.08315789,25.5554297 C2.60538012,25.5556641 2.21812865,25.9436719 2.21789474,26.4223828 L2.21789474,33.5773828 C2.21812865,34.0560937 2.60538012,34.4441016 3.08315789,34.4443359 L8.68526316,34.4443359 C10.4522807,34.4444531 12.0453801,35.5109766 12.7216374,37.1465625 C13.3978947,38.7822656 13.0243275,40.6651172 11.7749708,41.9171484 L7.81356725,45.8852344 C7.47567251,46.2242578 7.47567251,46.7733984 7.81356725,47.1124219 L12.8623392,52.1710547 C13.2007018,52.5096094 13.7487719,52.5096094 14.0871345,52.1710547 L18.0474854,48.2019141 C18.854386,47.3782031 19.9569591,46.9123828 21.1090058,46.9086328 Z" id="Shape"></path>
                        <path d="M29.9415205,39.9999609 C24.4294737,39.9999609 19.9610526,35.5228125 19.9610526,30 C19.9610526,24.4771875 24.4294737,20.0000391 29.9415205,20.0000391 C35.4535673,20.0000391 39.9219883,24.4771875 39.9219883,30 C39.9160234,35.5203516 35.4511111,39.9939844 29.9415205,39.9999609 Z M29.9415205,22.2222656 C25.654386,22.2222656 22.1789474,25.7044922 22.1789474,30 C22.1789474,34.2955078 25.654386,37.7777344 29.9415205,37.7777344 C34.228655,37.7777344 37.7040936,34.2955078 37.7040936,30 C37.6989474,25.7066016 34.2265497,22.2274219 29.9415205,22.2222656 Z" id="Shape"></path>
                    </g>
                </g>
            </g>
        </g>
    </g>
</svg>